<?xml version="1.0" encoding="UTF-8" standalone="no"?>
<!DOCTYPE svg PUBLIC "-//W3C//DTD SVG 1.1//EN"
 "http://www.w3.org/Graphics/SVG/1.1/DTD/svg11.dtd">
<!-- Generated by graphviz version 5.0.0 (20220707.1540)
 -->
<!-- Title: dependencies Pages: 1 -->
<svg width="807pt" height="174pt"
 viewBox="0.00 0.00 807.00 173.80" xmlns="http://www.w3.org/2000/svg" xmlns:xlink="http://www.w3.org/1999/xlink">
<g id="graph0" class="graph" transform="scale(1 1) rotate(0) translate(4 169.8)">
<title>dependencies</title>
<polygon fill="white" stroke="transparent" points="-4,4 -4,-169.8 803,-169.8 803,4 -4,4"/>
<text text-anchor="middle" x="399.5" y="-8.2" font-family="sans-serif" font-size="14.00">dependencies</text>
<g id="clust1" class="cluster">
<title>cluster_JqueryPluginModule</title>
<polygon fill="none" stroke="black" stroke-dasharray="1,5" points="8,-32.8 8,-157.8 791,-157.8 791,-32.8 8,-32.8"/>
</g>
<g id="clust2" class="cluster">
<title>cluster_JqueryPluginModule_declarations</title>
<polygon fill="none" stroke="black" points="218,-40.8 218,-92.8 783,-92.8 783,-40.8 218,-40.8"/>
</g>
<g id="clust6" class="cluster">
<title>cluster_JqueryPluginModule_imports</title>
<polygon fill="none" stroke="black" points="16,-40.8 16,-92.8 210,-92.8 210,-40.8 16,-40.8"/>
</g>
<!-- ColorPickerComponent -->
<g id="node1" class="node">
<title>ColorPickerComponent</title>
<polygon fill="#ffffb3" stroke="black" points="775.49,-84.8 626.51,-84.8 626.51,-48.8 775.49,-48.8 775.49,-84.8"/>
<text text-anchor="middle" x="701" y="-62.6" font-family="Times,serif" font-size="14.00">ColorPickerComponent</text>
</g>
<!-- JqueryPluginModule -->
<g id="node4" class="node">
<title>JqueryPluginModule</title>
<polygon fill="#8dd3c7" stroke="black" points="470.94,-149.8 467.94,-153.8 446.94,-153.8 443.94,-149.8 337.06,-149.8 337.06,-113.8 470.94,-113.8 470.94,-149.8"/>
<text text-anchor="middle" x="404" y="-127.6" font-family="Times,serif" font-size="14.00">JqueryPluginModule</text>
</g>
<!-- ColorPickerComponent&#45;&gt;JqueryPluginModule -->
<g id="edge1" class="edge">
<title>ColorPickerComponent&#45;&gt;JqueryPluginModule</title>
<path fill="none" stroke="black" d="M701,-84.91C701,-104.14 701,-131.8 701,-131.8 701,-131.8 481.02,-131.8 481.02,-131.8"/>
<polygon fill="black" stroke="black" points="481.02,-128.3 471.02,-131.8 481.02,-135.3 481.02,-128.3"/>
</g>
<!-- ColorPickerOptimizedComponent -->
<g id="node2" class="node">
<title>ColorPickerOptimizedComponent</title>
<polygon fill="#ffffb3" stroke="black" points="608.08,-84.8 399.92,-84.8 399.92,-48.8 608.08,-48.8 608.08,-84.8"/>
<text text-anchor="middle" x="504" y="-62.6" font-family="Times,serif" font-size="14.00">ColorPickerOptimizedComponent</text>
</g>
<!-- ColorPickerOptimizedComponent&#45;&gt;JqueryPluginModule -->
<g id="edge2" class="edge">
<title>ColorPickerOptimizedComponent&#45;&gt;JqueryPluginModule</title>
<path fill="none" stroke="black" d="M435.34,-84.91C435.34,-84.91 435.34,-103.79 435.34,-103.79"/>
<polygon fill="black" stroke="black" points="431.84,-103.79 435.34,-113.79 438.84,-103.79 431.84,-103.79"/>
</g>
<!-- JqueryPluginComponent -->
<g id="node3" class="node">
<title>JqueryPluginComponent</title>
<polygon fill="#ffffb3" stroke="black" points="381.72,-84.8 226.28,-84.8 226.28,-48.8 381.72,-48.8 381.72,-84.8"/>
<text text-anchor="middle" x="304" y="-62.6" font-family="Times,serif" font-size="14.00">JqueryPluginComponent</text>
</g>
<!-- JqueryPluginComponent&#45;&gt;JqueryPluginModule -->
<g id="edge3" class="edge">
<title>JqueryPluginComponent&#45;&gt;JqueryPluginModule</title>
<path fill="none" stroke="black" d="M359.44,-84.91C359.44,-84.91 359.44,-103.79 359.44,-103.79"/>
<polygon fill="black" stroke="black" points="355.94,-103.79 359.44,-113.79 362.94,-103.79 355.94,-103.79"/>
</g>
<!-- JqueryPluginRoutingModule -->
<g id="node5" class="node">
<title>JqueryPluginRoutingModule</title>
<polygon fill="#8dd3c7" stroke="black" points="202.06,-84.8 199.06,-88.8 178.06,-88.8 175.06,-84.8 23.94,-84.8 23.94,-48.8 202.06,-48.8 202.06,-84.8"/>
<text text-anchor="middle" x="113" y="-62.6" font-family="Times,serif" font-size="14.00">JqueryPluginRoutingModule</text>
</g>
<!-- JqueryPluginRoutingModule&#45;&gt;JqueryPluginModule -->
<g id="edge4" class="edge">
<title>JqueryPluginRoutingModule&#45;&gt;JqueryPluginModule</title>
<path fill="none" stroke="black" d="M113,-84.91C113,-104.14 113,-131.8 113,-131.8 113,-131.8 327.24,-131.8 327.24,-131.8"/>
<polygon fill="black" stroke="black" points="327.24,-135.3 337.24,-131.8 327.24,-128.3 327.24,-135.3"/>
</g>
</g>
</svg>
