<?xml version="1.0" encoding="UTF-8" standalone="no"?>
<!DOCTYPE svg PUBLIC "-//W3C//DTD SVG 1.1//EN"
 "http://www.w3.org/Graphics/SVG/1.1/DTD/svg11.dtd">
<!-- Generated by graphviz version 5.0.0 (20220707.1540)
 -->
<!-- Title: dependencies Pages: 1 -->
<svg width="336pt" height="174pt"
 viewBox="0.00 0.00 336.00 173.80" xmlns="http://www.w3.org/2000/svg" xmlns:xlink="http://www.w3.org/1999/xlink">
<g id="graph0" class="graph" transform="scale(1 1) rotate(0) translate(4 169.8)">
<title>dependencies</title>
<polygon fill="white" stroke="transparent" points="-4,4 -4,-169.8 332,-169.8 332,4 -4,4"/>
<text text-anchor="middle" x="164" y="-8.2" font-family="sans-serif" font-size="14.00">dependencies</text>
<g id="clust1" class="cluster">
<title>cluster_Lazy1Module</title>
<polygon fill="none" stroke="black" stroke-dasharray="1,5" points="8,-32.8 8,-157.8 320,-157.8 320,-32.8 8,-32.8"/>
</g>
<g id="clust2" class="cluster">
<title>cluster_Lazy1Module_declarations</title>
<polygon fill="none" stroke="black" points="180,-40.8 180,-92.8 312,-92.8 312,-40.8 180,-40.8"/>
</g>
<g id="clust4" class="cluster">
<title>cluster_Lazy1Module_imports</title>
<polygon fill="none" stroke="black" points="16,-40.8 16,-92.8 172,-92.8 172,-40.8 16,-40.8"/>
</g>
<!-- Lazy1Component -->
<g id="node1" class="node">
<title>Lazy1Component</title>
<polygon fill="#ffffb3" stroke="black" points="304.31,-84.8 187.69,-84.8 187.69,-48.8 304.31,-48.8 304.31,-84.8"/>
<text text-anchor="middle" x="246" y="-62.6" font-family="Times,serif" font-size="14.00">Lazy1Component</text>
</g>
<!-- Lazy1Module -->
<g id="node2" class="node">
<title>Lazy1Module</title>
<polygon fill="#8dd3c7" stroke="black" points="217.03,-149.8 214.03,-153.8 193.03,-153.8 190.03,-149.8 122.97,-149.8 122.97,-113.8 217.03,-113.8 217.03,-149.8"/>
<text text-anchor="middle" x="170" y="-127.6" font-family="Times,serif" font-size="14.00">Lazy1Module</text>
</g>
<!-- Lazy1Component&#45;&gt;Lazy1Module -->
<g id="edge1" class="edge">
<title>Lazy1Component&#45;&gt;Lazy1Module</title>
<path fill="none" stroke="black" d="M202.56,-84.91C202.56,-84.91 202.56,-103.79 202.56,-103.79"/>
<polygon fill="black" stroke="black" points="199.06,-103.79 202.56,-113.79 206.06,-103.79 199.06,-103.79"/>
</g>
<!-- Lazy1RoutingModule -->
<g id="node3" class="node">
<title>Lazy1RoutingModule</title>
<polygon fill="#8dd3c7" stroke="black" points="163.65,-84.8 160.65,-88.8 139.65,-88.8 136.65,-84.8 24.35,-84.8 24.35,-48.8 163.65,-48.8 163.65,-84.8"/>
<text text-anchor="middle" x="94" y="-62.6" font-family="Times,serif" font-size="14.00">Lazy1RoutingModule</text>
</g>
<!-- Lazy1RoutingModule&#45;&gt;Lazy1Module -->
<g id="edge2" class="edge">
<title>Lazy1RoutingModule&#45;&gt;Lazy1Module</title>
<path fill="none" stroke="black" d="M143.28,-84.91C143.28,-84.91 143.28,-103.79 143.28,-103.79"/>
<polygon fill="black" stroke="black" points="139.78,-103.79 143.28,-113.79 146.78,-103.79 139.78,-103.79"/>
</g>
</g>
</svg>
