<?xml version="1.0" encoding="UTF-8" standalone="no"?>
<!DOCTYPE svg PUBLIC "-//W3C//DTD SVG 1.1//EN"
 "http://www.w3.org/Graphics/SVG/1.1/DTD/svg11.dtd">
<!-- Generated by graphviz version 5.0.0 (20220707.1540)
 -->
<!-- Title: dependencies Pages: 1 -->
<svg width="802pt" height="174pt"
 viewBox="0.00 0.00 802.00 173.80" xmlns="http://www.w3.org/2000/svg" xmlns:xlink="http://www.w3.org/1999/xlink">
<g id="graph0" class="graph" transform="scale(1 1) rotate(0) translate(4 169.8)">
<title>dependencies</title>
<polygon fill="white" stroke="transparent" points="-4,4 -4,-169.8 798,-169.8 798,4 -4,4"/>
<text text-anchor="middle" x="397" y="-8.2" font-family="sans-serif" font-size="14.00">dependencies</text>
<g id="clust1" class="cluster">
<title>cluster_OutsideClicksModule</title>
<polygon fill="none" stroke="black" stroke-dasharray="1,5" points="8,-32.8 8,-157.8 786,-157.8 786,-32.8 8,-32.8"/>
</g>
<g id="clust2" class="cluster">
<title>cluster_OutsideClicksModule_declarations</title>
<polygon fill="none" stroke="black" points="224,-40.8 224,-92.8 778,-92.8 778,-40.8 224,-40.8"/>
</g>
<g id="clust6" class="cluster">
<title>cluster_OutsideClicksModule_imports</title>
<polygon fill="none" stroke="black" points="16,-40.8 16,-92.8 216,-92.8 216,-40.8 16,-40.8"/>
</g>
<!-- DropdownComponent -->
<g id="node1" class="node">
<title>DropdownComponent</title>
<polygon fill="#ffffb3" stroke="black" points="769.71,-84.8 628.29,-84.8 628.29,-48.8 769.71,-48.8 769.71,-84.8"/>
<text text-anchor="middle" x="699" y="-62.6" font-family="Times,serif" font-size="14.00">DropdownComponent</text>
</g>
<!-- OutsideClicksModule -->
<g id="node4" class="node">
<title>OutsideClicksModule</title>
<polygon fill="#8dd3c7" stroke="black" points="480.38,-149.8 477.38,-153.8 456.38,-153.8 453.38,-149.8 341.62,-149.8 341.62,-113.8 480.38,-113.8 480.38,-149.8"/>
<text text-anchor="middle" x="411" y="-127.6" font-family="Times,serif" font-size="14.00">OutsideClicksModule</text>
</g>
<!-- DropdownComponent&#45;&gt;OutsideClicksModule -->
<g id="edge1" class="edge">
<title>DropdownComponent&#45;&gt;OutsideClicksModule</title>
<path fill="none" stroke="black" d="M699,-84.91C699,-104.14 699,-131.8 699,-131.8 699,-131.8 490.72,-131.8 490.72,-131.8"/>
<polygon fill="black" stroke="black" points="490.72,-128.3 480.72,-131.8 490.72,-135.3 490.72,-128.3"/>
</g>
<!-- DropdownOptimizedComponent -->
<g id="node2" class="node">
<title>DropdownOptimizedComponent</title>
<polygon fill="#ffffb3" stroke="black" points="610.31,-84.8 409.69,-84.8 409.69,-48.8 610.31,-48.8 610.31,-84.8"/>
<text text-anchor="middle" x="510" y="-62.6" font-family="Times,serif" font-size="14.00">DropdownOptimizedComponent</text>
</g>
<!-- DropdownOptimizedComponent&#45;&gt;OutsideClicksModule -->
<g id="edge2" class="edge">
<title>DropdownOptimizedComponent&#45;&gt;OutsideClicksModule</title>
<path fill="none" stroke="black" d="M445.14,-84.91C445.14,-84.91 445.14,-103.79 445.14,-103.79"/>
<polygon fill="black" stroke="black" points="441.64,-103.79 445.14,-113.79 448.64,-103.79 441.64,-103.79"/>
</g>
<!-- OutsideClicksComponent -->
<g id="node3" class="node">
<title>OutsideClicksComponent</title>
<polygon fill="#ffffb3" stroke="black" points="392.16,-84.8 231.84,-84.8 231.84,-48.8 392.16,-48.8 392.16,-84.8"/>
<text text-anchor="middle" x="312" y="-62.6" font-family="Times,serif" font-size="14.00">OutsideClicksComponent</text>
</g>
<!-- OutsideClicksComponent&#45;&gt;OutsideClicksModule -->
<g id="edge3" class="edge">
<title>OutsideClicksComponent&#45;&gt;OutsideClicksModule</title>
<path fill="none" stroke="black" d="M366.94,-84.91C366.94,-84.91 366.94,-103.79 366.94,-103.79"/>
<polygon fill="black" stroke="black" points="363.44,-103.79 366.94,-113.79 370.44,-103.79 363.44,-103.79"/>
</g>
<!-- OutsideClicksRoutingModule -->
<g id="node5" class="node">
<title>OutsideClicksRoutingModule</title>
<polygon fill="#8dd3c7" stroke="black" points="208,-84.8 205,-88.8 184,-88.8 181,-84.8 24,-84.8 24,-48.8 208,-48.8 208,-84.8"/>
<text text-anchor="middle" x="116" y="-62.6" font-family="Times,serif" font-size="14.00">OutsideClicksRoutingModule</text>
</g>
<!-- OutsideClicksRoutingModule&#45;&gt;OutsideClicksModule -->
<g id="edge4" class="edge">
<title>OutsideClicksRoutingModule&#45;&gt;OutsideClicksModule</title>
<path fill="none" stroke="black" d="M116,-84.91C116,-104.14 116,-131.8 116,-131.8 116,-131.8 331.46,-131.8 331.46,-131.8"/>
<polygon fill="black" stroke="black" points="331.46,-135.3 341.46,-131.8 331.46,-128.3 331.46,-135.3"/>
</g>
</g>
</svg>
