<?xml version="1.0" encoding="UTF-8" standalone="no"?>
<!DOCTYPE svg PUBLIC "-//W3C//DTD SVG 1.1//EN"
 "http://www.w3.org/Graphics/SVG/1.1/DTD/svg11.dtd">
<!-- Generated by graphviz version 5.0.0 (20220707.1540)
 -->
<!-- Title: dependencies Pages: 1 -->
<svg width="610pt" height="174pt"
 viewBox="0.00 0.00 610.00 173.80" xmlns="http://www.w3.org/2000/svg" xmlns:xlink="http://www.w3.org/1999/xlink">
<g id="graph0" class="graph" transform="scale(1 1) rotate(0) translate(4 169.8)">
<title>dependencies</title>
<polygon fill="white" stroke="transparent" points="-4,4 -4,-169.8 606,-169.8 606,4 -4,4"/>
<text text-anchor="middle" x="301" y="-8.2" font-family="sans-serif" font-size="14.00">dependencies</text>
<g id="clust1" class="cluster">
<title>cluster_HttpCachingModule</title>
<polygon fill="none" stroke="black" stroke-dasharray="1,5" points="8,-32.8 8,-157.8 594,-157.8 594,-32.8 8,-32.8"/>
</g>
<g id="clust2" class="cluster">
<title>cluster_HttpCachingModule_declarations</title>
<polygon fill="none" stroke="black" points="418,-40.8 418,-92.8 586,-92.8 586,-40.8 418,-40.8"/>
</g>
<g id="clust4" class="cluster">
<title>cluster_HttpCachingModule_imports</title>
<polygon fill="none" stroke="black" points="218,-40.8 218,-92.8 410,-92.8 410,-40.8 218,-40.8"/>
</g>
<g id="clust7" class="cluster">
<title>cluster_HttpCachingModule_providers</title>
<polygon fill="none" stroke="black" points="16,-40.8 16,-92.8 210,-92.8 210,-40.8 16,-40.8"/>
</g>
<!-- HttpCachingComponent -->
<g id="node1" class="node">
<title>HttpCachingComponent</title>
<polygon fill="#ffffb3" stroke="black" points="578.38,-84.8 425.62,-84.8 425.62,-48.8 578.38,-48.8 578.38,-84.8"/>
<text text-anchor="middle" x="502" y="-62.6" font-family="Times,serif" font-size="14.00">HttpCachingComponent</text>
</g>
<!-- HttpCachingModule -->
<g id="node2" class="node">
<title>HttpCachingModule</title>
<polygon fill="#8dd3c7" stroke="black" points="379.6,-149.8 376.6,-153.8 355.6,-153.8 352.6,-149.8 248.4,-149.8 248.4,-113.8 379.6,-113.8 379.6,-149.8"/>
<text text-anchor="middle" x="314" y="-127.6" font-family="Times,serif" font-size="14.00">HttpCachingModule</text>
</g>
<!-- HttpCachingComponent&#45;&gt;HttpCachingModule -->
<g id="edge1" class="edge">
<title>HttpCachingComponent&#45;&gt;HttpCachingModule</title>
<path fill="none" stroke="black" d="M502,-84.91C502,-104.14 502,-131.8 502,-131.8 502,-131.8 389.75,-131.8 389.75,-131.8"/>
<polygon fill="black" stroke="black" points="389.75,-128.3 379.75,-131.8 389.75,-135.3 389.75,-128.3"/>
</g>
<!-- HttpCachingRoutingModule -->
<g id="node3" class="node">
<title>HttpCachingRoutingModule</title>
<polygon fill="#8dd3c7" stroke="black" points="402.21,-84.8 399.21,-88.8 378.21,-88.8 375.21,-84.8 225.79,-84.8 225.79,-48.8 402.21,-48.8 402.21,-84.8"/>
<text text-anchor="middle" x="314" y="-62.6" font-family="Times,serif" font-size="14.00">HttpCachingRoutingModule</text>
</g>
<!-- HttpCachingRoutingModule&#45;&gt;HttpCachingModule -->
<g id="edge2" class="edge">
<title>HttpCachingRoutingModule&#45;&gt;HttpCachingModule</title>
<path fill="none" stroke="black" d="M314,-84.91C314,-84.91 314,-103.79 314,-103.79"/>
<polygon fill="black" stroke="black" points="310.5,-103.79 314,-113.79 317.5,-103.79 310.5,-103.79"/>
</g>
<!-- HttpCachingService -->
<g id="node4" class="node">
<title>HttpCachingService</title>
<ellipse fill="#fdb462" stroke="black" cx="113" cy="-66.8" rx="89.19" ry="18"/>
<text text-anchor="middle" x="113" y="-62.6" font-family="Times,serif" font-size="14.00">HttpCachingService</text>
</g>
<!-- HttpCachingService&#45;&gt;HttpCachingModule -->
<g id="edge3" class="edge">
<title>HttpCachingService&#45;&gt;HttpCachingModule</title>
<path fill="none" stroke="black" d="M113,-84.91C113,-104.14 113,-131.8 113,-131.8 113,-131.8 238.19,-131.8 238.19,-131.8"/>
<polygon fill="black" stroke="black" points="238.19,-135.3 248.19,-131.8 238.19,-128.3 238.19,-135.3"/>
</g>
</g>
</svg>
