<?xml version="1.0" encoding="UTF-8" standalone="no"?>
<!DOCTYPE svg PUBLIC "-//W3C//DTD SVG 1.1//EN"
 "http://www.w3.org/Graphics/SVG/1.1/DTD/svg11.dtd">
<!-- Generated by graphviz version 5.0.0 (20220707.1540)
 -->
<!-- Title: dependencies Pages: 1 -->
<svg width="572pt" height="174pt"
 viewBox="0.00 0.00 572.00 173.80" xmlns="http://www.w3.org/2000/svg" xmlns:xlink="http://www.w3.org/1999/xlink">
<g id="graph0" class="graph" transform="scale(1 1) rotate(0) translate(4 169.8)">
<title>dependencies</title>
<polygon fill="white" stroke="transparent" points="-4,4 -4,-169.8 568,-169.8 568,4 -4,4"/>
<text text-anchor="middle" x="282" y="-8.2" font-family="sans-serif" font-size="14.00">dependencies</text>
<g id="clust1" class="cluster">
<title>cluster_InMemoryModule</title>
<polygon fill="none" stroke="black" stroke-dasharray="1,5" points="8,-32.8 8,-157.8 556,-157.8 556,-32.8 8,-32.8"/>
</g>
<g id="clust2" class="cluster">
<title>cluster_InMemoryModule_declarations</title>
<polygon fill="none" stroke="black" points="390,-40.8 390,-92.8 548,-92.8 548,-40.8 390,-40.8"/>
</g>
<g id="clust4" class="cluster">
<title>cluster_InMemoryModule_imports</title>
<polygon fill="none" stroke="black" points="202,-40.8 202,-92.8 382,-92.8 382,-40.8 202,-40.8"/>
</g>
<g id="clust7" class="cluster">
<title>cluster_InMemoryModule_providers</title>
<polygon fill="none" stroke="black" points="16,-40.8 16,-92.8 194,-92.8 194,-40.8 16,-40.8"/>
</g>
<!-- InMemoryComponent -->
<g id="node1" class="node">
<title>InMemoryComponent</title>
<polygon fill="#ffffb3" stroke="black" points="539.71,-84.8 398.29,-84.8 398.29,-48.8 539.71,-48.8 539.71,-84.8"/>
<text text-anchor="middle" x="469" y="-62.6" font-family="Times,serif" font-size="14.00">InMemoryComponent</text>
</g>
<!-- InMemoryModule -->
<g id="node2" class="node">
<title>InMemoryModule</title>
<polygon fill="#8dd3c7" stroke="black" points="351.93,-149.8 348.93,-153.8 327.93,-153.8 324.93,-149.8 232.07,-149.8 232.07,-113.8 351.93,-113.8 351.93,-149.8"/>
<text text-anchor="middle" x="292" y="-127.6" font-family="Times,serif" font-size="14.00">InMemoryModule</text>
</g>
<!-- InMemoryComponent&#45;&gt;InMemoryModule -->
<g id="edge1" class="edge">
<title>InMemoryComponent&#45;&gt;InMemoryModule</title>
<path fill="none" stroke="black" d="M469,-84.91C469,-104.14 469,-131.8 469,-131.8 469,-131.8 361.92,-131.8 361.92,-131.8"/>
<polygon fill="black" stroke="black" points="361.92,-128.3 351.92,-131.8 361.92,-135.3 361.92,-128.3"/>
</g>
<!-- InMemoryRoutingModule -->
<g id="node3" class="node">
<title>InMemoryRoutingModule</title>
<polygon fill="#8dd3c7" stroke="black" points="374.05,-84.8 371.05,-88.8 350.05,-88.8 347.05,-84.8 209.95,-84.8 209.95,-48.8 374.05,-48.8 374.05,-84.8"/>
<text text-anchor="middle" x="292" y="-62.6" font-family="Times,serif" font-size="14.00">InMemoryRoutingModule</text>
</g>
<!-- InMemoryRoutingModule&#45;&gt;InMemoryModule -->
<g id="edge2" class="edge">
<title>InMemoryRoutingModule&#45;&gt;InMemoryModule</title>
<path fill="none" stroke="black" d="M292,-84.91C292,-84.91 292,-103.79 292,-103.79"/>
<polygon fill="black" stroke="black" points="288.5,-103.79 292,-113.79 295.5,-103.79 288.5,-103.79"/>
</g>
<!-- InMemoryService -->
<g id="node4" class="node">
<title>InMemoryService</title>
<ellipse fill="#fdb462" stroke="black" cx="105" cy="-66.8" rx="81.09" ry="18"/>
<text text-anchor="middle" x="105" y="-62.6" font-family="Times,serif" font-size="14.00">InMemoryService</text>
</g>
<!-- InMemoryService&#45;&gt;InMemoryModule -->
<g id="edge3" class="edge">
<title>InMemoryService&#45;&gt;InMemoryModule</title>
<path fill="none" stroke="black" d="M105,-84.91C105,-104.14 105,-131.8 105,-131.8 105,-131.8 222.06,-131.8 222.06,-131.8"/>
<polygon fill="black" stroke="black" points="222.06,-135.3 232.06,-131.8 222.06,-128.3 222.06,-135.3"/>
</g>
</g>
</svg>
