<?xml version="1.0" encoding="UTF-8" standalone="no"?>
<!DOCTYPE svg PUBLIC "-//W3C//DTD SVG 1.1//EN"
 "http://www.w3.org/Graphics/SVG/1.1/DTD/svg11.dtd">
<!-- Generated by graphviz version 5.0.0 (20220707.1540)
 -->
<!-- Title: dependencies Pages: 1 -->
<svg width="699pt" height="239pt"
 viewBox="0.00 0.00 699.00 238.80" xmlns="http://www.w3.org/2000/svg" xmlns:xlink="http://www.w3.org/1999/xlink">
<g id="graph0" class="graph" transform="scale(1 1) rotate(0) translate(4 234.8)">
<title>dependencies</title>
<polygon fill="white" stroke="transparent" points="-4,4 -4,-234.8 695,-234.8 695,4 -4,4"/>
<text text-anchor="middle" x="345.5" y="-8.2" font-family="sans-serif" font-size="14.00">dependencies</text>
<g id="clust1" class="cluster">
<title>cluster_ContactsCsModule</title>
<polygon fill="none" stroke="black" stroke-dasharray="1,5" points="8,-32.8 8,-222.8 683,-222.8 683,-32.8 8,-32.8"/>
</g>
<g id="clust2" class="cluster">
<title>cluster_ContactsCsModule_declarations</title>
<polygon fill="none" stroke="black" points="208,-105.8 208,-157.8 675,-157.8 675,-105.8 208,-105.8"/>
</g>
<g id="clust4" class="cluster">
<title>cluster_ContactsCsModule_ContactsCsComponent_providers</title>
<polygon fill="none" stroke="black" points="355,-40.8 355,-92.8 501,-92.8 501,-40.8 355,-40.8"/>
</g>
<g id="clust6" class="cluster">
<title>cluster_ContactsCsModule_imports</title>
<polygon fill="none" stroke="black" points="16,-105.8 16,-157.8 200,-157.8 200,-105.8 16,-105.8"/>
</g>
<!-- AddContactComponent -->
<g id="node1" class="node">
<title>AddContactComponent</title>
<polygon fill="#ffffb3" stroke="black" points="667.49,-149.8 518.51,-149.8 518.51,-113.8 667.49,-113.8 667.49,-149.8"/>
<text text-anchor="middle" x="593" y="-127.6" font-family="Times,serif" font-size="14.00">AddContactComponent</text>
</g>
<!-- ContactsCsModule -->
<g id="node4" class="node">
<title>ContactsCsModule</title>
<polygon fill="#8dd3c7" stroke="black" points="413.83,-214.8 410.83,-218.8 389.83,-218.8 386.83,-214.8 290.17,-214.8 290.17,-178.8 413.83,-178.8 413.83,-214.8"/>
<text text-anchor="middle" x="352" y="-192.6" font-family="Times,serif" font-size="14.00">ContactsCsModule</text>
</g>
<!-- AddContactComponent&#45;&gt;ContactsCsModule -->
<g id="edge1" class="edge">
<title>AddContactComponent&#45;&gt;ContactsCsModule</title>
<path fill="none" stroke="black" d="M593,-149.91C593,-169.14 593,-196.8 593,-196.8 593,-196.8 423.75,-196.8 423.75,-196.8"/>
<polygon fill="black" stroke="black" points="423.75,-193.3 413.75,-196.8 423.75,-200.3 423.75,-193.3"/>
</g>
<!-- ContactsCsComponent -->
<g id="node2" class="node">
<title>ContactsCsComponent</title>
<polygon fill="#ffffb3" stroke="black" points="500.61,-149.8 355.39,-149.8 355.39,-113.8 500.61,-113.8 500.61,-149.8"/>
<text text-anchor="middle" x="428" y="-127.6" font-family="Times,serif" font-size="14.00">ContactsCsComponent</text>
</g>
<!-- ContactsCsComponent&#45;&gt;ContactsCsModule -->
<g id="edge2" class="edge">
<title>ContactsCsComponent&#45;&gt;ContactsCsModule</title>
<path fill="none" stroke="black" d="M384.56,-149.91C384.56,-149.91 384.56,-168.79 384.56,-168.79"/>
<polygon fill="black" stroke="black" points="381.06,-168.79 384.56,-178.79 388.06,-168.79 381.06,-168.79"/>
</g>
<!-- HeaderComponent -->
<g id="node3" class="node">
<title>HeaderComponent</title>
<polygon fill="#ffffb3" stroke="black" points="337.75,-149.8 216.25,-149.8 216.25,-113.8 337.75,-113.8 337.75,-149.8"/>
<text text-anchor="middle" x="277" y="-127.6" font-family="Times,serif" font-size="14.00">HeaderComponent</text>
</g>
<!-- HeaderComponent&#45;&gt;ContactsCsModule -->
<g id="edge4" class="edge">
<title>HeaderComponent&#45;&gt;ContactsCsModule</title>
<path fill="none" stroke="black" d="M314.1,-149.91C314.1,-149.91 314.1,-168.79 314.1,-168.79"/>
<polygon fill="black" stroke="black" points="310.6,-168.79 314.1,-178.79 317.6,-168.79 310.6,-168.79"/>
</g>
<!-- ContactsStore -->
<g id="node5" class="node">
<title>ContactsStore</title>
<ellipse fill="#fdb462" stroke="black" cx="428" cy="-66.8" rx="65.43" ry="18"/>
<text text-anchor="middle" x="428" y="-62.6" font-family="Times,serif" font-size="14.00">ContactsStore</text>
</g>
<!-- ContactsStore&#45;&gt;ContactsCsComponent -->
<g id="edge3" class="edge">
<title>ContactsStore&#45;&gt;ContactsCsComponent</title>
<path fill="none" stroke="black" d="M428,-84.91C428,-84.91 428,-103.79 428,-103.79"/>
<polygon fill="black" stroke="black" points="424.5,-103.79 428,-113.79 431.5,-103.79 424.5,-103.79"/>
</g>
<!-- ContactsCsRoutingModule -->
<g id="node6" class="node">
<title>ContactsCsRoutingModule</title>
<polygon fill="#8dd3c7" stroke="black" points="192.45,-149.8 189.45,-153.8 168.45,-153.8 165.45,-149.8 23.55,-149.8 23.55,-113.8 192.45,-113.8 192.45,-149.8"/>
<text text-anchor="middle" x="108" y="-127.6" font-family="Times,serif" font-size="14.00">ContactsCsRoutingModule</text>
</g>
<!-- ContactsCsRoutingModule&#45;&gt;ContactsCsModule -->
<g id="edge5" class="edge">
<title>ContactsCsRoutingModule&#45;&gt;ContactsCsModule</title>
<path fill="none" stroke="black" d="M108,-149.91C108,-169.14 108,-196.8 108,-196.8 108,-196.8 280.11,-196.8 280.11,-196.8"/>
<polygon fill="black" stroke="black" points="280.11,-200.3 290.11,-196.8 280.11,-193.3 280.11,-200.3"/>
</g>
</g>
</svg>
