<?xml version="1.0" encoding="UTF-8" standalone="no"?>
<!DOCTYPE svg PUBLIC "-//W3C//DTD SVG 1.1//EN"
 "http://www.w3.org/Graphics/SVG/1.1/DTD/svg11.dtd">
<!-- Generated by graphviz version 5.0.0 (20220707.1540)
 -->
<!-- Title: dependencies Pages: 1 -->
<svg width="316pt" height="174pt"
 viewBox="0.00 0.00 316.00 173.80" xmlns="http://www.w3.org/2000/svg" xmlns:xlink="http://www.w3.org/1999/xlink">
<g id="graph0" class="graph" transform="scale(1 1) rotate(0) translate(4 169.8)">
<title>dependencies</title>
<polygon fill="white" stroke="transparent" points="-4,4 -4,-169.8 312,-169.8 312,4 -4,4"/>
<text text-anchor="middle" x="154" y="-8.2" font-family="sans-serif" font-size="14.00">dependencies</text>
<g id="clust1" class="cluster">
<title>cluster_TreeModule</title>
<polygon fill="none" stroke="black" stroke-dasharray="1,5" points="8,-32.8 8,-157.8 300,-157.8 300,-32.8 8,-32.8"/>
</g>
<g id="clust2" class="cluster">
<title>cluster_TreeModule_declarations</title>
<polygon fill="none" stroke="black" points="170,-40.8 170,-92.8 292,-92.8 292,-40.8 170,-40.8"/>
</g>
<g id="clust4" class="cluster">
<title>cluster_TreeModule_imports</title>
<polygon fill="none" stroke="black" points="16,-40.8 16,-92.8 162,-92.8 162,-40.8 16,-40.8"/>
</g>
<!-- TreeComponent -->
<g id="node1" class="node">
<title>TreeComponent</title>
<polygon fill="#ffffb3" stroke="black" points="284.47,-84.8 177.53,-84.8 177.53,-48.8 284.47,-48.8 284.47,-84.8"/>
<text text-anchor="middle" x="231" y="-62.6" font-family="Times,serif" font-size="14.00">TreeComponent</text>
</g>
<!-- TreeModule -->
<g id="node2" class="node">
<title>TreeModule</title>
<polygon fill="#8dd3c7" stroke="black" points="202.69,-149.8 199.69,-153.8 178.69,-153.8 175.69,-149.8 117.31,-149.8 117.31,-113.8 202.69,-113.8 202.69,-149.8"/>
<text text-anchor="middle" x="160" y="-127.6" font-family="Times,serif" font-size="14.00">TreeModule</text>
</g>
<!-- TreeComponent&#45;&gt;TreeModule -->
<g id="edge1" class="edge">
<title>TreeComponent&#45;&gt;TreeModule</title>
<path fill="none" stroke="black" d="M190.06,-84.91C190.06,-84.91 190.06,-103.79 190.06,-103.79"/>
<polygon fill="black" stroke="black" points="186.56,-103.79 190.06,-113.79 193.56,-103.79 186.56,-103.79"/>
</g>
<!-- TreeRoutingModule -->
<g id="node3" class="node">
<title>TreeRoutingModule</title>
<polygon fill="#8dd3c7" stroke="black" points="154.31,-84.8 151.31,-88.8 130.31,-88.8 127.31,-84.8 23.69,-84.8 23.69,-48.8 154.31,-48.8 154.31,-84.8"/>
<text text-anchor="middle" x="89" y="-62.6" font-family="Times,serif" font-size="14.00">TreeRoutingModule</text>
</g>
<!-- TreeRoutingModule&#45;&gt;TreeModule -->
<g id="edge2" class="edge">
<title>TreeRoutingModule&#45;&gt;TreeModule</title>
<path fill="none" stroke="black" d="M135.78,-84.91C135.78,-84.91 135.78,-103.79 135.78,-103.79"/>
<polygon fill="black" stroke="black" points="132.28,-103.79 135.78,-113.79 139.28,-103.79 132.28,-103.79"/>
</g>
</g>
</svg>
