<?xml version="1.0" encoding="UTF-8" standalone="no"?>
<!DOCTYPE svg PUBLIC "-//W3C//DTD SVG 1.1//EN"
 "http://www.w3.org/Graphics/SVG/1.1/DTD/svg11.dtd">
<!-- Generated by graphviz version 5.0.0 (20220707.1540)
 -->
<!-- Title: dependencies Pages: 1 -->
<svg width="286pt" height="247pt"
 viewBox="0.00 0.00 286.00 246.80" xmlns="http://www.w3.org/2000/svg" xmlns:xlink="http://www.w3.org/1999/xlink">
<g id="graph0" class="graph" transform="scale(1 1) rotate(0) translate(4 242.8)">
<title>dependencies</title>
<polygon fill="white" stroke="transparent" points="-4,4 -4,-242.8 282,-242.8 282,4 -4,4"/>
<text text-anchor="middle" x="139" y="-8.2" font-family="sans-serif" font-size="14.00">dependencies</text>
<g id="clust1" class="cluster">
<title>cluster_SharedModule</title>
<polygon fill="none" stroke="black" stroke-dasharray="1,5" points="8,-32.8 8,-230.8 270,-230.8 270,-32.8 8,-32.8"/>
</g>
<g id="clust2" class="cluster">
<title>cluster_SharedModule_declarations</title>
<polygon fill="none" stroke="black" points="18,-40.8 18,-92.8 260,-92.8 260,-40.8 18,-40.8"/>
</g>
<g id="clust5" class="cluster">
<title>cluster_SharedModule_exports</title>
<polygon fill="none" stroke="black" points="16,-170.8 16,-222.8 262,-222.8 262,-170.8 16,-170.8"/>
</g>
<!-- PaginationButtonsWidgetComponent -->
<g id="node1" class="node">
<title>PaginationButtonsWidgetComponent</title>
<polygon fill="#ffffb3" stroke="black" points="251.99,-84.8 26.01,-84.8 26.01,-48.8 251.99,-48.8 251.99,-84.8"/>
<text text-anchor="middle" x="139" y="-62.6" font-family="Times,serif" font-size="14.00">PaginationButtonsWidgetComponent</text>
</g>
<!-- SharedModule -->
<g id="node2" class="node">
<title>SharedModule</title>
<polygon fill="#8dd3c7" stroke="black" points="188.43,-149.8 185.43,-153.8 164.43,-153.8 161.43,-149.8 89.57,-149.8 89.57,-113.8 188.43,-113.8 188.43,-149.8"/>
<text text-anchor="middle" x="139" y="-127.6" font-family="Times,serif" font-size="14.00">SharedModule</text>
</g>
<!-- PaginationButtonsWidgetComponent&#45;&gt;SharedModule -->
<g id="edge1" class="edge">
<title>PaginationButtonsWidgetComponent&#45;&gt;SharedModule</title>
<path fill="none" stroke="black" d="M139,-84.91C139,-84.91 139,-103.79 139,-103.79"/>
<polygon fill="black" stroke="black" points="135.5,-103.79 139,-113.79 142.5,-103.79 135.5,-103.79"/>
</g>
<!-- PaginationButtonsWidgetComponent  -->
<g id="node3" class="node">
<title>PaginationButtonsWidgetComponent </title>
<polygon fill="#fb8072" stroke="black" points="253.99,-214.8 24.01,-214.8 24.01,-178.8 253.99,-178.8 253.99,-214.8"/>
<text text-anchor="middle" x="139" y="-192.6" font-family="Times,serif" font-size="14.00">PaginationButtonsWidgetComponent </text>
</g>
<!-- SharedModule&#45;&gt;PaginationButtonsWidgetComponent  -->
<g id="edge2" class="edge">
<title>SharedModule&#45;&gt;PaginationButtonsWidgetComponent </title>
<path fill="none" stroke="black" stroke-dasharray="5,2" d="M139,-149.91C139,-149.91 139,-168.79 139,-168.79"/>
<polygon fill="black" stroke="black" points="135.5,-168.79 139,-178.79 142.5,-168.79 135.5,-168.79"/>
</g>
</g>
</svg>
