<?xml version="1.0" encoding="UTF-8" standalone="no"?>
<!DOCTYPE svg PUBLIC "-//W3C//DTD SVG 1.1//EN"
 "http://www.w3.org/Graphics/SVG/1.1/DTD/svg11.dtd">
<!-- Generated by graphviz version 5.0.0 (20220707.1540)
 -->
<!-- Title: dependencies Pages: 1 -->
<svg width="438pt" height="174pt"
 viewBox="0.00 0.00 438.00 173.80" xmlns="http://www.w3.org/2000/svg" xmlns:xlink="http://www.w3.org/1999/xlink">
<g id="graph0" class="graph" transform="scale(1 1) rotate(0) translate(4 169.8)">
<title>dependencies</title>
<polygon fill="white" stroke="transparent" points="-4,4 -4,-169.8 434,-169.8 434,4 -4,4"/>
<text text-anchor="middle" x="215" y="-8.2" font-family="sans-serif" font-size="14.00">dependencies</text>
<g id="clust1" class="cluster">
<title>cluster_SimpleCachingModule</title>
<polygon fill="none" stroke="black" stroke-dasharray="1,5" points="8,-32.8 8,-157.8 422,-157.8 422,-32.8 8,-32.8"/>
</g>
<g id="clust2" class="cluster">
<title>cluster_SimpleCachingModule_declarations</title>
<polygon fill="none" stroke="black" points="230,-40.8 230,-92.8 414,-92.8 414,-40.8 230,-40.8"/>
</g>
<g id="clust4" class="cluster">
<title>cluster_SimpleCachingModule_imports</title>
<polygon fill="none" stroke="black" points="16,-40.8 16,-92.8 222,-92.8 222,-40.8 16,-40.8"/>
</g>
<!-- SimpleCachingComponent -->
<g id="node1" class="node">
<title>SimpleCachingComponent</title>
<polygon fill="#ffffb3" stroke="black" points="405.66,-84.8 238.34,-84.8 238.34,-48.8 405.66,-48.8 405.66,-84.8"/>
<text text-anchor="middle" x="322" y="-62.6" font-family="Times,serif" font-size="14.00">SimpleCachingComponent</text>
</g>
<!-- SimpleCachingModule -->
<g id="node2" class="node">
<title>SimpleCachingModule</title>
<polygon fill="#8dd3c7" stroke="black" points="292.88,-149.8 289.88,-153.8 268.88,-153.8 265.88,-149.8 147.12,-149.8 147.12,-113.8 292.88,-113.8 292.88,-149.8"/>
<text text-anchor="middle" x="220" y="-127.6" font-family="Times,serif" font-size="14.00">SimpleCachingModule</text>
</g>
<!-- SimpleCachingComponent&#45;&gt;SimpleCachingModule -->
<g id="edge1" class="edge">
<title>SimpleCachingComponent&#45;&gt;SimpleCachingModule</title>
<path fill="none" stroke="black" d="M265.56,-84.91C265.56,-84.91 265.56,-103.79 265.56,-103.79"/>
<polygon fill="black" stroke="black" points="262.06,-103.79 265.56,-113.79 269.06,-103.79 262.06,-103.79"/>
</g>
<!-- SimpleCachingRoutingModule -->
<g id="node3" class="node">
<title>SimpleCachingRoutingModule</title>
<polygon fill="#8dd3c7" stroke="black" points="214.49,-84.8 211.49,-88.8 190.49,-88.8 187.49,-84.8 23.51,-84.8 23.51,-48.8 214.49,-48.8 214.49,-84.8"/>
<text text-anchor="middle" x="119" y="-62.6" font-family="Times,serif" font-size="14.00">SimpleCachingRoutingModule</text>
</g>
<!-- SimpleCachingRoutingModule&#45;&gt;SimpleCachingModule -->
<g id="edge2" class="edge">
<title>SimpleCachingRoutingModule&#45;&gt;SimpleCachingModule</title>
<path fill="none" stroke="black" d="M180.78,-84.91C180.78,-84.91 180.78,-103.79 180.78,-103.79"/>
<polygon fill="black" stroke="black" points="177.28,-103.79 180.78,-113.79 184.28,-103.79 177.28,-103.79"/>
</g>
</g>
</svg>
