<?xml version="1.0" encoding="UTF-8" standalone="no"?>
<!DOCTYPE svg PUBLIC "-//W3C//DTD SVG 1.1//EN"
 "http://www.w3.org/Graphics/SVG/1.1/DTD/svg11.dtd">
<!-- Generated by graphviz version 5.0.0 (20220707.1540)
 -->
<!-- Title: dependencies Pages: 1 -->
<svg width="416pt" height="174pt"
 viewBox="0.00 0.00 416.00 173.80" xmlns="http://www.w3.org/2000/svg" xmlns:xlink="http://www.w3.org/1999/xlink">
<g id="graph0" class="graph" transform="scale(1 1) rotate(0) translate(4 169.8)">
<title>dependencies</title>
<polygon fill="white" stroke="transparent" points="-4,4 -4,-169.8 412,-169.8 412,4 -4,4"/>
<text text-anchor="middle" x="204" y="-8.2" font-family="sans-serif" font-size="14.00">dependencies</text>
<g id="clust1" class="cluster">
<title>cluster_WithCachingModule</title>
<polygon fill="none" stroke="black" stroke-dasharray="1,5" points="8,-32.8 8,-157.8 400,-157.8 400,-32.8 8,-32.8"/>
</g>
<g id="clust2" class="cluster">
<title>cluster_WithCachingModule_declarations</title>
<polygon fill="none" stroke="black" points="220,-40.8 220,-92.8 392,-92.8 392,-40.8 220,-40.8"/>
</g>
<g id="clust4" class="cluster">
<title>cluster_WithCachingModule_imports</title>
<polygon fill="none" stroke="black" points="16,-40.8 16,-92.8 212,-92.8 212,-40.8 16,-40.8"/>
</g>
<!-- WithCachingComponent -->
<g id="node1" class="node">
<title>WithCachingComponent</title>
<polygon fill="#ffffb3" stroke="black" points="383.98,-84.8 228.02,-84.8 228.02,-48.8 383.98,-48.8 383.98,-84.8"/>
<text text-anchor="middle" x="306" y="-62.6" font-family="Times,serif" font-size="14.00">WithCachingComponent</text>
</g>
<!-- WithCachingModule -->
<g id="node2" class="node">
<title>WithCachingModule</title>
<polygon fill="#8dd3c7" stroke="black" points="277.2,-149.8 274.2,-153.8 253.2,-153.8 250.2,-149.8 142.8,-149.8 142.8,-113.8 277.2,-113.8 277.2,-149.8"/>
<text text-anchor="middle" x="210" y="-127.6" font-family="Times,serif" font-size="14.00">WithCachingModule</text>
</g>
<!-- WithCachingComponent&#45;&gt;WithCachingModule -->
<g id="edge1" class="edge">
<title>WithCachingComponent&#45;&gt;WithCachingModule</title>
<path fill="none" stroke="black" d="M252.56,-84.91C252.56,-84.91 252.56,-103.79 252.56,-103.79"/>
<polygon fill="black" stroke="black" points="249.06,-103.79 252.56,-113.79 256.06,-103.79 249.06,-103.79"/>
</g>
<!-- WithCachingRoutingModule -->
<g id="node3" class="node">
<title>WithCachingRoutingModule</title>
<polygon fill="#8dd3c7" stroke="black" points="203.82,-84.8 200.82,-88.8 179.82,-88.8 176.82,-84.8 24.18,-84.8 24.18,-48.8 203.82,-48.8 203.82,-84.8"/>
<text text-anchor="middle" x="114" y="-62.6" font-family="Times,serif" font-size="14.00">WithCachingRoutingModule</text>
</g>
<!-- WithCachingRoutingModule&#45;&gt;WithCachingModule -->
<g id="edge2" class="edge">
<title>WithCachingRoutingModule&#45;&gt;WithCachingModule</title>
<path fill="none" stroke="black" d="M173.28,-84.91C173.28,-84.91 173.28,-103.79 173.28,-103.79"/>
<polygon fill="black" stroke="black" points="169.78,-103.79 173.28,-113.79 176.78,-103.79 169.78,-103.79"/>
</g>
</g>
</svg>
