<?xml version="1.0" encoding="UTF-8" standalone="no"?>
<!DOCTYPE svg PUBLIC "-//W3C//DTD SVG 1.1//EN"
 "http://www.w3.org/Graphics/SVG/1.1/DTD/svg11.dtd">
<!-- Generated by graphviz version 5.0.0 (20220707.1540)
 -->
<!-- Title: dependencies Pages: 1 -->
<svg width="602pt" height="174pt"
 viewBox="0.00 0.00 602.00 173.80" xmlns="http://www.w3.org/2000/svg" xmlns:xlink="http://www.w3.org/1999/xlink">
<g id="graph0" class="graph" transform="scale(1 1) rotate(0) translate(4 169.8)">
<title>dependencies</title>
<polygon fill="white" stroke="transparent" points="-4,4 -4,-169.8 598,-169.8 598,4 -4,4"/>
<text text-anchor="middle" x="297" y="-8.2" font-family="sans-serif" font-size="14.00">dependencies</text>
<g id="clust1" class="cluster">
<title>cluster_LazyModalsModule</title>
<polygon fill="none" stroke="black" stroke-dasharray="1,5" points="8,-32.8 8,-157.8 586,-157.8 586,-32.8 8,-32.8"/>
</g>
<g id="clust2" class="cluster">
<title>cluster_LazyModalsModule_declarations</title>
<polygon fill="none" stroke="black" points="410,-40.8 410,-92.8 578,-92.8 578,-40.8 410,-40.8"/>
</g>
<g id="clust4" class="cluster">
<title>cluster_LazyModalsModule_imports</title>
<polygon fill="none" stroke="black" points="212,-40.8 212,-92.8 402,-92.8 402,-40.8 212,-40.8"/>
</g>
<g id="clust7" class="cluster">
<title>cluster_LazyModalsModule_providers</title>
<polygon fill="none" stroke="black" points="16,-40.8 16,-92.8 204,-92.8 204,-40.8 16,-40.8"/>
</g>
<!-- LazyModalsComponent -->
<g id="node1" class="node">
<title>LazyModalsComponent</title>
<polygon fill="#ffffb3" stroke="black" points="569.81,-84.8 418.19,-84.8 418.19,-48.8 569.81,-48.8 569.81,-84.8"/>
<text text-anchor="middle" x="494" y="-62.6" font-family="Times,serif" font-size="14.00">LazyModalsComponent</text>
</g>
<!-- LazyModalsModule -->
<g id="node2" class="node">
<title>LazyModalsModule</title>
<polygon fill="#8dd3c7" stroke="black" points="371.53,-149.8 368.53,-153.8 347.53,-153.8 344.53,-149.8 242.47,-149.8 242.47,-113.8 371.53,-113.8 371.53,-149.8"/>
<text text-anchor="middle" x="307" y="-127.6" font-family="Times,serif" font-size="14.00">LazyModalsModule</text>
</g>
<!-- LazyModalsComponent&#45;&gt;LazyModalsModule -->
<g id="edge1" class="edge">
<title>LazyModalsComponent&#45;&gt;LazyModalsModule</title>
<path fill="none" stroke="black" d="M494,-84.91C494,-104.14 494,-131.8 494,-131.8 494,-131.8 381.62,-131.8 381.62,-131.8"/>
<polygon fill="black" stroke="black" points="381.62,-128.3 371.62,-131.8 381.62,-135.3 381.62,-128.3"/>
</g>
<!-- LazyModalsRoutingModule -->
<g id="node3" class="node">
<title>LazyModalsRoutingModule</title>
<polygon fill="#8dd3c7" stroke="black" points="394.15,-84.8 391.15,-88.8 370.15,-88.8 367.15,-84.8 219.85,-84.8 219.85,-48.8 394.15,-48.8 394.15,-84.8"/>
<text text-anchor="middle" x="307" y="-62.6" font-family="Times,serif" font-size="14.00">LazyModalsRoutingModule</text>
</g>
<!-- LazyModalsRoutingModule&#45;&gt;LazyModalsModule -->
<g id="edge2" class="edge">
<title>LazyModalsRoutingModule&#45;&gt;LazyModalsModule</title>
<path fill="none" stroke="black" d="M307,-84.91C307,-84.91 307,-103.79 307,-103.79"/>
<polygon fill="black" stroke="black" points="303.5,-103.79 307,-113.79 310.5,-103.79 303.5,-103.79"/>
</g>
<!-- LazyDialogService -->
<g id="node4" class="node">
<title>LazyDialogService</title>
<ellipse fill="#fdb462" stroke="black" cx="110" cy="-66.8" rx="85.65" ry="18"/>
<text text-anchor="middle" x="110" y="-62.6" font-family="Times,serif" font-size="14.00">LazyDialogService</text>
</g>
<!-- LazyDialogService&#45;&gt;LazyModalsModule -->
<g id="edge3" class="edge">
<title>LazyDialogService&#45;&gt;LazyModalsModule</title>
<path fill="none" stroke="black" d="M110,-84.91C110,-104.14 110,-131.8 110,-131.8 110,-131.8 232.22,-131.8 232.22,-131.8"/>
<polygon fill="black" stroke="black" points="232.22,-135.3 242.22,-131.8 232.22,-128.3 232.22,-135.3"/>
</g>
</g>
</svg>
