<?xml version="1.0" encoding="UTF-8" standalone="no"?>
<!DOCTYPE svg PUBLIC "-//W3C//DTD SVG 1.1//EN"
 "http://www.w3.org/Graphics/SVG/1.1/DTD/svg11.dtd">
<!-- Generated by graphviz version 5.0.0 (20220707.1540)
 -->
<!-- Title: dependencies Pages: 1 -->
<svg width="862pt" height="239pt"
 viewBox="0.00 0.00 862.00 238.80" xmlns="http://www.w3.org/2000/svg" xmlns:xlink="http://www.w3.org/1999/xlink">
<g id="graph0" class="graph" transform="scale(1 1) rotate(0) translate(4 234.8)">
<title>dependencies</title>
<polygon fill="white" stroke="transparent" points="-4,4 -4,-234.8 858,-234.8 858,4 -4,4"/>
<text text-anchor="middle" x="427" y="-8.2" font-family="sans-serif" font-size="14.00">dependencies</text>
<g id="clust1" class="cluster">
<title>cluster_CsdemoModule</title>
<polygon fill="none" stroke="black" stroke-dasharray="1,5" points="8,-32.8 8,-222.8 846,-222.8 846,-32.8 8,-32.8"/>
</g>
<g id="clust2" class="cluster">
<title>cluster_CsdemoModule_declarations</title>
<polygon fill="none" stroke="black" points="190,-105.8 190,-157.8 838,-157.8 838,-105.8 190,-105.8"/>
</g>
<g id="clust3" class="cluster">
<title>cluster_CsdemoModule_CsdemoComponent_providers</title>
<polygon fill="none" stroke="black" points="698,-40.8 698,-92.8 834,-92.8 834,-40.8 698,-40.8"/>
</g>
<g id="clust8" class="cluster">
<title>cluster_CsdemoModule_imports</title>
<polygon fill="none" stroke="black" points="16,-105.8 16,-157.8 182,-157.8 182,-105.8 16,-105.8"/>
</g>
<!-- CsdemoComponent -->
<g id="node1" class="node">
<title>CsdemoComponent</title>
<polygon fill="#ffffb3" stroke="black" points="829.72,-149.8 702.28,-149.8 702.28,-113.8 829.72,-113.8 829.72,-149.8"/>
<text text-anchor="middle" x="766" y="-127.6" font-family="Times,serif" font-size="14.00">CsdemoComponent</text>
</g>
<!-- CsdemoModule -->
<g id="node6" class="node">
<title>CsdemoModule</title>
<polygon fill="#8dd3c7" stroke="black" points="494.94,-214.8 491.94,-218.8 470.94,-218.8 467.94,-214.8 389.06,-214.8 389.06,-178.8 494.94,-178.8 494.94,-214.8"/>
<text text-anchor="middle" x="442" y="-192.6" font-family="Times,serif" font-size="14.00">CsdemoModule</text>
</g>
<!-- CsdemoComponent&#45;&gt;CsdemoModule -->
<g id="edge1" class="edge">
<title>CsdemoComponent&#45;&gt;CsdemoModule</title>
<path fill="none" stroke="black" d="M766,-150.08C766,-171.12 766,-202.8 766,-202.8 766,-202.8 504.78,-202.8 504.78,-202.8"/>
<polygon fill="black" stroke="black" points="504.78,-199.3 494.78,-202.8 504.78,-206.3 504.78,-199.3"/>
</g>
<!-- FourComponent -->
<g id="node2" class="node">
<title>FourComponent</title>
<polygon fill="#ffffb3" stroke="black" points="683.78,-149.8 576.22,-149.8 576.22,-113.8 683.78,-113.8 683.78,-149.8"/>
<text text-anchor="middle" x="630" y="-127.6" font-family="Times,serif" font-size="14.00">FourComponent</text>
</g>
<!-- FourComponent&#45;&gt;CsdemoModule -->
<g id="edge3" class="edge">
<title>FourComponent&#45;&gt;CsdemoModule</title>
<path fill="none" stroke="black" d="M630,-149.82C630,-167.17 630,-190.8 630,-190.8 630,-190.8 504.87,-190.8 504.87,-190.8"/>
<polygon fill="black" stroke="black" points="504.87,-187.3 494.87,-190.8 504.87,-194.3 504.87,-187.3"/>
</g>
<!-- OneComponent -->
<g id="node3" class="node">
<title>OneComponent</title>
<polygon fill="#ffffb3" stroke="black" points="558.16,-149.8 453.84,-149.8 453.84,-113.8 558.16,-113.8 558.16,-149.8"/>
<text text-anchor="middle" x="506" y="-127.6" font-family="Times,serif" font-size="14.00">OneComponent</text>
</g>
<!-- OneComponent&#45;&gt;CsdemoModule -->
<g id="edge4" class="edge">
<title>OneComponent&#45;&gt;CsdemoModule</title>
<path fill="none" stroke="black" d="M474.2,-149.91C474.2,-149.91 474.2,-168.79 474.2,-168.79"/>
<polygon fill="black" stroke="black" points="470.7,-168.79 474.2,-178.79 477.7,-168.79 470.7,-168.79"/>
</g>
<!-- ThreeComponent -->
<g id="node4" class="node">
<title>ThreeComponent</title>
<polygon fill="#ffffb3" stroke="black" points="435.97,-149.8 322.03,-149.8 322.03,-113.8 435.97,-113.8 435.97,-149.8"/>
<text text-anchor="middle" x="379" y="-127.6" font-family="Times,serif" font-size="14.00">ThreeComponent</text>
</g>
<!-- ThreeComponent&#45;&gt;CsdemoModule -->
<g id="edge5" class="edge">
<title>ThreeComponent&#45;&gt;CsdemoModule</title>
<path fill="none" stroke="black" d="M412.63,-149.91C412.63,-149.91 412.63,-168.79 412.63,-168.79"/>
<polygon fill="black" stroke="black" points="409.13,-168.79 412.63,-178.79 416.13,-168.79 409.13,-168.79"/>
</g>
<!-- TwoComponent -->
<g id="node5" class="node">
<title>TwoComponent</title>
<polygon fill="#ffffb3" stroke="black" points="304.49,-149.8 197.51,-149.8 197.51,-113.8 304.49,-113.8 304.49,-149.8"/>
<text text-anchor="middle" x="251" y="-127.6" font-family="Times,serif" font-size="14.00">TwoComponent</text>
</g>
<!-- TwoComponent&#45;&gt;CsdemoModule -->
<g id="edge6" class="edge">
<title>TwoComponent&#45;&gt;CsdemoModule</title>
<path fill="none" stroke="black" d="M251,-149.82C251,-167.17 251,-190.8 251,-190.8 251,-190.8 379.05,-190.8 379.05,-190.8"/>
<polygon fill="black" stroke="black" points="379.05,-194.3 389.05,-190.8 379.05,-187.3 379.05,-194.3"/>
</g>
<!-- UserCsStore -->
<g id="node7" class="node">
<title>UserCsStore</title>
<ellipse fill="#fdb462" stroke="black" cx="766" cy="-66.8" rx="59.71" ry="18"/>
<text text-anchor="middle" x="766" y="-62.6" font-family="Times,serif" font-size="14.00">UserCsStore</text>
</g>
<!-- UserCsStore&#45;&gt;CsdemoComponent -->
<g id="edge2" class="edge">
<title>UserCsStore&#45;&gt;CsdemoComponent</title>
<path fill="none" stroke="black" d="M766,-84.91C766,-84.91 766,-103.79 766,-103.79"/>
<polygon fill="black" stroke="black" points="762.5,-103.79 766,-113.79 769.5,-103.79 762.5,-103.79"/>
</g>
<!-- CsdemoRoutingModule -->
<g id="node8" class="node">
<title>CsdemoRoutingModule</title>
<polygon fill="#8dd3c7" stroke="black" points="174.06,-149.8 171.06,-153.8 150.06,-153.8 147.06,-149.8 23.94,-149.8 23.94,-113.8 174.06,-113.8 174.06,-149.8"/>
<text text-anchor="middle" x="99" y="-127.6" font-family="Times,serif" font-size="14.00">CsdemoRoutingModule</text>
</g>
<!-- CsdemoRoutingModule&#45;&gt;CsdemoModule -->
<g id="edge7" class="edge">
<title>CsdemoRoutingModule&#45;&gt;CsdemoModule</title>
<path fill="none" stroke="black" d="M99,-150.08C99,-171.12 99,-202.8 99,-202.8 99,-202.8 379.16,-202.8 379.16,-202.8"/>
<polygon fill="black" stroke="black" points="379.16,-206.3 389.16,-202.8 379.16,-199.3 379.16,-206.3"/>
</g>
</g>
</svg>
