<?xml version="1.0" encoding="UTF-8" standalone="no"?>
<!DOCTYPE svg PUBLIC "-//W3C//DTD SVG 1.1//EN"
 "http://www.w3.org/Graphics/SVG/1.1/DTD/svg11.dtd">
<!-- Generated by graphviz version 5.0.0 (20220707.1540)
 -->
<!-- Title: dependencies Pages: 1 -->
<svg width="674pt" height="174pt"
 viewBox="0.00 0.00 674.00 173.80" xmlns="http://www.w3.org/2000/svg" xmlns:xlink="http://www.w3.org/1999/xlink">
<g id="graph0" class="graph" transform="scale(1 1) rotate(0) translate(4 169.8)">
<title>dependencies</title>
<polygon fill="white" stroke="transparent" points="-4,4 -4,-169.8 670,-169.8 670,4 -4,4"/>
<text text-anchor="middle" x="333" y="-8.2" font-family="sans-serif" font-size="14.00">dependencies</text>
<g id="clust1" class="cluster">
<title>cluster_EshopModule</title>
<polygon fill="none" stroke="black" stroke-dasharray="1,5" points="8,-32.8 8,-157.8 658,-157.8 658,-32.8 8,-32.8"/>
</g>
<g id="clust2" class="cluster">
<title>cluster_EshopModule_declarations</title>
<polygon fill="none" stroke="black" points="180,-40.8 180,-92.8 650,-92.8 650,-40.8 180,-40.8"/>
</g>
<g id="clust6" class="cluster">
<title>cluster_EshopModule_imports</title>
<polygon fill="none" stroke="black" points="16,-40.8 16,-92.8 172,-92.8 172,-40.8 16,-40.8"/>
</g>
<!-- CustomerSupportComponent -->
<g id="node1" class="node">
<title>CustomerSupportComponent</title>
<polygon fill="#ffffb3" stroke="black" points="642.11,-84.8 461.89,-84.8 461.89,-48.8 642.11,-48.8 642.11,-84.8"/>
<text text-anchor="middle" x="552" y="-62.6" font-family="Times,serif" font-size="14.00">CustomerSupportComponent</text>
</g>
<!-- EshopModule -->
<g id="node4" class="node">
<title>EshopModule</title>
<polygon fill="#8dd3c7" stroke="black" points="364.05,-149.8 361.05,-153.8 340.05,-153.8 337.05,-149.8 269.95,-149.8 269.95,-113.8 364.05,-113.8 364.05,-149.8"/>
<text text-anchor="middle" x="317" y="-127.6" font-family="Times,serif" font-size="14.00">EshopModule</text>
</g>
<!-- CustomerSupportComponent&#45;&gt;EshopModule -->
<g id="edge1" class="edge">
<title>CustomerSupportComponent&#45;&gt;EshopModule</title>
<path fill="none" stroke="black" d="M552,-84.91C552,-104.14 552,-131.8 552,-131.8 552,-131.8 374.27,-131.8 374.27,-131.8"/>
<polygon fill="black" stroke="black" points="374.27,-128.3 364.27,-131.8 374.27,-135.3 374.27,-128.3"/>
</g>
<!-- EshopComponent -->
<g id="node2" class="node">
<title>EshopComponent</title>
<polygon fill="#ffffb3" stroke="black" points="444.33,-84.8 327.67,-84.8 327.67,-48.8 444.33,-48.8 444.33,-84.8"/>
<text text-anchor="middle" x="386" y="-62.6" font-family="Times,serif" font-size="14.00">EshopComponent</text>
</g>
<!-- EshopComponent&#45;&gt;EshopModule -->
<g id="edge2" class="edge">
<title>EshopComponent&#45;&gt;EshopModule</title>
<path fill="none" stroke="black" d="M346.06,-84.91C346.06,-84.91 346.06,-103.79 346.06,-103.79"/>
<polygon fill="black" stroke="black" points="342.56,-103.79 346.06,-113.79 349.56,-103.79 342.56,-103.79"/>
</g>
<!-- HeaderComponent -->
<g id="node3" class="node">
<title>HeaderComponent</title>
<polygon fill="#ffffb3" stroke="black" points="309.75,-84.8 188.25,-84.8 188.25,-48.8 309.75,-48.8 309.75,-84.8"/>
<text text-anchor="middle" x="249" y="-62.6" font-family="Times,serif" font-size="14.00">HeaderComponent</text>
</g>
<!-- HeaderComponent&#45;&gt;EshopModule -->
<g id="edge3" class="edge">
<title>HeaderComponent&#45;&gt;EshopModule</title>
<path fill="none" stroke="black" d="M289.8,-84.91C289.8,-84.91 289.8,-103.79 289.8,-103.79"/>
<polygon fill="black" stroke="black" points="286.3,-103.79 289.8,-113.79 293.3,-103.79 286.3,-103.79"/>
</g>
<!-- EshopRoutingModule -->
<g id="node5" class="node">
<title>EshopRoutingModule</title>
<polygon fill="#8dd3c7" stroke="black" points="163.67,-84.8 160.67,-88.8 139.67,-88.8 136.67,-84.8 24.33,-84.8 24.33,-48.8 163.67,-48.8 163.67,-84.8"/>
<text text-anchor="middle" x="94" y="-62.6" font-family="Times,serif" font-size="14.00">EshopRoutingModule</text>
</g>
<!-- EshopRoutingModule&#45;&gt;EshopModule -->
<g id="edge4" class="edge">
<title>EshopRoutingModule&#45;&gt;EshopModule</title>
<path fill="none" stroke="black" d="M94,-84.91C94,-104.14 94,-131.8 94,-131.8 94,-131.8 259.71,-131.8 259.71,-131.8"/>
<polygon fill="black" stroke="black" points="259.71,-135.3 269.71,-131.8 259.71,-128.3 259.71,-135.3"/>
</g>
</g>
</svg>
