<?xml version="1.0" encoding="UTF-8" standalone="no"?>
<!DOCTYPE svg PUBLIC "-//W3C//DTD SVG 1.1//EN"
 "http://www.w3.org/Graphics/SVG/1.1/DTD/svg11.dtd">
<!-- Generated by graphviz version 5.0.0 (20220707.1540)
 -->
<!-- Title: dependencies Pages: 1 -->
<svg width="390pt" height="174pt"
 viewBox="0.00 0.00 390.00 173.80" xmlns="http://www.w3.org/2000/svg" xmlns:xlink="http://www.w3.org/1999/xlink">
<g id="graph0" class="graph" transform="scale(1 1) rotate(0) translate(4 169.8)">
<title>dependencies</title>
<polygon fill="white" stroke="transparent" points="-4,4 -4,-169.8 386,-169.8 386,4 -4,4"/>
<text text-anchor="middle" x="191" y="-8.2" font-family="sans-serif" font-size="14.00">dependencies</text>
<g id="clust1" class="cluster">
<title>cluster_ScamdemoModule</title>
<polygon fill="none" stroke="black" stroke-dasharray="1,5" points="8,-32.8 8,-157.8 374,-157.8 374,-32.8 8,-32.8"/>
</g>
<g id="clust2" class="cluster">
<title>cluster_ScamdemoModule_declarations</title>
<polygon fill="none" stroke="black" points="206,-40.8 206,-92.8 366,-92.8 366,-40.8 206,-40.8"/>
</g>
<g id="clust4" class="cluster">
<title>cluster_ScamdemoModule_imports</title>
<polygon fill="none" stroke="black" points="16,-40.8 16,-92.8 198,-92.8 198,-40.8 16,-40.8"/>
</g>
<!-- ScamdemoComponent -->
<g id="node1" class="node">
<title>ScamdemoComponent</title>
<polygon fill="#ffffb3" stroke="black" points="357.54,-84.8 214.46,-84.8 214.46,-48.8 357.54,-48.8 357.54,-84.8"/>
<text text-anchor="middle" x="286" y="-62.6" font-family="Times,serif" font-size="14.00">ScamdemoComponent</text>
</g>
<!-- ScamdemoModule -->
<g id="node2" class="node">
<title>ScamdemoModule</title>
<polygon fill="#8dd3c7" stroke="black" points="256.76,-149.8 253.76,-153.8 232.76,-153.8 229.76,-149.8 135.24,-149.8 135.24,-113.8 256.76,-113.8 256.76,-149.8"/>
<text text-anchor="middle" x="196" y="-127.6" font-family="Times,serif" font-size="14.00">ScamdemoModule</text>
</g>
<!-- ScamdemoComponent&#45;&gt;ScamdemoModule -->
<g id="edge1" class="edge">
<title>ScamdemoComponent&#45;&gt;ScamdemoModule</title>
<path fill="none" stroke="black" d="M235.56,-84.91C235.56,-84.91 235.56,-103.79 235.56,-103.79"/>
<polygon fill="black" stroke="black" points="232.06,-103.79 235.56,-113.79 239.06,-103.79 232.06,-103.79"/>
</g>
<!-- ScamdemoRoutingModule -->
<g id="node3" class="node">
<title>ScamdemoRoutingModule</title>
<polygon fill="#8dd3c7" stroke="black" points="190.38,-84.8 187.38,-88.8 166.38,-88.8 163.38,-84.8 23.62,-84.8 23.62,-48.8 190.38,-48.8 190.38,-84.8"/>
<text text-anchor="middle" x="107" y="-62.6" font-family="Times,serif" font-size="14.00">ScamdemoRoutingModule</text>
</g>
<!-- ScamdemoRoutingModule&#45;&gt;ScamdemoModule -->
<g id="edge2" class="edge">
<title>ScamdemoRoutingModule&#45;&gt;ScamdemoModule</title>
<path fill="none" stroke="black" d="M162.78,-84.91C162.78,-84.91 162.78,-103.79 162.78,-103.79"/>
<polygon fill="black" stroke="black" points="159.28,-103.79 162.78,-113.79 166.28,-103.79 159.28,-103.79"/>
</g>
</g>
</svg>
