<?xml version="1.0" encoding="UTF-8" standalone="no"?>
<!DOCTYPE svg PUBLIC "-//W3C//DTD SVG 1.1//EN"
 "http://www.w3.org/Graphics/SVG/1.1/DTD/svg11.dtd">
<!-- Generated by graphviz version 5.0.0 (20220707.1540)
 -->
<!-- Title: dependencies Pages: 1 -->
<svg width="354pt" height="247pt"
 viewBox="0.00 0.00 354.00 246.80" xmlns="http://www.w3.org/2000/svg" xmlns:xlink="http://www.w3.org/1999/xlink">
<g id="graph0" class="graph" transform="scale(1 1) rotate(0) translate(4 242.8)">
<title>dependencies</title>
<polygon fill="white" stroke="transparent" points="-4,4 -4,-242.8 350,-242.8 350,4 -4,4"/>
<text text-anchor="middle" x="173" y="-8.2" font-family="sans-serif" font-size="14.00">dependencies</text>
<g id="clust1" class="cluster">
<title>cluster_AuthModule</title>
<polygon fill="none" stroke="black" stroke-dasharray="1,5" points="8,-32.8 8,-230.8 338,-230.8 338,-32.8 8,-32.8"/>
</g>
<g id="clust5" class="cluster">
<title>cluster_AuthModule_exports</title>
<polygon fill="none" stroke="black" points="93,-170.8 93,-222.8 253,-222.8 253,-170.8 93,-170.8"/>
</g>
<g id="clust2" class="cluster">
<title>cluster_AuthModule_declarations</title>
<polygon fill="none" stroke="black" points="172,-40.8 172,-92.8 330,-92.8 330,-40.8 172,-40.8"/>
</g>
<g id="clust4" class="cluster">
<title>cluster_AuthModule_imports</title>
<polygon fill="none" stroke="black" points="16,-40.8 16,-92.8 164,-92.8 164,-40.8 16,-40.8"/>
</g>
<!-- AuthLinksComponent -->
<g id="node1" class="node">
<title>AuthLinksComponent</title>
<polygon fill="#ffffb3" stroke="black" points="321.72,-84.8 180.28,-84.8 180.28,-48.8 321.72,-48.8 321.72,-84.8"/>
<text text-anchor="middle" x="251" y="-62.6" font-family="Times,serif" font-size="14.00">AuthLinksComponent</text>
</g>
<!-- AuthModule -->
<g id="node2" class="node">
<title>AuthModule</title>
<polygon fill="#8dd3c7" stroke="black" points="216.55,-149.8 213.55,-153.8 192.55,-153.8 189.55,-149.8 129.45,-149.8 129.45,-113.8 216.55,-113.8 216.55,-149.8"/>
<text text-anchor="middle" x="173" y="-127.6" font-family="Times,serif" font-size="14.00">AuthModule</text>
</g>
<!-- AuthLinksComponent&#45;&gt;AuthModule -->
<g id="edge1" class="edge">
<title>AuthLinksComponent&#45;&gt;AuthModule</title>
<path fill="none" stroke="black" d="M198.58,-84.91C198.58,-84.91 198.58,-103.79 198.58,-103.79"/>
<polygon fill="black" stroke="black" points="195.08,-103.79 198.58,-113.79 202.08,-103.79 195.08,-103.79"/>
</g>
<!-- AuthLinksComponent  -->
<g id="node4" class="node">
<title>AuthLinksComponent </title>
<polygon fill="#fb8072" stroke="black" points="245.22,-214.8 100.78,-214.8 100.78,-178.8 245.22,-178.8 245.22,-214.8"/>
<text text-anchor="middle" x="173" y="-192.6" font-family="Times,serif" font-size="14.00">AuthLinksComponent </text>
</g>
<!-- AuthModule&#45;&gt;AuthLinksComponent  -->
<g id="edge3" class="edge">
<title>AuthModule&#45;&gt;AuthLinksComponent </title>
<path fill="none" stroke="black" stroke-dasharray="5,2" d="M173,-149.91C173,-149.91 173,-168.79 173,-168.79"/>
<polygon fill="black" stroke="black" points="169.5,-168.79 173,-178.79 176.5,-168.79 169.5,-168.79"/>
</g>
<!-- AuthRoutingModule -->
<g id="node3" class="node">
<title>AuthRoutingModule</title>
<polygon fill="#8dd3c7" stroke="black" points="156.17,-84.8 153.17,-88.8 132.17,-88.8 129.17,-84.8 23.83,-84.8 23.83,-48.8 156.17,-48.8 156.17,-84.8"/>
<text text-anchor="middle" x="90" y="-62.6" font-family="Times,serif" font-size="14.00">AuthRoutingModule</text>
</g>
<!-- AuthRoutingModule&#45;&gt;AuthModule -->
<g id="edge2" class="edge">
<title>AuthRoutingModule&#45;&gt;AuthModule</title>
<path fill="none" stroke="black" d="M142.78,-84.91C142.78,-84.91 142.78,-103.79 142.78,-103.79"/>
<polygon fill="black" stroke="black" points="139.28,-103.79 142.78,-113.79 146.28,-103.79 139.28,-103.79"/>
</g>
</g>
</svg>
