<?xml version="1.0" encoding="UTF-8" standalone="no"?>
<!DOCTYPE svg PUBLIC "-//W3C//DTD SVG 1.1//EN"
 "http://www.w3.org/Graphics/SVG/1.1/DTD/svg11.dtd">
<!-- Generated by graphviz version 5.0.0 (20220707.1540)
 -->
<!-- Title: dependencies Pages: 1 -->
<svg width="174pt" height="247pt"
 viewBox="0.00 0.00 174.00 246.80" xmlns="http://www.w3.org/2000/svg" xmlns:xlink="http://www.w3.org/1999/xlink">
<g id="graph0" class="graph" transform="scale(1 1) rotate(0) translate(4 242.8)">
<title>dependencies</title>
<polygon fill="white" stroke="transparent" points="-4,4 -4,-242.8 170,-242.8 170,4 -4,4"/>
<text text-anchor="middle" x="83" y="-8.2" font-family="sans-serif" font-size="14.00">dependencies</text>
<g id="clust1" class="cluster">
<title>cluster_SliderModule</title>
<polygon fill="none" stroke="black" stroke-dasharray="1,5" points="8,-32.8 8,-230.8 158,-230.8 158,-32.8 8,-32.8"/>
</g>
<g id="clust2" class="cluster">
<title>cluster_SliderModule_declarations</title>
<polygon fill="none" stroke="black" points="18,-40.8 18,-92.8 148,-92.8 148,-40.8 18,-40.8"/>
</g>
<g id="clust5" class="cluster">
<title>cluster_SliderModule_exports</title>
<polygon fill="none" stroke="black" points="16,-170.8 16,-222.8 150,-222.8 150,-170.8 16,-170.8"/>
</g>
<!-- SliderComponent -->
<g id="node1" class="node">
<title>SliderComponent</title>
<polygon fill="#ffffb3" stroke="black" points="140.27,-84.8 25.73,-84.8 25.73,-48.8 140.27,-48.8 140.27,-84.8"/>
<text text-anchor="middle" x="83" y="-62.6" font-family="Times,serif" font-size="14.00">SliderComponent</text>
</g>
<!-- SliderModule -->
<g id="node2" class="node">
<title>SliderModule</title>
<polygon fill="#8dd3c7" stroke="black" points="129.49,-149.8 126.49,-153.8 105.49,-153.8 102.49,-149.8 36.51,-149.8 36.51,-113.8 129.49,-113.8 129.49,-149.8"/>
<text text-anchor="middle" x="83" y="-127.6" font-family="Times,serif" font-size="14.00">SliderModule</text>
</g>
<!-- SliderComponent&#45;&gt;SliderModule -->
<g id="edge1" class="edge">
<title>SliderComponent&#45;&gt;SliderModule</title>
<path fill="none" stroke="black" d="M83,-84.91C83,-84.91 83,-103.79 83,-103.79"/>
<polygon fill="black" stroke="black" points="79.5,-103.79 83,-113.79 86.5,-103.79 79.5,-103.79"/>
</g>
<!-- SliderComponent  -->
<g id="node3" class="node">
<title>SliderComponent </title>
<polygon fill="#fb8072" stroke="black" points="142.27,-214.8 23.73,-214.8 23.73,-178.8 142.27,-178.8 142.27,-214.8"/>
<text text-anchor="middle" x="83" y="-192.6" font-family="Times,serif" font-size="14.00">SliderComponent </text>
</g>
<!-- SliderModule&#45;&gt;SliderComponent  -->
<g id="edge2" class="edge">
<title>SliderModule&#45;&gt;SliderComponent </title>
<path fill="none" stroke="black" stroke-dasharray="5,2" d="M83,-149.91C83,-149.91 83,-168.79 83,-168.79"/>
<polygon fill="black" stroke="black" points="79.5,-168.79 83,-178.79 86.5,-168.79 79.5,-168.79"/>
</g>
</g>
</svg>
