<?xml version="1.0" encoding="UTF-8" standalone="no"?>
<!DOCTYPE svg PUBLIC "-//W3C//DTD SVG 1.1//EN"
 "http://www.w3.org/Graphics/SVG/1.1/DTD/svg11.dtd">
<!-- Generated by graphviz version 5.0.0 (20220707.1540)
 -->
<!-- Title: dependencies Pages: 1 -->
<svg width="596pt" height="174pt"
 viewBox="0.00 0.00 596.00 173.80" xmlns="http://www.w3.org/2000/svg" xmlns:xlink="http://www.w3.org/1999/xlink">
<g id="graph0" class="graph" transform="scale(1 1) rotate(0) translate(4 169.8)">
<title>dependencies</title>
<polygon fill="white" stroke="transparent" points="-4,4 -4,-169.8 592,-169.8 592,4 -4,4"/>
<text text-anchor="middle" x="294" y="-8.2" font-family="sans-serif" font-size="14.00">dependencies</text>
<g id="clust1" class="cluster">
<title>cluster_UsersEntityModule</title>
<polygon fill="none" stroke="black" stroke-dasharray="1,5" points="8,-32.8 8,-157.8 580,-157.8 580,-32.8 8,-32.8"/>
</g>
<g id="clust2" class="cluster">
<title>cluster_UsersEntityModule_declarations</title>
<polygon fill="none" stroke="black" points="210,-40.8 210,-92.8 572,-92.8 572,-40.8 210,-40.8"/>
</g>
<g id="clust5" class="cluster">
<title>cluster_UsersEntityModule_imports</title>
<polygon fill="none" stroke="black" points="16,-40.8 16,-92.8 202,-92.8 202,-40.8 16,-40.8"/>
</g>
<!-- UserEntityDialogComponent -->
<g id="node1" class="node">
<title>UserEntityDialogComponent</title>
<polygon fill="#ffffb3" stroke="black" points="564.09,-84.8 383.91,-84.8 383.91,-48.8 564.09,-48.8 564.09,-84.8"/>
<text text-anchor="middle" x="474" y="-62.6" font-family="Times,serif" font-size="14.00">UserEntityDialogComponent</text>
</g>
<!-- UsersEntityModule -->
<g id="node3" class="node">
<title>UsersEntityModule</title>
<polygon fill="#8dd3c7" stroke="black" points="354.66,-149.8 351.66,-153.8 330.66,-153.8 327.66,-149.8 229.34,-149.8 229.34,-113.8 354.66,-113.8 354.66,-149.8"/>
<text text-anchor="middle" x="292" y="-127.6" font-family="Times,serif" font-size="14.00">UsersEntityModule</text>
</g>
<!-- UserEntityDialogComponent&#45;&gt;UsersEntityModule -->
<g id="edge1" class="edge">
<title>UserEntityDialogComponent&#45;&gt;UsersEntityModule</title>
<path fill="none" stroke="black" d="M474,-84.91C474,-104.14 474,-131.8 474,-131.8 474,-131.8 364.89,-131.8 364.89,-131.8"/>
<polygon fill="black" stroke="black" points="364.89,-128.3 354.89,-131.8 364.89,-135.3 364.89,-128.3"/>
</g>
<!-- UsersEntityComponent -->
<g id="node2" class="node">
<title>UsersEntityComponent</title>
<polygon fill="#ffffb3" stroke="black" points="365.94,-84.8 218.06,-84.8 218.06,-48.8 365.94,-48.8 365.94,-84.8"/>
<text text-anchor="middle" x="292" y="-62.6" font-family="Times,serif" font-size="14.00">UsersEntityComponent</text>
</g>
<!-- UsersEntityComponent&#45;&gt;UsersEntityModule -->
<g id="edge2" class="edge">
<title>UsersEntityComponent&#45;&gt;UsersEntityModule</title>
<path fill="none" stroke="black" d="M292,-84.91C292,-84.91 292,-103.79 292,-103.79"/>
<polygon fill="black" stroke="black" points="288.5,-103.79 292,-113.79 295.5,-103.79 288.5,-103.79"/>
</g>
<!-- UsersEntityRoutingModule -->
<g id="node4" class="node">
<title>UsersEntityRoutingModule</title>
<polygon fill="#8dd3c7" stroke="black" points="194.27,-84.8 191.27,-88.8 170.27,-88.8 167.27,-84.8 23.73,-84.8 23.73,-48.8 194.27,-48.8 194.27,-84.8"/>
<text text-anchor="middle" x="109" y="-62.6" font-family="Times,serif" font-size="14.00">UsersEntityRoutingModule</text>
</g>
<!-- UsersEntityRoutingModule&#45;&gt;UsersEntityModule -->
<g id="edge3" class="edge">
<title>UsersEntityRoutingModule&#45;&gt;UsersEntityModule</title>
<path fill="none" stroke="black" d="M109,-84.91C109,-104.14 109,-131.8 109,-131.8 109,-131.8 219.28,-131.8 219.28,-131.8"/>
<polygon fill="black" stroke="black" points="219.28,-135.3 229.28,-131.8 219.28,-128.3 219.28,-135.3"/>
</g>
</g>
</svg>
