<?xml version="1.0" encoding="UTF-8" standalone="no"?>
<!DOCTYPE svg PUBLIC "-//W3C//DTD SVG 1.1//EN"
 "http://www.w3.org/Graphics/SVG/1.1/DTD/svg11.dtd">
<!-- Generated by graphviz version 5.0.0 (20220707.1540)
 -->
<!-- Title: dependencies Pages: 1 -->
<svg width="466pt" height="174pt"
 viewBox="0.00 0.00 466.00 173.80" xmlns="http://www.w3.org/2000/svg" xmlns:xlink="http://www.w3.org/1999/xlink">
<g id="graph0" class="graph" transform="scale(1 1) rotate(0) translate(4 169.8)">
<title>dependencies</title>
<polygon fill="white" stroke="transparent" points="-4,4 -4,-169.8 462,-169.8 462,4 -4,4"/>
<text text-anchor="middle" x="229" y="-8.2" font-family="sans-serif" font-size="14.00">dependencies</text>
<g id="clust1" class="cluster">
<title>cluster_UsersEntityDemoModule</title>
<polygon fill="none" stroke="black" stroke-dasharray="1,5" points="8,-32.8 8,-157.8 450,-157.8 450,-32.8 8,-32.8"/>
</g>
<g id="clust2" class="cluster">
<title>cluster_UsersEntityDemoModule_declarations</title>
<polygon fill="none" stroke="black" points="244,-40.8 244,-92.8 442,-92.8 442,-40.8 244,-40.8"/>
</g>
<g id="clust4" class="cluster">
<title>cluster_UsersEntityDemoModule_imports</title>
<polygon fill="none" stroke="black" points="16,-40.8 16,-92.8 236,-92.8 236,-40.8 16,-40.8"/>
</g>
<!-- UsersEntityDemoComponent -->
<g id="node1" class="node">
<title>UsersEntityDemoComponent</title>
<polygon fill="#ffffb3" stroke="black" points="433.65,-84.8 252.35,-84.8 252.35,-48.8 433.65,-48.8 433.65,-84.8"/>
<text text-anchor="middle" x="343" y="-62.6" font-family="Times,serif" font-size="14.00">UsersEntityDemoComponent</text>
</g>
<!-- UsersEntityDemoModule -->
<g id="node2" class="node">
<title>UsersEntityDemoModule</title>
<polygon fill="#8dd3c7" stroke="black" points="313.87,-149.8 310.87,-153.8 289.87,-153.8 286.87,-149.8 154.13,-149.8 154.13,-113.8 313.87,-113.8 313.87,-149.8"/>
<text text-anchor="middle" x="234" y="-127.6" font-family="Times,serif" font-size="14.00">UsersEntityDemoModule</text>
</g>
<!-- UsersEntityDemoComponent&#45;&gt;UsersEntityDemoModule -->
<g id="edge1" class="edge">
<title>UsersEntityDemoComponent&#45;&gt;UsersEntityDemoModule</title>
<path fill="none" stroke="black" d="M283.06,-84.91C283.06,-84.91 283.06,-103.79 283.06,-103.79"/>
<polygon fill="black" stroke="black" points="279.56,-103.79 283.06,-113.79 286.56,-103.79 279.56,-103.79"/>
</g>
<!-- UsersEntityDemoRoutingModule -->
<g id="node3" class="node">
<title>UsersEntityDemoRoutingModule</title>
<polygon fill="#8dd3c7" stroke="black" points="228.49,-84.8 225.49,-88.8 204.49,-88.8 201.49,-84.8 23.51,-84.8 23.51,-48.8 228.49,-48.8 228.49,-84.8"/>
<text text-anchor="middle" x="126" y="-62.6" font-family="Times,serif" font-size="14.00">UsersEntityDemoRoutingModule</text>
</g>
<!-- UsersEntityDemoRoutingModule&#45;&gt;UsersEntityDemoModule -->
<g id="edge2" class="edge">
<title>UsersEntityDemoRoutingModule&#45;&gt;UsersEntityDemoModule</title>
<path fill="none" stroke="black" d="M191.28,-84.91C191.28,-84.91 191.28,-103.79 191.28,-103.79"/>
<polygon fill="black" stroke="black" points="187.78,-103.79 191.28,-113.79 194.78,-103.79 187.78,-103.79"/>
</g>
</g>
</svg>
