<?xml version="1.0" encoding="UTF-8" standalone="no"?>
<!DOCTYPE svg PUBLIC "-//W3C//DTD SVG 1.1//EN"
 "http://www.w3.org/Graphics/SVG/1.1/DTD/svg11.dtd">
<!-- Generated by graphviz version 5.0.0 (20220707.1540)
 -->
<!-- Title: dependencies Pages: 1 -->
<svg width="328pt" height="174pt"
 viewBox="0.00 0.00 328.00 173.80" xmlns="http://www.w3.org/2000/svg" xmlns:xlink="http://www.w3.org/1999/xlink">
<g id="graph0" class="graph" transform="scale(1 1) rotate(0) translate(4 169.8)">
<title>dependencies</title>
<polygon fill="white" stroke="transparent" points="-4,4 -4,-169.8 324,-169.8 324,4 -4,4"/>
<text text-anchor="middle" x="160" y="-8.2" font-family="sans-serif" font-size="14.00">dependencies</text>
<g id="clust1" class="cluster">
<title>cluster_ScamModule</title>
<polygon fill="none" stroke="black" stroke-dasharray="1,5" points="8,-32.8 8,-157.8 312,-157.8 312,-32.8 8,-32.8"/>
</g>
<g id="clust4" class="cluster">
<title>cluster_ScamModule_imports</title>
<polygon fill="none" stroke="black" points="152,-40.8 152,-92.8 304,-92.8 304,-40.8 152,-40.8"/>
</g>
<g id="clust2" class="cluster">
<title>cluster_ScamModule_declarations</title>
<polygon fill="none" stroke="black" points="16,-40.8 16,-92.8 144,-92.8 144,-40.8 16,-40.8"/>
</g>
<!-- ScamComponent -->
<g id="node1" class="node">
<title>ScamComponent</title>
<polygon fill="#ffffb3" stroke="black" points="136.44,-84.8 23.56,-84.8 23.56,-48.8 136.44,-48.8 136.44,-84.8"/>
<text text-anchor="middle" x="80" y="-62.6" font-family="Times,serif" font-size="14.00">ScamComponent</text>
</g>
<!-- ScamModule -->
<g id="node2" class="node">
<title>ScamModule</title>
<polygon fill="#8dd3c7" stroke="black" points="199.16,-149.8 196.16,-153.8 175.16,-153.8 172.16,-149.8 108.84,-149.8 108.84,-113.8 199.16,-113.8 199.16,-149.8"/>
<text text-anchor="middle" x="154" y="-127.6" font-family="Times,serif" font-size="14.00">ScamModule</text>
</g>
<!-- ScamComponent&#45;&gt;ScamModule -->
<g id="edge1" class="edge">
<title>ScamComponent&#45;&gt;ScamModule</title>
<path fill="none" stroke="black" d="M122.44,-84.91C122.44,-84.91 122.44,-103.79 122.44,-103.79"/>
<polygon fill="black" stroke="black" points="118.94,-103.79 122.44,-113.79 125.94,-103.79 118.94,-103.79"/>
</g>
<!-- ScamRoutingModule -->
<g id="node3" class="node">
<title>ScamRoutingModule</title>
<polygon fill="#8dd3c7" stroke="black" points="295.77,-84.8 292.77,-88.8 271.77,-88.8 268.77,-84.8 160.23,-84.8 160.23,-48.8 295.77,-48.8 295.77,-84.8"/>
<text text-anchor="middle" x="228" y="-62.6" font-family="Times,serif" font-size="14.00">ScamRoutingModule</text>
</g>
<!-- ScamRoutingModule&#45;&gt;ScamModule -->
<g id="edge2" class="edge">
<title>ScamRoutingModule&#45;&gt;ScamModule</title>
<path fill="none" stroke="black" d="M179.72,-84.91C179.72,-84.91 179.72,-103.79 179.72,-103.79"/>
<polygon fill="black" stroke="black" points="176.22,-103.79 179.72,-113.79 183.22,-103.79 176.22,-103.79"/>
</g>
</g>
</svg>
