<?xml version="1.0" encoding="UTF-8" standalone="no"?>
<!DOCTYPE svg PUBLIC "-//W3C//DTD SVG 1.1//EN"
 "http://www.w3.org/Graphics/SVG/1.1/DTD/svg11.dtd">
<!-- Generated by graphviz version 5.0.0 (20220707.1540)
 -->
<!-- Title: dependencies Pages: 1 -->
<svg width="328pt" height="174pt"
 viewBox="0.00 0.00 328.00 173.80" xmlns="http://www.w3.org/2000/svg" xmlns:xlink="http://www.w3.org/1999/xlink">
<g id="graph0" class="graph" transform="scale(1 1) rotate(0) translate(4 169.8)">
<title>dependencies</title>
<polygon fill="white" stroke="transparent" points="-4,4 -4,-169.8 324,-169.8 324,4 -4,4"/>
<text text-anchor="middle" x="160" y="-8.2" font-family="sans-serif" font-size="14.00">dependencies</text>
<g id="clust1" class="cluster">
<title>cluster_ScamModule</title>
<polygon fill="none" stroke="black" stroke-dasharray="1,5" points="8,-32.8 8,-157.8 312,-157.8 312,-32.8 8,-32.8"/>
</g>
<g id="clust2" class="cluster">
<title>cluster_ScamModule_declarations</title>
<polygon fill="none" stroke="black" points="176,-40.8 176,-92.8 304,-92.8 304,-40.8 176,-40.8"/>
</g>
<g id="clust4" class="cluster">
<title>cluster_ScamModule_imports</title>
<polygon fill="none" stroke="black" points="16,-40.8 16,-92.8 168,-92.8 168,-40.8 16,-40.8"/>
</g>
<!-- ScamComponent -->
<g id="node1" class="node">
<title>ScamComponent</title>
<polygon fill="#ffffb3" stroke="black" points="296.44,-84.8 183.56,-84.8 183.56,-48.8 296.44,-48.8 296.44,-84.8"/>
<text text-anchor="middle" x="240" y="-62.6" font-family="Times,serif" font-size="14.00">ScamComponent</text>
</g>
<!-- ScamModule -->
<g id="node2" class="node">
<title>ScamModule</title>
<polygon fill="#8dd3c7" stroke="black" points="211.16,-149.8 208.16,-153.8 187.16,-153.8 184.16,-149.8 120.84,-149.8 120.84,-113.8 211.16,-113.8 211.16,-149.8"/>
<text text-anchor="middle" x="166" y="-127.6" font-family="Times,serif" font-size="14.00">ScamModule</text>
</g>
<!-- ScamComponent&#45;&gt;ScamModule -->
<g id="edge1" class="edge">
<title>ScamComponent&#45;&gt;ScamModule</title>
<path fill="none" stroke="black" d="M197.56,-84.91C197.56,-84.91 197.56,-103.79 197.56,-103.79"/>
<polygon fill="black" stroke="black" points="194.06,-103.79 197.56,-113.79 201.06,-103.79 194.06,-103.79"/>
</g>
<!-- ScamRoutingModule -->
<g id="node3" class="node">
<title>ScamRoutingModule</title>
<polygon fill="#8dd3c7" stroke="black" points="159.77,-84.8 156.77,-88.8 135.77,-88.8 132.77,-84.8 24.23,-84.8 24.23,-48.8 159.77,-48.8 159.77,-84.8"/>
<text text-anchor="middle" x="92" y="-62.6" font-family="Times,serif" font-size="14.00">ScamRoutingModule</text>
</g>
<!-- ScamRoutingModule&#45;&gt;ScamModule -->
<g id="edge2" class="edge">
<title>ScamRoutingModule&#45;&gt;ScamModule</title>
<path fill="none" stroke="black" d="M140.28,-84.91C140.28,-84.91 140.28,-103.79 140.28,-103.79"/>
<polygon fill="black" stroke="black" points="136.78,-103.79 140.28,-113.79 143.78,-103.79 136.78,-103.79"/>
</g>
</g>
</svg>
