<?xml version="1.0" encoding="UTF-8" standalone="no"?>
<!DOCTYPE svg PUBLIC "-//W3C//DTD SVG 1.1//EN"
 "http://www.w3.org/Graphics/SVG/1.1/DTD/svg11.dtd">
<!-- Generated by graphviz version 5.0.0 (20220707.1540)
 -->
<!-- Title: dependencies Pages: 1 -->
<svg width="544pt" height="239pt"
 viewBox="0.00 0.00 544.00 238.80" xmlns="http://www.w3.org/2000/svg" xmlns:xlink="http://www.w3.org/1999/xlink">
<g id="graph0" class="graph" transform="scale(1 1) rotate(0) translate(4 234.8)">
<title>dependencies</title>
<polygon fill="white" stroke="transparent" points="-4,4 -4,-234.8 540,-234.8 540,4 -4,4"/>
<text text-anchor="middle" x="268" y="-8.2" font-family="sans-serif" font-size="14.00">dependencies</text>
<g id="clust1" class="cluster">
<title>cluster_UsersCsModule</title>
<polygon fill="none" stroke="black" stroke-dasharray="1,5" points="8,-32.8 8,-222.8 528,-222.8 528,-32.8 8,-32.8"/>
</g>
<g id="clust4" class="cluster">
<title>cluster_UsersCsModule_UsersCsComponent_providers</title>
<polygon fill="none" stroke="black" points="376,-40.8 376,-157.8 520,-157.8 520,-40.8 376,-40.8"/>
</g>
<g id="clust2" class="cluster">
<title>cluster_UsersCsModule_declarations</title>
<polygon fill="none" stroke="black" points="192,-105.8 192,-157.8 368,-157.8 368,-105.8 192,-105.8"/>
</g>
<g id="clust5" class="cluster">
<title>cluster_UsersCsModule_imports</title>
<polygon fill="none" stroke="black" points="16,-105.8 16,-157.8 184,-157.8 184,-105.8 16,-105.8"/>
</g>
<!-- UserCsDialogComponent -->
<g id="node1" class="node">
<title>UserCsDialogComponent</title>
<polygon fill="#ffffb3" stroke="black" points="360.16,-149.8 199.84,-149.8 199.84,-113.8 360.16,-113.8 360.16,-149.8"/>
<text text-anchor="middle" x="280" y="-127.6" font-family="Times,serif" font-size="14.00">UserCsDialogComponent</text>
</g>
<!-- UsersCsModule -->
<g id="node3" class="node">
<title>UsersCsModule</title>
<polygon fill="#8dd3c7" stroke="black" points="333.22,-214.8 330.22,-218.8 309.22,-218.8 306.22,-214.8 226.78,-214.8 226.78,-178.8 333.22,-178.8 333.22,-214.8"/>
<text text-anchor="middle" x="280" y="-192.6" font-family="Times,serif" font-size="14.00">UsersCsModule</text>
</g>
<!-- UserCsDialogComponent&#45;&gt;UsersCsModule -->
<g id="edge1" class="edge">
<title>UserCsDialogComponent&#45;&gt;UsersCsModule</title>
<path fill="none" stroke="black" d="M280,-149.91C280,-149.91 280,-168.79 280,-168.79"/>
<polygon fill="black" stroke="black" points="276.5,-168.79 280,-178.79 283.5,-168.79 276.5,-168.79"/>
</g>
<!-- UsersCsComponent -->
<g id="node2" class="node">
<title>UsersCsComponent</title>
<polygon fill="#ffffb3" stroke="black" points="512,-149.8 384,-149.8 384,-113.8 512,-113.8 512,-149.8"/>
<text text-anchor="middle" x="448" y="-127.6" font-family="Times,serif" font-size="14.00">UsersCsComponent</text>
</g>
<!-- UsersCsComponent&#45;&gt;UsersCsModule -->
<g id="edge2" class="edge">
<title>UsersCsComponent&#45;&gt;UsersCsModule</title>
<path fill="none" stroke="black" d="M448,-149.91C448,-169.14 448,-196.8 448,-196.8 448,-196.8 343.16,-196.8 343.16,-196.8"/>
<polygon fill="black" stroke="black" points="343.16,-193.3 333.16,-196.8 343.16,-200.3 343.16,-193.3"/>
</g>
<!-- UserCsStore -->
<g id="node4" class="node">
<title>UserCsStore</title>
<ellipse fill="#fdb462" stroke="black" cx="448" cy="-66.8" rx="59.71" ry="18"/>
<text text-anchor="middle" x="448" y="-62.6" font-family="Times,serif" font-size="14.00">UserCsStore</text>
</g>
<!-- UserCsStore&#45;&gt;UsersCsComponent -->
<g id="edge3" class="edge">
<title>UserCsStore&#45;&gt;UsersCsComponent</title>
<path fill="none" stroke="black" d="M448,-84.91C448,-84.91 448,-103.79 448,-103.79"/>
<polygon fill="black" stroke="black" points="444.5,-103.79 448,-113.79 451.5,-103.79 444.5,-103.79"/>
</g>
<!-- UsersCsRoutingModule -->
<g id="node5" class="node">
<title>UsersCsRoutingModule</title>
<polygon fill="#8dd3c7" stroke="black" points="175.84,-149.8 172.84,-153.8 151.84,-153.8 148.84,-149.8 24.16,-149.8 24.16,-113.8 175.84,-113.8 175.84,-149.8"/>
<text text-anchor="middle" x="100" y="-127.6" font-family="Times,serif" font-size="14.00">UsersCsRoutingModule</text>
</g>
<!-- UsersCsRoutingModule&#45;&gt;UsersCsModule -->
<g id="edge4" class="edge">
<title>UsersCsRoutingModule&#45;&gt;UsersCsModule</title>
<path fill="none" stroke="black" d="M100,-149.91C100,-169.14 100,-196.8 100,-196.8 100,-196.8 216.48,-196.8 216.48,-196.8"/>
<polygon fill="black" stroke="black" points="216.48,-200.3 226.48,-196.8 216.48,-193.3 216.48,-200.3"/>
</g>
</g>
</svg>
