<?xml version="1.0" encoding="UTF-8" standalone="no"?>
<!DOCTYPE svg PUBLIC "-//W3C//DTD SVG 1.1//EN"
 "http://www.w3.org/Graphics/SVG/1.1/DTD/svg11.dtd">
<!-- Generated by graphviz version 5.0.0 (20220707.1540)
 -->
<!-- Title: dependencies Pages: 1 -->
<svg width="277pt" height="247pt"
 viewBox="0.00 0.00 277.00 246.80" xmlns="http://www.w3.org/2000/svg" xmlns:xlink="http://www.w3.org/1999/xlink">
<g id="graph0" class="graph" transform="scale(1 1) rotate(0) translate(4 242.8)">
<title>dependencies</title>
<polygon fill="white" stroke="transparent" points="-4,4 -4,-242.8 273,-242.8 273,4 -4,4"/>
<text text-anchor="middle" x="134.5" y="-8.2" font-family="sans-serif" font-size="14.00">dependencies</text>
<g id="clust1" class="cluster">
<title>cluster_UiModule</title>
<polygon fill="none" stroke="black" stroke-dasharray="1,5" points="8,-32.8 8,-230.8 261,-230.8 261,-32.8 8,-32.8"/>
</g>
<g id="clust2" class="cluster">
<title>cluster_UiModule_declarations</title>
<polygon fill="none" stroke="black" points="20,-40.8 20,-92.8 250,-92.8 250,-40.8 20,-40.8"/>
</g>
<g id="clust6" class="cluster">
<title>cluster_UiModule_exports</title>
<polygon fill="none" stroke="black" points="16,-170.8 16,-222.8 253,-222.8 253,-170.8 16,-170.8"/>
</g>
<!-- C1Component -->
<g id="node1" class="node">
<title>C1Component</title>
<polygon fill="#ffffb3" stroke="black" points="241.67,-84.8 144.33,-84.8 144.33,-48.8 241.67,-48.8 241.67,-84.8"/>
<text text-anchor="middle" x="193" y="-62.6" font-family="Times,serif" font-size="14.00">C1Component</text>
</g>
<!-- UiModule -->
<g id="node3" class="node">
<title>UiModule</title>
<polygon fill="#8dd3c7" stroke="black" points="114.55,-149.8 111.55,-153.8 90.55,-153.8 87.55,-149.8 41.45,-149.8 41.45,-113.8 114.55,-113.8 114.55,-149.8"/>
<text text-anchor="middle" x="78" y="-127.6" font-family="Times,serif" font-size="14.00">UiModule</text>
</g>
<!-- C1Component&#45;&gt;UiModule -->
<g id="edge1" class="edge">
<title>C1Component&#45;&gt;UiModule</title>
<path fill="none" stroke="black" d="M209.28,-84.82C209.28,-102.17 209.28,-125.8 209.28,-125.8 209.28,-125.8 124.57,-125.8 124.57,-125.8"/>
<polygon fill="black" stroke="black" points="124.57,-122.3 114.57,-125.8 124.57,-129.3 124.57,-122.3"/>
</g>
<!-- C2Component -->
<g id="node2" class="node">
<title>C2Component</title>
<polygon fill="#ffffb3" stroke="black" points="125.67,-84.8 28.33,-84.8 28.33,-48.8 125.67,-48.8 125.67,-84.8"/>
<text text-anchor="middle" x="77" y="-62.6" font-family="Times,serif" font-size="14.00">C2Component</text>
</g>
<!-- C2Component&#45;&gt;UiModule -->
<g id="edge2" class="edge">
<title>C2Component&#45;&gt;UiModule</title>
<path fill="none" stroke="black" d="M78,-84.91C78,-84.91 78,-103.79 78,-103.79"/>
<polygon fill="black" stroke="black" points="74.5,-103.79 78,-113.79 81.5,-103.79 74.5,-103.79"/>
</g>
<!-- C1Component  -->
<g id="node4" class="node">
<title>C1Component </title>
<polygon fill="#fb8072" stroke="black" points="244.67,-214.8 143.33,-214.8 143.33,-178.8 244.67,-178.8 244.67,-214.8"/>
<text text-anchor="middle" x="194" y="-192.6" font-family="Times,serif" font-size="14.00">C1Component </text>
</g>
<!-- UiModule&#45;&gt;C1Component  -->
<g id="edge3" class="edge">
<title>UiModule&#45;&gt;C1Component </title>
<path fill="none" stroke="black" stroke-dasharray="5,2" d="M114.76,-137.8C142.83,-137.8 176.72,-137.8 176.72,-137.8 176.72,-137.8 176.72,-168.78 176.72,-168.78"/>
<polygon fill="black" stroke="black" points="173.22,-168.78 176.72,-178.78 180.22,-168.78 173.22,-168.78"/>
</g>
<!-- C2Component  -->
<g id="node5" class="node">
<title>C2Component </title>
<polygon fill="#fb8072" stroke="black" points="125.67,-214.8 24.33,-214.8 24.33,-178.8 125.67,-178.8 125.67,-214.8"/>
<text text-anchor="middle" x="75" y="-192.6" font-family="Times,serif" font-size="14.00">C2Component </text>
</g>
<!-- UiModule&#45;&gt;C2Component  -->
<g id="edge4" class="edge">
<title>UiModule&#45;&gt;C2Component </title>
<path fill="none" stroke="black" stroke-dasharray="5,2" d="M78,-149.91C78,-149.91 78,-168.79 78,-168.79"/>
<polygon fill="black" stroke="black" points="74.5,-168.79 78,-178.79 81.5,-168.79 74.5,-168.79"/>
</g>
</g>
</svg>
