<?xml version="1.0" encoding="UTF-8" standalone="no"?>
<!DOCTYPE svg PUBLIC "-//W3C//DTD SVG 1.1//EN"
 "http://www.w3.org/Graphics/SVG/1.1/DTD/svg11.dtd">
<!-- Generated by graphviz version 5.0.0 (20220707.1540)
 -->
<!-- Title: dependencies Pages: 1 -->
<svg width="158pt" height="247pt"
 viewBox="0.00 0.00 158.00 246.80" xmlns="http://www.w3.org/2000/svg" xmlns:xlink="http://www.w3.org/1999/xlink">
<g id="graph0" class="graph" transform="scale(1 1) rotate(0) translate(4 242.8)">
<title>dependencies</title>
<polygon fill="white" stroke="transparent" points="-4,4 -4,-242.8 154,-242.8 154,4 -4,4"/>
<text text-anchor="middle" x="75" y="-8.2" font-family="sans-serif" font-size="14.00">dependencies</text>
<g id="clust1" class="cluster">
<title>cluster_CapitalizeModule</title>
<polygon fill="none" stroke="black" stroke-dasharray="1,5" points="8,-32.8 8,-230.8 142,-230.8 142,-32.8 8,-32.8"/>
</g>
<g id="clust2" class="cluster">
<title>cluster_CapitalizeModule_declarations</title>
<polygon fill="none" stroke="black" points="18,-40.8 18,-92.8 132,-92.8 132,-40.8 18,-40.8"/>
</g>
<g id="clust5" class="cluster">
<title>cluster_CapitalizeModule_exports</title>
<polygon fill="none" stroke="black" points="16,-170.8 16,-222.8 134,-222.8 134,-170.8 16,-170.8"/>
</g>
<!-- CapitalizePipe -->
<g id="node1" class="node">
<title>CapitalizePipe</title>
<polygon fill="#ffffb3" stroke="black" points="123.64,-84.8 26.36,-84.8 26.36,-48.8 123.64,-48.8 123.64,-84.8"/>
<text text-anchor="middle" x="75" y="-62.6" font-family="Times,serif" font-size="14.00">CapitalizePipe</text>
</g>
<!-- CapitalizeModule -->
<g id="node2" class="node">
<title>CapitalizeModule</title>
<polygon fill="#8dd3c7" stroke="black" points="133.3,-149.8 130.3,-153.8 109.3,-153.8 106.3,-149.8 16.7,-149.8 16.7,-113.8 133.3,-113.8 133.3,-149.8"/>
<text text-anchor="middle" x="75" y="-127.6" font-family="Times,serif" font-size="14.00">CapitalizeModule</text>
</g>
<!-- CapitalizePipe&#45;&gt;CapitalizeModule -->
<g id="edge1" class="edge">
<title>CapitalizePipe&#45;&gt;CapitalizeModule</title>
<path fill="none" stroke="black" d="M75,-84.91C75,-84.91 75,-103.79 75,-103.79"/>
<polygon fill="black" stroke="black" points="71.5,-103.79 75,-113.79 78.5,-103.79 71.5,-103.79"/>
</g>
<!-- CapitalizePipe  -->
<g id="node3" class="node">
<title>CapitalizePipe </title>
<polygon fill="#fb8072" stroke="black" points="125.64,-214.8 24.36,-214.8 24.36,-178.8 125.64,-178.8 125.64,-214.8"/>
<text text-anchor="middle" x="75" y="-192.6" font-family="Times,serif" font-size="14.00">CapitalizePipe </text>
</g>
<!-- CapitalizeModule&#45;&gt;CapitalizePipe  -->
<g id="edge2" class="edge">
<title>CapitalizeModule&#45;&gt;CapitalizePipe </title>
<path fill="none" stroke="black" stroke-dasharray="5,2" d="M75,-149.91C75,-149.91 75,-168.79 75,-168.79"/>
<polygon fill="black" stroke="black" points="71.5,-168.79 75,-178.79 78.5,-168.79 71.5,-168.79"/>
</g>
</g>
</svg>
