<?xml version="1.0" encoding="UTF-8" standalone="no"?>
<!DOCTYPE svg PUBLIC "-//W3C//DTD SVG 1.1//EN"
 "http://www.w3.org/Graphics/SVG/1.1/DTD/svg11.dtd">
<!-- Generated by graphviz version 5.0.0 (20220707.1540)
 -->
<!-- Title: dependencies Pages: 1 -->
<svg width="422pt" height="174pt"
 viewBox="0.00 0.00 422.00 173.80" xmlns="http://www.w3.org/2000/svg" xmlns:xlink="http://www.w3.org/1999/xlink">
<g id="graph0" class="graph" transform="scale(1 1) rotate(0) translate(4 169.8)">
<title>dependencies</title>
<polygon fill="white" stroke="transparent" points="-4,4 -4,-169.8 418,-169.8 418,4 -4,4"/>
<text text-anchor="middle" x="207" y="-8.2" font-family="sans-serif" font-size="14.00">dependencies</text>
<g id="clust1" class="cluster">
<title>cluster_LongRunningModule</title>
<polygon fill="none" stroke="black" stroke-dasharray="1,5" points="8,-32.8 8,-157.8 406,-157.8 406,-32.8 8,-32.8"/>
</g>
<g id="clust2" class="cluster">
<title>cluster_LongRunningModule_declarations</title>
<polygon fill="none" stroke="black" points="222,-40.8 222,-92.8 398,-92.8 398,-40.8 222,-40.8"/>
</g>
<g id="clust4" class="cluster">
<title>cluster_LongRunningModule_imports</title>
<polygon fill="none" stroke="black" points="16,-40.8 16,-92.8 214,-92.8 214,-40.8 16,-40.8"/>
</g>
<!-- LongRunningComponent -->
<g id="node1" class="node">
<title>LongRunningComponent</title>
<polygon fill="#ffffb3" stroke="black" points="389.61,-84.8 230.39,-84.8 230.39,-48.8 389.61,-48.8 389.61,-84.8"/>
<text text-anchor="middle" x="310" y="-62.6" font-family="Times,serif" font-size="14.00">LongRunningComponent</text>
</g>
<!-- LongRunningModule -->
<g id="node2" class="node">
<title>LongRunningModule</title>
<polygon fill="#8dd3c7" stroke="black" points="280.83,-149.8 277.83,-153.8 256.83,-153.8 253.83,-149.8 143.17,-149.8 143.17,-113.8 280.83,-113.8 280.83,-149.8"/>
<text text-anchor="middle" x="212" y="-127.6" font-family="Times,serif" font-size="14.00">LongRunningModule</text>
</g>
<!-- LongRunningComponent&#45;&gt;LongRunningModule -->
<g id="edge1" class="edge">
<title>LongRunningComponent&#45;&gt;LongRunningModule</title>
<path fill="none" stroke="black" d="M255.56,-84.91C255.56,-84.91 255.56,-103.79 255.56,-103.79"/>
<polygon fill="black" stroke="black" points="252.06,-103.79 255.56,-113.79 259.06,-103.79 252.06,-103.79"/>
</g>
<!-- LongRunningRoutingModule -->
<g id="node3" class="node">
<title>LongRunningRoutingModule</title>
<polygon fill="#8dd3c7" stroke="black" points="206.45,-84.8 203.45,-88.8 182.45,-88.8 179.45,-84.8 23.55,-84.8 23.55,-48.8 206.45,-48.8 206.45,-84.8"/>
<text text-anchor="middle" x="115" y="-62.6" font-family="Times,serif" font-size="14.00">LongRunningRoutingModule</text>
</g>
<!-- LongRunningRoutingModule&#45;&gt;LongRunningModule -->
<g id="edge2" class="edge">
<title>LongRunningRoutingModule&#45;&gt;LongRunningModule</title>
<path fill="none" stroke="black" d="M174.78,-84.91C174.78,-84.91 174.78,-103.79 174.78,-103.79"/>
<polygon fill="black" stroke="black" points="171.28,-103.79 174.78,-113.79 178.28,-103.79 171.28,-103.79"/>
</g>
</g>
</svg>
