<?xml version="1.0" encoding="UTF-8" standalone="no"?>
<!DOCTYPE svg PUBLIC "-//W3C//DTD SVG 1.1//EN"
 "http://www.w3.org/Graphics/SVG/1.1/DTD/svg11.dtd">
<!-- Generated by graphviz version 5.0.0 (20220707.1540)
 -->
<!-- Title: dependencies Pages: 1 -->
<svg width="582pt" height="174pt"
 viewBox="0.00 0.00 582.00 173.80" xmlns="http://www.w3.org/2000/svg" xmlns:xlink="http://www.w3.org/1999/xlink">
<g id="graph0" class="graph" transform="scale(1 1) rotate(0) translate(4 169.8)">
<title>dependencies</title>
<polygon fill="white" stroke="transparent" points="-4,4 -4,-169.8 578,-169.8 578,4 -4,4"/>
<text text-anchor="middle" x="287" y="-8.2" font-family="sans-serif" font-size="14.00">dependencies</text>
<g id="clust1" class="cluster">
<title>cluster_UsersStoreModule</title>
<polygon fill="none" stroke="black" stroke-dasharray="1,5" points="8,-32.8 8,-157.8 566,-157.8 566,-32.8 8,-32.8"/>
</g>
<g id="clust2" class="cluster">
<title>cluster_UsersStoreModule_declarations</title>
<polygon fill="none" stroke="black" points="206,-40.8 206,-92.8 558,-92.8 558,-40.8 206,-40.8"/>
</g>
<g id="clust5" class="cluster">
<title>cluster_UsersStoreModule_imports</title>
<polygon fill="none" stroke="black" points="16,-40.8 16,-92.8 198,-92.8 198,-40.8 16,-40.8"/>
</g>
<!-- UserStoreDialogComponent -->
<g id="node1" class="node">
<title>UserStoreDialogComponent</title>
<polygon fill="#ffffb3" stroke="black" points="549.92,-84.8 374.08,-84.8 374.08,-48.8 549.92,-48.8 549.92,-84.8"/>
<text text-anchor="middle" x="462" y="-62.6" font-family="Times,serif" font-size="14.00">UserStoreDialogComponent</text>
</g>
<!-- UsersStoreModule -->
<g id="node3" class="node">
<title>UsersStoreModule</title>
<polygon fill="#8dd3c7" stroke="black" points="345.49,-149.8 342.49,-153.8 321.49,-153.8 318.49,-149.8 224.51,-149.8 224.51,-113.8 345.49,-113.8 345.49,-149.8"/>
<text text-anchor="middle" x="285" y="-127.6" font-family="Times,serif" font-size="14.00">UsersStoreModule</text>
</g>
<!-- UserStoreDialogComponent&#45;&gt;UsersStoreModule -->
<g id="edge1" class="edge">
<title>UserStoreDialogComponent&#45;&gt;UsersStoreModule</title>
<path fill="none" stroke="black" d="M462,-84.91C462,-104.14 462,-131.8 462,-131.8 462,-131.8 355.91,-131.8 355.91,-131.8"/>
<polygon fill="black" stroke="black" points="355.91,-128.3 345.91,-131.8 355.91,-135.3 355.91,-128.3"/>
</g>
<!-- UsersStoreComponent -->
<g id="node2" class="node">
<title>UsersStoreComponent</title>
<polygon fill="#ffffb3" stroke="black" points="356.27,-84.8 213.73,-84.8 213.73,-48.8 356.27,-48.8 356.27,-84.8"/>
<text text-anchor="middle" x="285" y="-62.6" font-family="Times,serif" font-size="14.00">UsersStoreComponent</text>
</g>
<!-- UsersStoreComponent&#45;&gt;UsersStoreModule -->
<g id="edge2" class="edge">
<title>UsersStoreComponent&#45;&gt;UsersStoreModule</title>
<path fill="none" stroke="black" d="M285,-84.91C285,-84.91 285,-103.79 285,-103.79"/>
<polygon fill="black" stroke="black" points="281.5,-103.79 285,-113.79 288.5,-103.79 281.5,-103.79"/>
</g>
<!-- UsersStoreRoutingModule -->
<g id="node4" class="node">
<title>UsersStoreRoutingModule</title>
<polygon fill="#8dd3c7" stroke="black" points="190.1,-84.8 187.1,-88.8 166.1,-88.8 163.1,-84.8 23.9,-84.8 23.9,-48.8 190.1,-48.8 190.1,-84.8"/>
<text text-anchor="middle" x="107" y="-62.6" font-family="Times,serif" font-size="14.00">UsersStoreRoutingModule</text>
</g>
<!-- UsersStoreRoutingModule&#45;&gt;UsersStoreModule -->
<g id="edge3" class="edge">
<title>UsersStoreRoutingModule&#45;&gt;UsersStoreModule</title>
<path fill="none" stroke="black" d="M107,-84.91C107,-104.14 107,-131.8 107,-131.8 107,-131.8 214.24,-131.8 214.24,-131.8"/>
<polygon fill="black" stroke="black" points="214.24,-135.3 224.24,-131.8 214.24,-128.3 214.24,-135.3"/>
</g>
</g>
</svg>
