<?xml version="1.0" encoding="UTF-8" standalone="no"?>
<!DOCTYPE svg PUBLIC "-//W3C//DTD SVG 1.1//EN"
 "http://www.w3.org/Graphics/SVG/1.1/DTD/svg11.dtd">
<!-- Generated by graphviz version 5.0.0 (20220707.1540)
 -->
<!-- Title: dependencies Pages: 1 -->
<svg width="444pt" height="174pt"
 viewBox="0.00 0.00 444.00 173.80" xmlns="http://www.w3.org/2000/svg" xmlns:xlink="http://www.w3.org/1999/xlink">
<g id="graph0" class="graph" transform="scale(1 1) rotate(0) translate(4 169.8)">
<title>dependencies</title>
<polygon fill="white" stroke="transparent" points="-4,4 -4,-169.8 440,-169.8 440,4 -4,4"/>
<text text-anchor="middle" x="218" y="-8.2" font-family="sans-serif" font-size="14.00">dependencies</text>
<g id="clust1" class="cluster">
<title>cluster_ReusableSearchModule</title>
<polygon fill="none" stroke="black" stroke-dasharray="1,5" points="8,-32.8 8,-157.8 428,-157.8 428,-32.8 8,-32.8"/>
</g>
<g id="clust2" class="cluster">
<title>cluster_ReusableSearchModule_declarations</title>
<polygon fill="none" stroke="black" points="234,-40.8 234,-92.8 420,-92.8 420,-40.8 234,-40.8"/>
</g>
<g id="clust4" class="cluster">
<title>cluster_ReusableSearchModule_imports</title>
<polygon fill="none" stroke="black" points="16,-40.8 16,-92.8 226,-92.8 226,-40.8 16,-40.8"/>
</g>
<!-- ReusableSearchComponent -->
<g id="node1" class="node">
<title>ReusableSearchComponent</title>
<polygon fill="#ffffb3" stroke="black" points="412.24,-84.8 241.76,-84.8 241.76,-48.8 412.24,-48.8 412.24,-84.8"/>
<text text-anchor="middle" x="327" y="-62.6" font-family="Times,serif" font-size="14.00">ReusableSearchComponent</text>
</g>
<!-- ReusableSearchModule -->
<g id="node2" class="node">
<title>ReusableSearchModule</title>
<polygon fill="#8dd3c7" stroke="black" points="298.46,-149.8 295.46,-153.8 274.46,-153.8 271.46,-149.8 149.54,-149.8 149.54,-113.8 298.46,-113.8 298.46,-149.8"/>
<text text-anchor="middle" x="224" y="-127.6" font-family="Times,serif" font-size="14.00">ReusableSearchModule</text>
</g>
<!-- ReusableSearchComponent&#45;&gt;ReusableSearchModule -->
<g id="edge1" class="edge">
<title>ReusableSearchComponent&#45;&gt;ReusableSearchModule</title>
<path fill="none" stroke="black" d="M270.06,-84.91C270.06,-84.91 270.06,-103.79 270.06,-103.79"/>
<polygon fill="black" stroke="black" points="266.56,-103.79 270.06,-113.79 273.56,-103.79 266.56,-103.79"/>
</g>
<!-- ReusableSearchRoutingModule -->
<g id="node3" class="node">
<title>ReusableSearchRoutingModule</title>
<polygon fill="#8dd3c7" stroke="black" points="218.08,-84.8 215.08,-88.8 194.08,-88.8 191.08,-84.8 23.92,-84.8 23.92,-48.8 218.08,-48.8 218.08,-84.8"/>
<text text-anchor="middle" x="121" y="-62.6" font-family="Times,serif" font-size="14.00">ReusableSearchRoutingModule</text>
</g>
<!-- ReusableSearchRoutingModule&#45;&gt;ReusableSearchModule -->
<g id="edge2" class="edge">
<title>ReusableSearchRoutingModule&#45;&gt;ReusableSearchModule</title>
<path fill="none" stroke="black" d="M183.78,-84.91C183.78,-84.91 183.78,-103.79 183.78,-103.79"/>
<polygon fill="black" stroke="black" points="180.28,-103.79 183.78,-113.79 187.28,-103.79 180.28,-103.79"/>
</g>
</g>
</svg>
