<?xml version="1.0" encoding="UTF-8" standalone="no"?>
<!DOCTYPE svg PUBLIC "-//W3C//DTD SVG 1.1//EN"
 "http://www.w3.org/Graphics/SVG/1.1/DTD/svg11.dtd">
<!-- Generated by graphviz version 5.0.0 (20220707.1540)
 -->
<!-- Title: dependencies Pages: 1 -->
<svg width="506pt" height="174pt"
 viewBox="0.00 0.00 506.00 173.80" xmlns="http://www.w3.org/2000/svg" xmlns:xlink="http://www.w3.org/1999/xlink">
<g id="graph0" class="graph" transform="scale(1 1) rotate(0) translate(4 169.8)">
<title>dependencies</title>
<polygon fill="white" stroke="transparent" points="-4,4 -4,-169.8 502,-169.8 502,4 -4,4"/>
<text text-anchor="middle" x="249" y="-8.2" font-family="sans-serif" font-size="14.00">dependencies</text>
<g id="clust1" class="cluster">
<title>cluster_UcardModule</title>
<polygon fill="none" stroke="black" stroke-dasharray="1,5" points="8,-32.8 8,-157.8 490,-157.8 490,-32.8 8,-32.8"/>
</g>
<g id="clust2" class="cluster">
<title>cluster_UcardModule_declarations</title>
<polygon fill="none" stroke="black" points="178,-40.8 178,-92.8 482,-92.8 482,-40.8 178,-40.8"/>
</g>
<g id="clust5" class="cluster">
<title>cluster_UcardModule_imports</title>
<polygon fill="none" stroke="black" points="16,-40.8 16,-92.8 170,-92.8 170,-40.8 16,-40.8"/>
</g>
<!-- UcardComponent -->
<g id="node1" class="node">
<title>UcardComponent</title>
<polygon fill="#ffffb3" stroke="black" points="473.53,-84.8 358.47,-84.8 358.47,-48.8 473.53,-48.8 473.53,-84.8"/>
<text text-anchor="middle" x="416" y="-62.6" font-family="Times,serif" font-size="14.00">UcardComponent</text>
</g>
<!-- UcardModule -->
<g id="node3" class="node">
<title>UcardModule</title>
<polygon fill="#8dd3c7" stroke="black" points="309.75,-149.8 306.75,-153.8 285.75,-153.8 282.75,-149.8 216.25,-149.8 216.25,-113.8 309.75,-113.8 309.75,-149.8"/>
<text text-anchor="middle" x="263" y="-127.6" font-family="Times,serif" font-size="14.00">UcardModule</text>
</g>
<!-- UcardComponent&#45;&gt;UcardModule -->
<g id="edge1" class="edge">
<title>UcardComponent&#45;&gt;UcardModule</title>
<path fill="none" stroke="black" d="M416,-84.91C416,-104.14 416,-131.8 416,-131.8 416,-131.8 320.15,-131.8 320.15,-131.8"/>
<polygon fill="black" stroke="black" points="320.15,-128.3 310.15,-131.8 320.15,-135.3 320.15,-128.3"/>
</g>
<!-- UcardDialogComponent -->
<g id="node2" class="node">
<title>UcardDialogComponent</title>
<polygon fill="#ffffb3" stroke="black" points="339.64,-84.8 186.36,-84.8 186.36,-48.8 339.64,-48.8 339.64,-84.8"/>
<text text-anchor="middle" x="263" y="-62.6" font-family="Times,serif" font-size="14.00">UcardDialogComponent</text>
</g>
<!-- UcardDialogComponent&#45;&gt;UcardModule -->
<g id="edge2" class="edge">
<title>UcardDialogComponent&#45;&gt;UcardModule</title>
<path fill="none" stroke="black" d="M263,-84.91C263,-84.91 263,-103.79 263,-103.79"/>
<polygon fill="black" stroke="black" points="259.5,-103.79 263,-113.79 266.5,-103.79 259.5,-103.79"/>
</g>
<!-- UcardRoutingModule -->
<g id="node4" class="node">
<title>UcardRoutingModule</title>
<polygon fill="#8dd3c7" stroke="black" points="162.37,-84.8 159.37,-88.8 138.37,-88.8 135.37,-84.8 23.63,-84.8 23.63,-48.8 162.37,-48.8 162.37,-84.8"/>
<text text-anchor="middle" x="93" y="-62.6" font-family="Times,serif" font-size="14.00">UcardRoutingModule</text>
</g>
<!-- UcardRoutingModule&#45;&gt;UcardModule -->
<g id="edge3" class="edge">
<title>UcardRoutingModule&#45;&gt;UcardModule</title>
<path fill="none" stroke="black" d="M93,-84.91C93,-104.14 93,-131.8 93,-131.8 93,-131.8 206.1,-131.8 206.1,-131.8"/>
<polygon fill="black" stroke="black" points="206.1,-135.3 216.1,-131.8 206.1,-128.3 206.1,-135.3"/>
</g>
</g>
</svg>
