<?xml version="1.0" encoding="UTF-8" standalone="no"?>
<!DOCTYPE svg PUBLIC "-//W3C//DTD SVG 1.1//EN"
 "http://www.w3.org/Graphics/SVG/1.1/DTD/svg11.dtd">
<!-- Generated by graphviz version 5.0.0 (20220707.1540)
 -->
<!-- Title: dependencies Pages: 1 -->
<svg width="388pt" height="174pt"
 viewBox="0.00 0.00 388.00 173.80" xmlns="http://www.w3.org/2000/svg" xmlns:xlink="http://www.w3.org/1999/xlink">
<g id="graph0" class="graph" transform="scale(1 1) rotate(0) translate(4 169.8)">
<title>dependencies</title>
<polygon fill="white" stroke="transparent" points="-4,4 -4,-169.8 384,-169.8 384,4 -4,4"/>
<text text-anchor="middle" x="190" y="-8.2" font-family="sans-serif" font-size="14.00">dependencies</text>
<g id="clust1" class="cluster">
<title>cluster_StoredemoModule</title>
<polygon fill="none" stroke="black" stroke-dasharray="1,5" points="8,-32.8 8,-157.8 372,-157.8 372,-32.8 8,-32.8"/>
</g>
<g id="clust2" class="cluster">
<title>cluster_StoredemoModule_declarations</title>
<polygon fill="none" stroke="black" points="206,-40.8 206,-92.8 364,-92.8 364,-40.8 206,-40.8"/>
</g>
<g id="clust4" class="cluster">
<title>cluster_StoredemoModule_imports</title>
<polygon fill="none" stroke="black" points="16,-40.8 16,-92.8 198,-92.8 198,-40.8 16,-40.8"/>
</g>
<!-- StoredemoComponent -->
<g id="node1" class="node">
<title>StoredemoComponent</title>
<polygon fill="#ffffb3" stroke="black" points="355.99,-84.8 214.01,-84.8 214.01,-48.8 355.99,-48.8 355.99,-84.8"/>
<text text-anchor="middle" x="285" y="-62.6" font-family="Times,serif" font-size="14.00">StoredemoComponent</text>
</g>
<!-- StoredemoModule -->
<g id="node2" class="node">
<title>StoredemoModule</title>
<polygon fill="#8dd3c7" stroke="black" points="256.21,-149.8 253.21,-153.8 232.21,-153.8 229.21,-149.8 135.79,-149.8 135.79,-113.8 256.21,-113.8 256.21,-149.8"/>
<text text-anchor="middle" x="196" y="-127.6" font-family="Times,serif" font-size="14.00">StoredemoModule</text>
</g>
<!-- StoredemoComponent&#45;&gt;StoredemoModule -->
<g id="edge1" class="edge">
<title>StoredemoComponent&#45;&gt;StoredemoModule</title>
<path fill="none" stroke="black" d="M235.06,-84.91C235.06,-84.91 235.06,-103.79 235.06,-103.79"/>
<polygon fill="black" stroke="black" points="231.56,-103.79 235.06,-113.79 238.56,-103.79 231.56,-103.79"/>
</g>
<!-- StoredemoRoutingModule -->
<g id="node3" class="node">
<title>StoredemoRoutingModule</title>
<polygon fill="#8dd3c7" stroke="black" points="189.82,-84.8 186.82,-88.8 165.82,-88.8 162.82,-84.8 24.18,-84.8 24.18,-48.8 189.82,-48.8 189.82,-84.8"/>
<text text-anchor="middle" x="107" y="-62.6" font-family="Times,serif" font-size="14.00">StoredemoRoutingModule</text>
</g>
<!-- StoredemoRoutingModule&#45;&gt;StoredemoModule -->
<g id="edge2" class="edge">
<title>StoredemoRoutingModule&#45;&gt;StoredemoModule</title>
<path fill="none" stroke="black" d="M162.78,-84.91C162.78,-84.91 162.78,-103.79 162.78,-103.79"/>
<polygon fill="black" stroke="black" points="159.28,-103.79 162.78,-113.79 166.28,-103.79 159.28,-103.79"/>
</g>
</g>
</svg>
