<?xml version="1.0" encoding="UTF-8" standalone="no"?>
<!DOCTYPE svg PUBLIC "-//W3C//DTD SVG 1.1//EN"
 "http://www.w3.org/Graphics/SVG/1.1/DTD/svg11.dtd">
<!-- Generated by graphviz version 5.0.0 (20220707.1540)
 -->
<!-- Title: dependencies Pages: 1 -->
<svg width="550pt" height="174pt"
 viewBox="0.00 0.00 550.00 173.80" xmlns="http://www.w3.org/2000/svg" xmlns:xlink="http://www.w3.org/1999/xlink">
<g id="graph0" class="graph" transform="scale(1 1) rotate(0) translate(4 169.8)">
<title>dependencies</title>
<polygon fill="white" stroke="transparent" points="-4,4 -4,-169.8 546,-169.8 546,4 -4,4"/>
<text text-anchor="middle" x="271" y="-8.2" font-family="sans-serif" font-size="14.00">dependencies</text>
<g id="clust1" class="cluster">
<title>cluster_UsersWsModule</title>
<polygon fill="none" stroke="black" stroke-dasharray="1,5" points="8,-32.8 8,-157.8 534,-157.8 534,-32.8 8,-32.8"/>
</g>
<g id="clust2" class="cluster">
<title>cluster_UsersWsModule_declarations</title>
<polygon fill="none" stroke="black" points="196,-40.8 196,-92.8 526,-92.8 526,-40.8 196,-40.8"/>
</g>
<g id="clust5" class="cluster">
<title>cluster_UsersWsModule_imports</title>
<polygon fill="none" stroke="black" points="16,-40.8 16,-92.8 188,-92.8 188,-40.8 16,-40.8"/>
</g>
<!-- UserWsDialogComponent -->
<g id="node1" class="node">
<title>UserWsDialogComponent</title>
<polygon fill="#ffffb3" stroke="black" points="518.03,-84.8 353.97,-84.8 353.97,-48.8 518.03,-48.8 518.03,-84.8"/>
<text text-anchor="middle" x="436" y="-62.6" font-family="Times,serif" font-size="14.00">UserWsDialogComponent</text>
</g>
<!-- UsersWsModule -->
<g id="node3" class="node">
<title>UsersWsModule</title>
<polygon fill="#8dd3c7" stroke="black" points="325.1,-149.8 322.1,-153.8 301.1,-153.8 298.1,-149.8 214.9,-149.8 214.9,-113.8 325.1,-113.8 325.1,-149.8"/>
<text text-anchor="middle" x="270" y="-127.6" font-family="Times,serif" font-size="14.00">UsersWsModule</text>
</g>
<!-- UserWsDialogComponent&#45;&gt;UsersWsModule -->
<g id="edge1" class="edge">
<title>UserWsDialogComponent&#45;&gt;UsersWsModule</title>
<path fill="none" stroke="black" d="M436,-84.91C436,-104.14 436,-131.8 436,-131.8 436,-131.8 335.28,-131.8 335.28,-131.8"/>
<polygon fill="black" stroke="black" points="335.28,-128.3 325.28,-131.8 335.28,-135.3 335.28,-128.3"/>
</g>
<!-- UsersWsComponent -->
<g id="node2" class="node">
<title>UsersWsComponent</title>
<polygon fill="#ffffb3" stroke="black" points="335.88,-84.8 204.12,-84.8 204.12,-48.8 335.88,-48.8 335.88,-84.8"/>
<text text-anchor="middle" x="270" y="-62.6" font-family="Times,serif" font-size="14.00">UsersWsComponent</text>
</g>
<!-- UsersWsComponent&#45;&gt;UsersWsModule -->
<g id="edge2" class="edge">
<title>UsersWsComponent&#45;&gt;UsersWsModule</title>
<path fill="none" stroke="black" d="M270,-84.91C270,-84.91 270,-103.79 270,-103.79"/>
<polygon fill="black" stroke="black" points="266.5,-103.79 270,-113.79 273.5,-103.79 266.5,-103.79"/>
</g>
<!-- UsersWsRoutingModule -->
<g id="node4" class="node">
<title>UsersWsRoutingModule</title>
<polygon fill="#8dd3c7" stroke="black" points="179.71,-84.8 176.71,-88.8 155.71,-88.8 152.71,-84.8 24.29,-84.8 24.29,-48.8 179.71,-48.8 179.71,-84.8"/>
<text text-anchor="middle" x="102" y="-62.6" font-family="Times,serif" font-size="14.00">UsersWsRoutingModule</text>
</g>
<!-- UsersWsRoutingModule&#45;&gt;UsersWsModule -->
<g id="edge3" class="edge">
<title>UsersWsRoutingModule&#45;&gt;UsersWsModule</title>
<path fill="none" stroke="black" d="M102,-84.91C102,-104.14 102,-131.8 102,-131.8 102,-131.8 204.52,-131.8 204.52,-131.8"/>
<polygon fill="black" stroke="black" points="204.52,-135.3 214.52,-131.8 204.52,-128.3 204.52,-135.3"/>
</g>
</g>
</svg>
