<?xml version="1.0" encoding="UTF-8" standalone="no"?>
<!DOCTYPE svg PUBLIC "-//W3C//DTD SVG 1.1//EN"
 "http://www.w3.org/Graphics/SVG/1.1/DTD/svg11.dtd">
<!-- Generated by graphviz version 5.0.0 (20220707.1540)
 -->
<!-- Title: dependencies Pages: 1 -->
<svg width="516pt" height="247pt"
 viewBox="0.00 0.00 516.00 246.80" xmlns="http://www.w3.org/2000/svg" xmlns:xlink="http://www.w3.org/1999/xlink">
<g id="graph0" class="graph" transform="scale(1 1) rotate(0) translate(4 242.8)">
<title>dependencies</title>
<polygon fill="white" stroke="transparent" points="-4,4 -4,-242.8 512,-242.8 512,4 -4,4"/>
<text text-anchor="middle" x="254" y="-8.2" font-family="sans-serif" font-size="14.00">dependencies</text>
<g id="clust1" class="cluster">
<title>cluster_NoscamSharedModule</title>
<polygon fill="none" stroke="black" stroke-dasharray="1,5" points="8,-32.8 8,-230.8 500,-230.8 500,-32.8 8,-32.8"/>
</g>
<g id="clust2" class="cluster">
<title>cluster_NoscamSharedModule_declarations</title>
<polygon fill="none" stroke="black" points="114,-40.8 114,-92.8 492,-92.8 492,-40.8 114,-40.8"/>
</g>
<g id="clust7" class="cluster">
<title>cluster_NoscamSharedModule_exports</title>
<polygon fill="none" stroke="black" points="60,-170.8 60,-222.8 448,-222.8 448,-170.8 60,-170.8"/>
</g>
<g id="clust6" class="cluster">
<title>cluster_NoscamSharedModule_imports</title>
<polygon fill="none" stroke="black" points="16,-40.8 16,-92.8 106,-92.8 106,-40.8 16,-40.8"/>
</g>
<!-- ButtonDirective -->
<g id="node1" class="node">
<title>ButtonDirective</title>
<polygon fill="#ffffb3" stroke="black" points="484.2,-84.8 377.8,-84.8 377.8,-48.8 484.2,-48.8 484.2,-84.8"/>
<text text-anchor="middle" x="431" y="-62.6" font-family="Times,serif" font-size="14.00">ButtonDirective</text>
</g>
<!-- NoscamSharedModule -->
<g id="node4" class="node">
<title>NoscamSharedModule</title>
<polygon fill="#8dd3c7" stroke="black" points="334.3,-149.8 331.3,-153.8 310.3,-153.8 307.3,-149.8 189.7,-149.8 189.7,-113.8 334.3,-113.8 334.3,-149.8"/>
<text text-anchor="middle" x="262" y="-127.6" font-family="Times,serif" font-size="14.00">NoscamSharedModule</text>
</g>
<!-- ButtonDirective&#45;&gt;NoscamSharedModule -->
<g id="edge1" class="edge">
<title>ButtonDirective&#45;&gt;NoscamSharedModule</title>
<path fill="none" stroke="black" d="M408.88,-84.91C408.88,-104.14 408.88,-131.8 408.88,-131.8 408.88,-131.8 344.58,-131.8 344.58,-131.8"/>
<polygon fill="black" stroke="black" points="344.58,-128.3 334.58,-131.8 344.58,-135.3 344.58,-128.3"/>
</g>
<!-- CapitalizePipe -->
<g id="node2" class="node">
<title>CapitalizePipe</title>
<polygon fill="#ffffb3" stroke="black" points="359.64,-84.8 262.36,-84.8 262.36,-48.8 359.64,-48.8 359.64,-84.8"/>
<text text-anchor="middle" x="311" y="-62.6" font-family="Times,serif" font-size="14.00">CapitalizePipe</text>
</g>
<!-- CapitalizePipe&#45;&gt;NoscamSharedModule -->
<g id="edge2" class="edge">
<title>CapitalizePipe&#45;&gt;NoscamSharedModule</title>
<path fill="none" stroke="black" d="M298.17,-84.91C298.17,-84.91 298.17,-103.79 298.17,-103.79"/>
<polygon fill="black" stroke="black" points="294.67,-103.79 298.17,-113.79 301.67,-103.79 294.67,-103.79"/>
</g>
<!-- Zippy1Component -->
<g id="node3" class="node">
<title>Zippy1Component</title>
<polygon fill="#ffffb3" stroke="black" points="243.77,-84.8 122.23,-84.8 122.23,-48.8 243.77,-48.8 243.77,-84.8"/>
<text text-anchor="middle" x="183" y="-62.6" font-family="Times,serif" font-size="14.00">Zippy1Component</text>
</g>
<!-- Zippy1Component&#45;&gt;NoscamSharedModule -->
<g id="edge3" class="edge">
<title>Zippy1Component&#45;&gt;NoscamSharedModule</title>
<path fill="none" stroke="black" d="M216.87,-84.91C216.87,-84.91 216.87,-103.79 216.87,-103.79"/>
<polygon fill="black" stroke="black" points="213.37,-103.79 216.87,-113.79 220.37,-103.79 213.37,-103.79"/>
</g>
<!-- ButtonDirective  -->
<g id="node6" class="node">
<title>ButtonDirective </title>
<polygon fill="#fb8072" stroke="black" points="439.7,-214.8 330.3,-214.8 330.3,-178.8 439.7,-178.8 439.7,-214.8"/>
<text text-anchor="middle" x="385" y="-192.6" font-family="Times,serif" font-size="14.00">ButtonDirective </text>
</g>
<!-- NoscamSharedModule&#45;&gt;ButtonDirective  -->
<g id="edge5" class="edge">
<title>NoscamSharedModule&#45;&gt;ButtonDirective </title>
<path fill="none" stroke="black" stroke-dasharray="5,2" d="M321.36,-149.91C321.36,-169.14 321.36,-196.8 321.36,-196.8 321.36,-196.8 322.25,-196.8 322.25,-196.8"/>
<polygon fill="black" stroke="black" points="320.21,-200.3 330.21,-196.8 320.21,-193.3 320.21,-200.3"/>
</g>
<!-- CapitalizePipe  -->
<g id="node7" class="node">
<title>CapitalizePipe </title>
<polygon fill="#fb8072" stroke="black" points="312.64,-214.8 211.36,-214.8 211.36,-178.8 312.64,-178.8 312.64,-214.8"/>
<text text-anchor="middle" x="262" y="-192.6" font-family="Times,serif" font-size="14.00">CapitalizePipe </text>
</g>
<!-- NoscamSharedModule&#45;&gt;CapitalizePipe  -->
<g id="edge6" class="edge">
<title>NoscamSharedModule&#45;&gt;CapitalizePipe </title>
<path fill="none" stroke="black" stroke-dasharray="5,2" d="M262,-149.91C262,-149.91 262,-168.79 262,-168.79"/>
<polygon fill="black" stroke="black" points="258.5,-168.79 262,-178.79 265.5,-168.79 258.5,-168.79"/>
</g>
<!-- Zippy1Component  -->
<g id="node8" class="node">
<title>Zippy1Component </title>
<polygon fill="#fb8072" stroke="black" points="193.77,-214.8 68.23,-214.8 68.23,-178.8 193.77,-178.8 193.77,-214.8"/>
<text text-anchor="middle" x="131" y="-192.6" font-family="Times,serif" font-size="14.00">Zippy1Component </text>
</g>
<!-- NoscamSharedModule&#45;&gt;Zippy1Component  -->
<g id="edge7" class="edge">
<title>NoscamSharedModule&#45;&gt;Zippy1Component </title>
<path fill="none" stroke="black" stroke-dasharray="5,2" d="M202.53,-149.91C202.53,-169.14 202.53,-196.8 202.53,-196.8 202.53,-196.8 201.66,-196.8 201.66,-196.8"/>
<polygon fill="black" stroke="black" points="203.76,-193.3 193.76,-196.8 203.76,-200.3 203.76,-193.3"/>
</g>
<!-- UiModule -->
<g id="node5" class="node">
<title>UiModule</title>
<polygon fill="#8dd3c7" stroke="black" points="97.55,-84.8 94.55,-88.8 73.55,-88.8 70.55,-84.8 24.45,-84.8 24.45,-48.8 97.55,-48.8 97.55,-84.8"/>
<text text-anchor="middle" x="61" y="-62.6" font-family="Times,serif" font-size="14.00">UiModule</text>
</g>
<!-- UiModule&#45;&gt;NoscamSharedModule -->
<g id="edge4" class="edge">
<title>UiModule&#45;&gt;NoscamSharedModule</title>
<path fill="none" stroke="black" d="M83.07,-84.91C83.07,-104.14 83.07,-131.8 83.07,-131.8 83.07,-131.8 179.74,-131.8 179.74,-131.8"/>
<polygon fill="black" stroke="black" points="179.74,-135.3 189.74,-131.8 179.74,-128.3 179.74,-135.3"/>
</g>
</g>
</svg>
