<?xml version="1.0" encoding="UTF-8" standalone="no"?>
<!DOCTYPE svg PUBLIC "-//W3C//DTD SVG 1.1//EN"
 "http://www.w3.org/Graphics/SVG/1.1/DTD/svg11.dtd">
<!-- Generated by graphviz version 5.0.0 (20220707.1540)
 -->
<!-- Title: dependencies Pages: 1 -->
<svg width="684pt" height="174pt"
 viewBox="0.00 0.00 684.00 173.80" xmlns="http://www.w3.org/2000/svg" xmlns:xlink="http://www.w3.org/1999/xlink">
<g id="graph0" class="graph" transform="scale(1 1) rotate(0) translate(4 169.8)">
<title>dependencies</title>
<polygon fill="white" stroke="transparent" points="-4,4 -4,-169.8 680,-169.8 680,4 -4,4"/>
<text text-anchor="middle" x="338" y="-8.2" font-family="sans-serif" font-size="14.00">dependencies</text>
<g id="clust1" class="cluster">
<title>cluster_TimersModule</title>
<polygon fill="none" stroke="black" stroke-dasharray="1,5" points="8,-32.8 8,-157.8 668,-157.8 668,-32.8 8,-32.8"/>
</g>
<g id="clust2" class="cluster">
<title>cluster_TimersModule_declarations</title>
<polygon fill="none" stroke="black" points="184,-40.8 184,-92.8 660,-92.8 660,-40.8 184,-40.8"/>
</g>
<g id="clust6" class="cluster">
<title>cluster_TimersModule_imports</title>
<polygon fill="none" stroke="black" points="16,-40.8 16,-92.8 176,-92.8 176,-40.8 16,-40.8"/>
</g>
<!-- CanvasComponent -->
<g id="node1" class="node">
<title>CanvasComponent</title>
<polygon fill="#ffffb3" stroke="black" points="652.05,-84.8 529.95,-84.8 529.95,-48.8 652.05,-48.8 652.05,-84.8"/>
<text text-anchor="middle" x="591" y="-62.6" font-family="Times,serif" font-size="14.00">CanvasComponent</text>
</g>
<!-- TimersModule -->
<g id="node4" class="node">
<title>TimersModule</title>
<polygon fill="#8dd3c7" stroke="black" points="385.71,-149.8 382.71,-153.8 361.71,-153.8 358.71,-149.8 286.29,-149.8 286.29,-113.8 385.71,-113.8 385.71,-149.8"/>
<text text-anchor="middle" x="336" y="-127.6" font-family="Times,serif" font-size="14.00">TimersModule</text>
</g>
<!-- CanvasComponent&#45;&gt;TimersModule -->
<g id="edge1" class="edge">
<title>CanvasComponent&#45;&gt;TimersModule</title>
<path fill="none" stroke="black" d="M591,-84.91C591,-104.14 591,-131.8 591,-131.8 591,-131.8 395.77,-131.8 395.77,-131.8"/>
<polygon fill="black" stroke="black" points="395.77,-128.3 385.77,-131.8 395.77,-135.3 395.77,-128.3"/>
</g>
<!-- CanvasOptimizedComponent -->
<g id="node2" class="node">
<title>CanvasOptimizedComponent</title>
<polygon fill="#ffffb3" stroke="black" points="511.64,-84.8 330.36,-84.8 330.36,-48.8 511.64,-48.8 511.64,-84.8"/>
<text text-anchor="middle" x="421" y="-62.6" font-family="Times,serif" font-size="14.00">CanvasOptimizedComponent</text>
</g>
<!-- CanvasOptimizedComponent&#45;&gt;TimersModule -->
<g id="edge2" class="edge">
<title>CanvasOptimizedComponent&#45;&gt;TimersModule</title>
<path fill="none" stroke="black" d="M357.89,-84.91C357.89,-84.91 357.89,-103.79 357.89,-103.79"/>
<polygon fill="black" stroke="black" points="354.39,-103.79 357.89,-113.79 361.39,-103.79 354.39,-103.79"/>
</g>
<!-- TimersComponent -->
<g id="node3" class="node">
<title>TimersComponent</title>
<polygon fill="#ffffb3" stroke="black" points="312.49,-84.8 191.51,-84.8 191.51,-48.8 312.49,-48.8 312.49,-84.8"/>
<text text-anchor="middle" x="252" y="-62.6" font-family="Times,serif" font-size="14.00">TimersComponent</text>
</g>
<!-- TimersComponent&#45;&gt;TimersModule -->
<g id="edge3" class="edge">
<title>TimersComponent&#45;&gt;TimersModule</title>
<path fill="none" stroke="black" d="M299.44,-84.91C299.44,-84.91 299.44,-103.79 299.44,-103.79"/>
<polygon fill="black" stroke="black" points="295.94,-103.79 299.44,-113.79 302.94,-103.79 295.94,-103.79"/>
</g>
<!-- TimersRoutingModule -->
<g id="node5" class="node">
<title>TimersRoutingModule</title>
<polygon fill="#8dd3c7" stroke="black" points="168.32,-84.8 165.32,-88.8 144.32,-88.8 141.32,-84.8 23.68,-84.8 23.68,-48.8 168.32,-48.8 168.32,-84.8"/>
<text text-anchor="middle" x="96" y="-62.6" font-family="Times,serif" font-size="14.00">TimersRoutingModule</text>
</g>
<!-- TimersRoutingModule&#45;&gt;TimersModule -->
<g id="edge4" class="edge">
<title>TimersRoutingModule&#45;&gt;TimersModule</title>
<path fill="none" stroke="black" d="M96,-84.91C96,-104.14 96,-131.8 96,-131.8 96,-131.8 276.27,-131.8 276.27,-131.8"/>
<polygon fill="black" stroke="black" points="276.27,-135.3 286.27,-131.8 276.27,-128.3 276.27,-135.3"/>
</g>
</g>
</svg>
