<?xml version="1.0" encoding="UTF-8" standalone="no"?>
<!DOCTYPE svg PUBLIC "-//W3C//DTD SVG 1.1//EN"
 "http://www.w3.org/Graphics/SVG/1.1/DTD/svg11.dtd">
<!-- Generated by graphviz version 5.0.0 (20220707.1540)
 -->
<!-- Title: dependencies Pages: 1 -->
<svg width="432pt" height="174pt"
 viewBox="0.00 0.00 432.00 173.80" xmlns="http://www.w3.org/2000/svg" xmlns:xlink="http://www.w3.org/1999/xlink">
<g id="graph0" class="graph" transform="scale(1 1) rotate(0) translate(4 169.8)">
<title>dependencies</title>
<polygon fill="white" stroke="transparent" points="-4,4 -4,-169.8 428,-169.8 428,4 -4,4"/>
<text text-anchor="middle" x="212" y="-8.2" font-family="sans-serif" font-size="14.00">dependencies</text>
<g id="clust1" class="cluster">
<title>cluster_WorkersampleModule</title>
<polygon fill="none" stroke="black" stroke-dasharray="1,5" points="8,-32.8 8,-157.8 416,-157.8 416,-32.8 8,-32.8"/>
</g>
<g id="clust2" class="cluster">
<title>cluster_WorkersampleModule_declarations</title>
<polygon fill="none" stroke="black" points="228,-40.8 228,-92.8 408,-92.8 408,-40.8 228,-40.8"/>
</g>
<g id="clust4" class="cluster">
<title>cluster_WorkersampleModule_imports</title>
<polygon fill="none" stroke="black" points="16,-40.8 16,-92.8 220,-92.8 220,-40.8 16,-40.8"/>
</g>
<!-- WorkersampleComponent -->
<g id="node1" class="node">
<title>WorkersampleComponent</title>
<polygon fill="#ffffb3" stroke="black" points="399.74,-84.8 236.26,-84.8 236.26,-48.8 399.74,-48.8 399.74,-84.8"/>
<text text-anchor="middle" x="318" y="-62.6" font-family="Times,serif" font-size="14.00">WorkersampleComponent</text>
</g>
<!-- WorkersampleModule -->
<g id="node2" class="node">
<title>WorkersampleModule</title>
<polygon fill="#8dd3c7" stroke="black" points="288.96,-149.8 285.96,-153.8 264.96,-153.8 261.96,-149.8 147.04,-149.8 147.04,-113.8 288.96,-113.8 288.96,-149.8"/>
<text text-anchor="middle" x="218" y="-127.6" font-family="Times,serif" font-size="14.00">WorkersampleModule</text>
</g>
<!-- WorkersampleComponent&#45;&gt;WorkersampleModule -->
<g id="edge1" class="edge">
<title>WorkersampleComponent&#45;&gt;WorkersampleModule</title>
<path fill="none" stroke="black" d="M262.56,-84.91C262.56,-84.91 262.56,-103.79 262.56,-103.79"/>
<polygon fill="black" stroke="black" points="259.06,-103.79 262.56,-113.79 266.06,-103.79 259.06,-103.79"/>
</g>
<!-- WorkersampleRoutingModule -->
<g id="node3" class="node">
<title>WorkersampleRoutingModule</title>
<polygon fill="#8dd3c7" stroke="black" points="211.58,-84.8 208.58,-88.8 187.58,-88.8 184.58,-84.8 24.42,-84.8 24.42,-48.8 211.58,-48.8 211.58,-84.8"/>
<text text-anchor="middle" x="118" y="-62.6" font-family="Times,serif" font-size="14.00">WorkersampleRoutingModule</text>
</g>
<!-- WorkersampleRoutingModule&#45;&gt;WorkersampleModule -->
<g id="edge2" class="edge">
<title>WorkersampleRoutingModule&#45;&gt;WorkersampleModule</title>
<path fill="none" stroke="black" d="M179.28,-84.91C179.28,-84.91 179.28,-103.79 179.28,-103.79"/>
<polygon fill="black" stroke="black" points="175.78,-103.79 179.28,-113.79 182.78,-103.79 175.78,-103.79"/>
</g>
</g>
</svg>
