<?xml version="1.0" encoding="UTF-8" standalone="no"?>
<!DOCTYPE svg PUBLIC "-//W3C//DTD SVG 1.1//EN"
 "http://www.w3.org/Graphics/SVG/1.1/DTD/svg11.dtd">
<!-- Generated by graphviz version 5.0.0 (20220707.1540)
 -->
<!-- Title: dependencies Pages: 1 -->
<svg width="166pt" height="247pt"
 viewBox="0.00 0.00 166.00 246.80" xmlns="http://www.w3.org/2000/svg" xmlns:xlink="http://www.w3.org/1999/xlink">
<g id="graph0" class="graph" transform="scale(1 1) rotate(0) translate(4 242.8)">
<title>dependencies</title>
<polygon fill="white" stroke="transparent" points="-4,4 -4,-242.8 162,-242.8 162,4 -4,4"/>
<text text-anchor="middle" x="79" y="-8.2" font-family="sans-serif" font-size="14.00">dependencies</text>
<g id="clust1" class="cluster">
<title>cluster_ButtonModule</title>
<polygon fill="none" stroke="black" stroke-dasharray="1,5" points="8,-32.8 8,-230.8 150,-230.8 150,-32.8 8,-32.8"/>
</g>
<g id="clust2" class="cluster">
<title>cluster_ButtonModule_declarations</title>
<polygon fill="none" stroke="black" points="18,-40.8 18,-92.8 140,-92.8 140,-40.8 18,-40.8"/>
</g>
<g id="clust5" class="cluster">
<title>cluster_ButtonModule_exports</title>
<polygon fill="none" stroke="black" points="16,-170.8 16,-222.8 142,-222.8 142,-170.8 16,-170.8"/>
</g>
<!-- ButtonDirective -->
<g id="node1" class="node">
<title>ButtonDirective</title>
<polygon fill="#ffffb3" stroke="black" points="132.2,-84.8 25.8,-84.8 25.8,-48.8 132.2,-48.8 132.2,-84.8"/>
<text text-anchor="middle" x="79" y="-62.6" font-family="Times,serif" font-size="14.00">ButtonDirective</text>
</g>
<!-- ButtonModule -->
<g id="node2" class="node">
<title>ButtonModule</title>
<polygon fill="#8dd3c7" stroke="black" points="127.67,-149.8 124.67,-153.8 103.67,-153.8 100.67,-149.8 30.33,-149.8 30.33,-113.8 127.67,-113.8 127.67,-149.8"/>
<text text-anchor="middle" x="79" y="-127.6" font-family="Times,serif" font-size="14.00">ButtonModule</text>
</g>
<!-- ButtonDirective&#45;&gt;ButtonModule -->
<g id="edge1" class="edge">
<title>ButtonDirective&#45;&gt;ButtonModule</title>
<path fill="none" stroke="black" d="M79,-84.91C79,-84.91 79,-103.79 79,-103.79"/>
<polygon fill="black" stroke="black" points="75.5,-103.79 79,-113.79 82.5,-103.79 75.5,-103.79"/>
</g>
<!-- ButtonDirective  -->
<g id="node3" class="node">
<title>ButtonDirective </title>
<polygon fill="#fb8072" stroke="black" points="133.7,-214.8 24.3,-214.8 24.3,-178.8 133.7,-178.8 133.7,-214.8"/>
<text text-anchor="middle" x="79" y="-192.6" font-family="Times,serif" font-size="14.00">ButtonDirective </text>
</g>
<!-- ButtonModule&#45;&gt;ButtonDirective  -->
<g id="edge2" class="edge">
<title>ButtonModule&#45;&gt;ButtonDirective </title>
<path fill="none" stroke="black" stroke-dasharray="5,2" d="M79,-149.91C79,-149.91 79,-168.79 79,-168.79"/>
<polygon fill="black" stroke="black" points="75.5,-168.79 79,-178.79 82.5,-168.79 75.5,-168.79"/>
</g>
</g>
</svg>
