<?xml version="1.0" encoding="UTF-8" standalone="no"?>
<!DOCTYPE svg PUBLIC "-//W3C//DTD SVG 1.1//EN"
 "http://www.w3.org/Graphics/SVG/1.1/DTD/svg11.dtd">
<!-- Generated by graphviz version 5.0.0 (20220707.1540)
 -->
<!-- Title: dependencies Pages: 1 -->
<svg width="1437pt" height="247pt"
 viewBox="0.00 0.00 1437.00 246.80" xmlns="http://www.w3.org/2000/svg" xmlns:xlink="http://www.w3.org/1999/xlink">
<g id="graph0" class="graph" transform="scale(1 1) rotate(0) translate(4 242.8)">
<title>dependencies</title>
<polygon fill="white" stroke="transparent" points="-4,4 -4,-242.8 1433,-242.8 1433,4 -4,4"/>
<text text-anchor="middle" x="714.5" y="-8.2" font-family="sans-serif" font-size="14.00">dependencies</text>
<g id="clust1" class="cluster">
<title>cluster_WeatherForecastModule</title>
<polygon fill="none" stroke="black" stroke-dasharray="1,5" points="8,-32.8 8,-230.8 1421,-230.8 1421,-32.8 8,-32.8"/>
</g>
<g id="clust2" class="cluster">
<title>cluster_WeatherForecastModule_declarations</title>
<polygon fill="none" stroke="black" points="190,-40.8 190,-92.8 1413,-92.8 1413,-40.8 190,-40.8"/>
</g>
<g id="clust9" class="cluster">
<title>cluster_WeatherForecastModule_imports</title>
<polygon fill="none" stroke="black" points="16,-40.8 16,-92.8 182,-92.8 182,-40.8 16,-40.8"/>
</g>
<g id="clust10" class="cluster">
<title>cluster_WeatherForecastModule_exports</title>
<polygon fill="none" stroke="black" points="652,-170.8 652,-222.8 860,-222.8 860,-170.8 652,-170.8"/>
</g>
<!-- FiltersComponent -->
<g id="node1" class="node">
<title>FiltersComponent</title>
<polygon fill="#ffffb3" stroke="black" points="1404.61,-84.8 1287.39,-84.8 1287.39,-48.8 1404.61,-48.8 1404.61,-84.8"/>
<text text-anchor="middle" x="1346" y="-62.6" font-family="Times,serif" font-size="14.00">FiltersComponent</text>
</g>
<!-- WeatherForecastModule -->
<g id="node7" class="node">
<title>WeatherForecastModule</title>
<polygon fill="#8dd3c7" stroke="black" points="833.39,-149.8 830.39,-153.8 809.39,-153.8 806.39,-149.8 678.61,-149.8 678.61,-113.8 833.39,-113.8 833.39,-149.8"/>
<text text-anchor="middle" x="756" y="-127.6" font-family="Times,serif" font-size="14.00">WeatherForecastModule</text>
</g>
<!-- FiltersComponent&#45;&gt;WeatherForecastModule -->
<g id="edge1" class="edge">
<title>FiltersComponent&#45;&gt;WeatherForecastModule</title>
<path fill="none" stroke="black" d="M1346,-85.09C1346,-107.01 1346,-140.8 1346,-140.8 1346,-140.8 843.44,-140.8 843.44,-140.8"/>
<polygon fill="black" stroke="black" points="843.44,-137.3 833.44,-140.8 843.44,-144.3 843.44,-137.3"/>
</g>
<!-- WeatherDashboardComponent -->
<g id="node2" class="node">
<title>WeatherDashboardComponent</title>
<polygon fill="#ffffb3" stroke="black" points="1269.89,-84.8 1080.11,-84.8 1080.11,-48.8 1269.89,-48.8 1269.89,-84.8"/>
<text text-anchor="middle" x="1175" y="-62.6" font-family="Times,serif" font-size="14.00">WeatherDashboardComponent</text>
</g>
<!-- WeatherDashboardComponent&#45;&gt;WeatherForecastModule -->
<g id="edge2" class="edge">
<title>WeatherDashboardComponent&#45;&gt;WeatherForecastModule</title>
<path fill="none" stroke="black" d="M1175,-84.91C1175,-104.14 1175,-131.8 1175,-131.8 1175,-131.8 843.34,-131.8 843.34,-131.8"/>
<polygon fill="black" stroke="black" points="843.34,-128.3 833.34,-131.8 843.34,-135.3 843.34,-128.3"/>
</g>
<!-- WeatherForecastCityComponent -->
<g id="node3" class="node">
<title>WeatherForecastCityComponent</title>
<polygon fill="#ffffb3" stroke="black" points="1062.28,-84.8 861.72,-84.8 861.72,-48.8 1062.28,-48.8 1062.28,-84.8"/>
<text text-anchor="middle" x="962" y="-62.6" font-family="Times,serif" font-size="14.00">WeatherForecastCityComponent</text>
</g>
<!-- WeatherForecastCityComponent&#45;&gt;WeatherForecastModule -->
<g id="edge3" class="edge">
<title>WeatherForecastCityComponent&#45;&gt;WeatherForecastModule</title>
<path fill="none" stroke="black" d="M962,-84.83C962,-101.2 962,-122.8 962,-122.8 962,-122.8 843.29,-122.8 843.29,-122.8"/>
<polygon fill="black" stroke="black" points="843.29,-119.3 833.29,-122.8 843.29,-126.3 843.29,-119.3"/>
</g>
<!-- WeatherForecastComponent -->
<g id="node4" class="node">
<title>WeatherForecastComponent</title>
<polygon fill="#ffffb3" stroke="black" points="844.17,-84.8 667.83,-84.8 667.83,-48.8 844.17,-48.8 844.17,-84.8"/>
<text text-anchor="middle" x="756" y="-62.6" font-family="Times,serif" font-size="14.00">WeatherForecastComponent</text>
</g>
<!-- WeatherForecastComponent&#45;&gt;WeatherForecastModule -->
<g id="edge4" class="edge">
<title>WeatherForecastComponent&#45;&gt;WeatherForecastModule</title>
<path fill="none" stroke="black" d="M756,-84.91C756,-84.91 756,-103.79 756,-103.79"/>
<polygon fill="black" stroke="black" points="752.5,-103.79 756,-113.79 759.5,-103.79 752.5,-103.79"/>
</g>
<!-- WeatherForecastDetailsComponent -->
<g id="node5" class="node">
<title>WeatherForecastDetailsComponent</title>
<polygon fill="#ffffb3" stroke="black" points="649.82,-84.8 434.18,-84.8 434.18,-48.8 649.82,-48.8 649.82,-84.8"/>
<text text-anchor="middle" x="542" y="-62.6" font-family="Times,serif" font-size="14.00">WeatherForecastDetailsComponent</text>
</g>
<!-- WeatherForecastDetailsComponent&#45;&gt;WeatherForecastModule -->
<g id="edge5" class="edge">
<title>WeatherForecastDetailsComponent&#45;&gt;WeatherForecastModule</title>
<path fill="none" stroke="black" d="M542,-84.83C542,-101.2 542,-122.8 542,-122.8 542,-122.8 668.74,-122.8 668.74,-122.8"/>
<polygon fill="black" stroke="black" points="668.74,-126.3 678.74,-122.8 668.74,-119.3 668.74,-126.3"/>
</g>
<!-- WeatherForecastHistoryComponent -->
<g id="node6" class="node">
<title>WeatherForecastHistoryComponent</title>
<polygon fill="#ffffb3" stroke="black" points="416.17,-84.8 197.83,-84.8 197.83,-48.8 416.17,-48.8 416.17,-84.8"/>
<text text-anchor="middle" x="307" y="-62.6" font-family="Times,serif" font-size="14.00">WeatherForecastHistoryComponent</text>
</g>
<!-- WeatherForecastHistoryComponent&#45;&gt;WeatherForecastModule -->
<g id="edge6" class="edge">
<title>WeatherForecastHistoryComponent&#45;&gt;WeatherForecastModule</title>
<path fill="none" stroke="black" d="M307,-84.91C307,-104.14 307,-131.8 307,-131.8 307,-131.8 668.56,-131.8 668.56,-131.8"/>
<polygon fill="black" stroke="black" points="668.56,-135.3 678.56,-131.8 668.56,-128.3 668.56,-135.3"/>
</g>
<!-- WeatherDashboardComponent  -->
<g id="node9" class="node">
<title>WeatherDashboardComponent </title>
<polygon fill="#fb8072" stroke="black" points="852.39,-214.8 659.61,-214.8 659.61,-178.8 852.39,-178.8 852.39,-214.8"/>
<text text-anchor="middle" x="756" y="-192.6" font-family="Times,serif" font-size="14.00">WeatherDashboardComponent </text>
</g>
<!-- WeatherForecastModule&#45;&gt;WeatherDashboardComponent  -->
<g id="edge8" class="edge">
<title>WeatherForecastModule&#45;&gt;WeatherDashboardComponent </title>
<path fill="none" stroke="black" stroke-dasharray="5,2" d="M756,-149.91C756,-149.91 756,-168.79 756,-168.79"/>
<polygon fill="black" stroke="black" points="752.5,-168.79 756,-178.79 759.5,-168.79 752.5,-168.79"/>
</g>
<!-- CustomMaterialModule -->
<g id="node8" class="node">
<title>CustomMaterialModule</title>
<polygon fill="#8dd3c7" stroke="black" points="174.04,-84.8 171.04,-88.8 150.04,-88.8 147.04,-84.8 23.96,-84.8 23.96,-48.8 174.04,-48.8 174.04,-84.8"/>
<text text-anchor="middle" x="99" y="-62.6" font-family="Times,serif" font-size="14.00">CustomMaterialModule</text>
</g>
<!-- CustomMaterialModule&#45;&gt;WeatherForecastModule -->
<g id="edge7" class="edge">
<title>CustomMaterialModule&#45;&gt;WeatherForecastModule</title>
<path fill="none" stroke="black" d="M99,-85.09C99,-107.01 99,-140.8 99,-140.8 99,-140.8 668.7,-140.8 668.7,-140.8"/>
<polygon fill="black" stroke="black" points="668.7,-144.3 678.7,-140.8 668.7,-137.3 668.7,-144.3"/>
</g>
</g>
</svg>
