<?xml version="1.0" encoding="UTF-8" standalone="no"?>
<!DOCTYPE svg PUBLIC "-//W3C//DTD SVG 1.1//EN"
 "http://www.w3.org/Graphics/SVG/1.1/DTD/svg11.dtd">
<!-- Generated by graphviz version 5.0.0 (20220707.1540)
 -->
<!-- Title: dependencies Pages: 1 -->
<svg width="1520pt" height="174pt"
 viewBox="0.00 0.00 1520.00 173.80" xmlns="http://www.w3.org/2000/svg" xmlns:xlink="http://www.w3.org/1999/xlink">
<g id="graph0" class="graph" transform="scale(1 1) rotate(0) translate(4 169.8)">
<title>dependencies</title>
<polygon fill="white" stroke="transparent" points="-4,4 -4,-169.8 1516,-169.8 1516,4 -4,4"/>
<text text-anchor="middle" x="756" y="-8.2" font-family="sans-serif" font-size="14.00">dependencies</text>
<g id="clust1" class="cluster">
<title>cluster_ProductsModule</title>
<polygon fill="none" stroke="black" stroke-dasharray="1,5" points="8,-32.8 8,-157.8 1504,-157.8 1504,-32.8 8,-32.8"/>
</g>
<g id="clust2" class="cluster">
<title>cluster_ProductsModule_declarations</title>
<polygon fill="none" stroke="black" points="310,-40.8 310,-92.8 1496,-92.8 1496,-40.8 310,-40.8"/>
</g>
<g id="clust10" class="cluster">
<title>cluster_ProductsModule_imports</title>
<polygon fill="none" stroke="black" points="16,-40.8 16,-92.8 302,-92.8 302,-40.8 16,-40.8"/>
</g>
<!-- PriceFilterWidgetComponent -->
<g id="node1" class="node">
<title>PriceFilterWidgetComponent</title>
<polygon fill="#ffffb3" stroke="black" points="1487.64,-84.8 1306.36,-84.8 1306.36,-48.8 1487.64,-48.8 1487.64,-84.8"/>
<text text-anchor="middle" x="1397" y="-62.6" font-family="Times,serif" font-size="14.00">PriceFilterWidgetComponent</text>
</g>
<!-- ProductsModule -->
<g id="node8" class="node">
<title>ProductsModule</title>
<polygon fill="#8dd3c7" stroke="black" points="767.05,-149.8 764.05,-153.8 743.05,-153.8 740.05,-149.8 658.95,-149.8 658.95,-113.8 767.05,-113.8 767.05,-149.8"/>
<text text-anchor="middle" x="713" y="-127.6" font-family="Times,serif" font-size="14.00">ProductsModule</text>
</g>
<!-- PriceFilterWidgetComponent&#45;&gt;ProductsModule -->
<g id="edge1" class="edge">
<title>PriceFilterWidgetComponent&#45;&gt;ProductsModule</title>
<path fill="none" stroke="black" d="M1397,-84.81C1397,-107.29 1397,-142.8 1397,-142.8 1397,-142.8 777.24,-142.8 777.24,-142.8"/>
<polygon fill="black" stroke="black" points="777.24,-139.3 767.24,-142.8 777.24,-146.3 777.24,-139.3"/>
</g>
<!-- ProductAddComponent -->
<g id="node2" class="node">
<title>ProductAddComponent</title>
<polygon fill="#ffffb3" stroke="black" points="1288.49,-84.8 1139.51,-84.8 1139.51,-48.8 1288.49,-48.8 1288.49,-84.8"/>
<text text-anchor="middle" x="1214" y="-62.6" font-family="Times,serif" font-size="14.00">ProductAddComponent</text>
</g>
<!-- ProductAddComponent&#45;&gt;ProductsModule -->
<g id="edge2" class="edge">
<title>ProductAddComponent&#45;&gt;ProductsModule</title>
<path fill="none" stroke="black" d="M1214,-84.93C1214,-105.37 1214,-135.8 1214,-135.8 1214,-135.8 777.09,-135.8 777.09,-135.8"/>
<polygon fill="black" stroke="black" points="777.09,-132.3 767.09,-135.8 777.09,-139.3 777.09,-132.3"/>
</g>
<!-- ProductEditComponent -->
<g id="node3" class="node">
<title>ProductEditComponent</title>
<polygon fill="#ffffb3" stroke="black" points="1121.21,-84.8 972.79,-84.8 972.79,-48.8 1121.21,-48.8 1121.21,-84.8"/>
<text text-anchor="middle" x="1047" y="-62.6" font-family="Times,serif" font-size="14.00">ProductEditComponent</text>
</g>
<!-- ProductEditComponent&#45;&gt;ProductsModule -->
<g id="edge3" class="edge">
<title>ProductEditComponent&#45;&gt;ProductsModule</title>
<path fill="none" stroke="black" d="M1047,-85.07C1047,-103.36 1047,-128.8 1047,-128.8 1047,-128.8 777.41,-128.8 777.41,-128.8"/>
<polygon fill="black" stroke="black" points="777.41,-125.3 767.41,-128.8 777.41,-132.3 777.41,-125.3"/>
</g>
<!-- ProductItemComponent -->
<g id="node4" class="node">
<title>ProductItemComponent</title>
<polygon fill="#ffffb3" stroke="black" points="955.04,-84.8 804.96,-84.8 804.96,-48.8 955.04,-48.8 955.04,-84.8"/>
<text text-anchor="middle" x="880" y="-62.6" font-family="Times,serif" font-size="14.00">ProductItemComponent</text>
</g>
<!-- ProductItemComponent&#45;&gt;ProductsModule -->
<g id="edge4" class="edge">
<title>ProductItemComponent&#45;&gt;ProductsModule</title>
<path fill="none" stroke="black" d="M880,-84.81C880,-100.85 880,-121.8 880,-121.8 880,-121.8 777.22,-121.8 777.22,-121.8"/>
<polygon fill="black" stroke="black" points="777.22,-118.3 767.22,-121.8 777.22,-125.3 777.22,-118.3"/>
</g>
<!-- ProductListComponent -->
<g id="node5" class="node">
<title>ProductListComponent</title>
<polygon fill="#ffffb3" stroke="black" points="786.16,-84.8 639.84,-84.8 639.84,-48.8 786.16,-48.8 786.16,-84.8"/>
<text text-anchor="middle" x="713" y="-62.6" font-family="Times,serif" font-size="14.00">ProductListComponent</text>
</g>
<!-- ProductListComponent&#45;&gt;ProductsModule -->
<g id="edge5" class="edge">
<title>ProductListComponent&#45;&gt;ProductsModule</title>
<path fill="none" stroke="black" d="M713,-84.91C713,-84.91 713,-103.79 713,-103.79"/>
<polygon fill="black" stroke="black" points="709.5,-103.79 713,-113.79 716.5,-103.79 709.5,-103.79"/>
</g>
<!-- ProductViewComponent -->
<g id="node6" class="node">
<title>ProductViewComponent</title>
<polygon fill="#ffffb3" stroke="black" points="621.71,-84.8 466.29,-84.8 466.29,-48.8 621.71,-48.8 621.71,-84.8"/>
<text text-anchor="middle" x="544" y="-62.6" font-family="Times,serif" font-size="14.00">ProductViewComponent</text>
</g>
<!-- ProductViewComponent&#45;&gt;ProductsModule -->
<g id="edge6" class="edge">
<title>ProductViewComponent&#45;&gt;ProductsModule</title>
<path fill="none" stroke="black" d="M544,-84.81C544,-100.85 544,-121.8 544,-121.8 544,-121.8 648.6,-121.8 648.6,-121.8"/>
<polygon fill="black" stroke="black" points="648.6,-125.3 658.6,-121.8 648.6,-118.3 648.6,-125.3"/>
</g>
<!-- ProductsComponent -->
<g id="node7" class="node">
<title>ProductsComponent</title>
<polygon fill="#ffffb3" stroke="black" points="448.33,-84.8 317.67,-84.8 317.67,-48.8 448.33,-48.8 448.33,-84.8"/>
<text text-anchor="middle" x="383" y="-62.6" font-family="Times,serif" font-size="14.00">ProductsComponent</text>
</g>
<!-- ProductsComponent&#45;&gt;ProductsModule -->
<g id="edge7" class="edge">
<title>ProductsComponent&#45;&gt;ProductsModule</title>
<path fill="none" stroke="black" d="M383,-85.07C383,-103.36 383,-128.8 383,-128.8 383,-128.8 648.88,-128.8 648.88,-128.8"/>
<polygon fill="black" stroke="black" points="648.88,-132.3 658.88,-128.8 648.88,-125.3 648.88,-132.3"/>
</g>
<!-- ProductsRoutingModule -->
<g id="node9" class="node">
<title>ProductsRoutingModule</title>
<polygon fill="#8dd3c7" stroke="black" points="293.67,-84.8 290.67,-88.8 269.67,-88.8 266.67,-84.8 140.33,-84.8 140.33,-48.8 293.67,-48.8 293.67,-84.8"/>
<text text-anchor="middle" x="217" y="-62.6" font-family="Times,serif" font-size="14.00">ProductsRoutingModule</text>
</g>
<!-- ProductsRoutingModule&#45;&gt;ProductsModule -->
<g id="edge8" class="edge">
<title>ProductsRoutingModule&#45;&gt;ProductsModule</title>
<path fill="none" stroke="black" d="M217,-84.93C217,-105.37 217,-135.8 217,-135.8 217,-135.8 648.5,-135.8 648.5,-135.8"/>
<polygon fill="black" stroke="black" points="648.5,-139.3 658.5,-135.8 648.5,-132.3 648.5,-139.3"/>
</g>
<!-- SharedModule -->
<g id="node10" class="node">
<title>SharedModule</title>
<polygon fill="#8dd3c7" stroke="black" points="122.43,-84.8 119.43,-88.8 98.43,-88.8 95.43,-84.8 23.57,-84.8 23.57,-48.8 122.43,-48.8 122.43,-84.8"/>
<text text-anchor="middle" x="73" y="-62.6" font-family="Times,serif" font-size="14.00">SharedModule</text>
</g>
<!-- SharedModule&#45;&gt;ProductsModule -->
<g id="edge9" class="edge">
<title>SharedModule&#45;&gt;ProductsModule</title>
<path fill="none" stroke="black" d="M73,-84.81C73,-107.29 73,-142.8 73,-142.8 73,-142.8 648.71,-142.8 648.71,-142.8"/>
<polygon fill="black" stroke="black" points="648.71,-146.3 658.71,-142.8 648.71,-139.3 648.71,-146.3"/>
</g>
</g>
</svg>
