<?xml version="1.0" encoding="UTF-8" standalone="no"?>
<!DOCTYPE svg PUBLIC "-//W3C//DTD SVG 1.1//EN"
 "http://www.w3.org/Graphics/SVG/1.1/DTD/svg11.dtd">
<!-- Generated by graphviz version 5.0.0 (20220707.1540)
 -->
<!-- Title: dependencies Pages: 1 -->
<svg width="443pt" height="174pt"
 viewBox="0.00 0.00 443.00 173.80" xmlns="http://www.w3.org/2000/svg" xmlns:xlink="http://www.w3.org/1999/xlink">
<g id="graph0" class="graph" transform="scale(1 1) rotate(0) translate(4 169.8)">
<title>dependencies</title>
<polygon fill="white" stroke="transparent" points="-4,4 -4,-169.8 439,-169.8 439,4 -4,4"/>
<text text-anchor="middle" x="217.5" y="-8.2" font-family="sans-serif" font-size="14.00">dependencies</text>
<g id="clust1" class="cluster">
<title>cluster_VsModule</title>
<polygon fill="none" stroke="black" stroke-dasharray="1,5" points="8,-32.8 8,-157.8 427,-157.8 427,-32.8 8,-32.8"/>
</g>
<g id="clust2" class="cluster">
<title>cluster_VsModule_declarations</title>
<polygon fill="none" stroke="black" points="160,-40.8 160,-92.8 419,-92.8 419,-40.8 160,-40.8"/>
</g>
<g id="clust5" class="cluster">
<title>cluster_VsModule_imports</title>
<polygon fill="none" stroke="black" points="16,-40.8 16,-92.8 152,-92.8 152,-40.8 16,-40.8"/>
</g>
<!-- VsComponent -->
<g id="node1" class="node">
<title>VsComponent</title>
<polygon fill="#ffffb3" stroke="black" points="411.39,-84.8 314.61,-84.8 314.61,-48.8 411.39,-48.8 411.39,-84.8"/>
<text text-anchor="middle" x="363" y="-62.6" font-family="Times,serif" font-size="14.00">VsComponent</text>
</g>
<!-- VsModule -->
<g id="node3" class="node">
<title>VsModule</title>
<polygon fill="#8dd3c7" stroke="black" points="269.61,-149.8 266.61,-153.8 245.61,-153.8 242.61,-149.8 194.39,-149.8 194.39,-113.8 269.61,-113.8 269.61,-149.8"/>
<text text-anchor="middle" x="232" y="-127.6" font-family="Times,serif" font-size="14.00">VsModule</text>
</g>
<!-- VsComponent&#45;&gt;VsModule -->
<g id="edge1" class="edge">
<title>VsComponent&#45;&gt;VsModule</title>
<path fill="none" stroke="black" d="M363,-84.91C363,-104.14 363,-131.8 363,-131.8 363,-131.8 279.89,-131.8 279.89,-131.8"/>
<polygon fill="black" stroke="black" points="279.89,-128.3 269.89,-131.8 279.89,-135.3 279.89,-128.3"/>
</g>
<!-- VsdumbComponent -->
<g id="node2" class="node">
<title>VsdumbComponent</title>
<polygon fill="#ffffb3" stroke="black" points="296.28,-84.8 167.72,-84.8 167.72,-48.8 296.28,-48.8 296.28,-84.8"/>
<text text-anchor="middle" x="232" y="-62.6" font-family="Times,serif" font-size="14.00">VsdumbComponent</text>
</g>
<!-- VsdumbComponent&#45;&gt;VsModule -->
<g id="edge2" class="edge">
<title>VsdumbComponent&#45;&gt;VsModule</title>
<path fill="none" stroke="black" d="M232,-84.91C232,-84.91 232,-103.79 232,-103.79"/>
<polygon fill="black" stroke="black" points="228.5,-103.79 232,-113.79 235.5,-103.79 228.5,-103.79"/>
</g>
<!-- VsRoutingModule -->
<g id="node4" class="node">
<title>VsRoutingModule</title>
<polygon fill="#8dd3c7" stroke="black" points="144.23,-84.8 141.23,-88.8 120.23,-88.8 117.23,-84.8 23.77,-84.8 23.77,-48.8 144.23,-48.8 144.23,-84.8"/>
<text text-anchor="middle" x="84" y="-62.6" font-family="Times,serif" font-size="14.00">VsRoutingModule</text>
</g>
<!-- VsRoutingModule&#45;&gt;VsModule -->
<g id="edge3" class="edge">
<title>VsRoutingModule&#45;&gt;VsModule</title>
<path fill="none" stroke="black" d="M84,-84.91C84,-104.14 84,-131.8 84,-131.8 84,-131.8 184.27,-131.8 184.27,-131.8"/>
<polygon fill="black" stroke="black" points="184.27,-135.3 194.27,-131.8 184.27,-128.3 184.27,-135.3"/>
</g>
</g>
</svg>
