<?xml version="1.0" encoding="UTF-8" standalone="no"?>
<!DOCTYPE svg PUBLIC "-//W3C//DTD SVG 1.1//EN"
 "http://www.w3.org/Graphics/SVG/1.1/DTD/svg11.dtd">
<!-- Generated by graphviz version 5.0.0 (20220707.1540)
 -->
<!-- Title: dependencies Pages: 1 -->
<svg width="914pt" height="174pt"
 viewBox="0.00 0.00 914.00 173.80" xmlns="http://www.w3.org/2000/svg" xmlns:xlink="http://www.w3.org/1999/xlink">
<g id="graph0" class="graph" transform="scale(1 1) rotate(0) translate(4 169.8)">
<title>dependencies</title>
<polygon fill="white" stroke="transparent" points="-4,4 -4,-169.8 910,-169.8 910,4 -4,4"/>
<text text-anchor="middle" x="453" y="-8.2" font-family="sans-serif" font-size="14.00">dependencies</text>
<g id="clust1" class="cluster">
<title>cluster_CategoryModule</title>
<polygon fill="none" stroke="black" stroke-dasharray="1,5" points="8,-32.8 8,-157.8 898,-157.8 898,-32.8 8,-32.8"/>
</g>
<g id="clust2" class="cluster">
<title>cluster_CategoryModule_declarations</title>
<polygon fill="none" stroke="black" points="196,-40.8 196,-92.8 890,-92.8 890,-40.8 196,-40.8"/>
</g>
<g id="clust7" class="cluster">
<title>cluster_CategoryModule_imports</title>
<polygon fill="none" stroke="black" points="16,-40.8 16,-92.8 188,-92.8 188,-40.8 16,-40.8"/>
</g>
<!-- CategoryAddComponent -->
<g id="node1" class="node">
<title>CategoryAddComponent</title>
<polygon fill="#ffffb3" stroke="black" points="882.26,-84.8 725.74,-84.8 725.74,-48.8 882.26,-48.8 882.26,-84.8"/>
<text text-anchor="middle" x="804" y="-62.6" font-family="Times,serif" font-size="14.00">CategoryAddComponent</text>
</g>
<!-- CategoryModule -->
<g id="node5" class="node">
<title>CategoryModule</title>
<polygon fill="#8dd3c7" stroke="black" points="510.37,-149.8 507.37,-153.8 486.37,-153.8 483.37,-149.8 399.63,-149.8 399.63,-113.8 510.37,-113.8 510.37,-149.8"/>
<text text-anchor="middle" x="455" y="-127.6" font-family="Times,serif" font-size="14.00">CategoryModule</text>
</g>
<!-- CategoryAddComponent&#45;&gt;CategoryModule -->
<g id="edge1" class="edge">
<title>CategoryAddComponent&#45;&gt;CategoryModule</title>
<path fill="none" stroke="black" d="M804,-85.08C804,-106.12 804,-137.8 804,-137.8 804,-137.8 520.69,-137.8 520.69,-137.8"/>
<polygon fill="black" stroke="black" points="520.69,-134.3 510.69,-137.8 520.69,-141.3 520.69,-134.3"/>
</g>
<!-- CategoryEditComponent -->
<g id="node2" class="node">
<title>CategoryEditComponent</title>
<polygon fill="#ffffb3" stroke="black" points="707.98,-84.8 552.02,-84.8 552.02,-48.8 707.98,-48.8 707.98,-84.8"/>
<text text-anchor="middle" x="630" y="-62.6" font-family="Times,serif" font-size="14.00">CategoryEditComponent</text>
</g>
<!-- CategoryEditComponent&#45;&gt;CategoryModule -->
<g id="edge2" class="edge">
<title>CategoryEditComponent&#45;&gt;CategoryModule</title>
<path fill="none" stroke="black" d="M630,-84.82C630,-102.17 630,-125.8 630,-125.8 630,-125.8 520.37,-125.8 520.37,-125.8"/>
<polygon fill="black" stroke="black" points="520.37,-122.3 510.37,-125.8 520.37,-129.3 520.37,-122.3"/>
</g>
<!-- CategoryItemComponent -->
<g id="node3" class="node">
<title>CategoryItemComponent</title>
<polygon fill="#ffffb3" stroke="black" points="534.3,-84.8 375.7,-84.8 375.7,-48.8 534.3,-48.8 534.3,-84.8"/>
<text text-anchor="middle" x="455" y="-62.6" font-family="Times,serif" font-size="14.00">CategoryItemComponent</text>
</g>
<!-- CategoryItemComponent&#45;&gt;CategoryModule -->
<g id="edge3" class="edge">
<title>CategoryItemComponent&#45;&gt;CategoryModule</title>
<path fill="none" stroke="black" d="M455,-84.91C455,-84.91 455,-103.79 455,-103.79"/>
<polygon fill="black" stroke="black" points="451.5,-103.79 455,-113.79 458.5,-103.79 451.5,-103.79"/>
</g>
<!-- CategoryListComponent -->
<g id="node4" class="node">
<title>CategoryListComponent</title>
<polygon fill="#ffffb3" stroke="black" points="358.43,-84.8 203.57,-84.8 203.57,-48.8 358.43,-48.8 358.43,-84.8"/>
<text text-anchor="middle" x="281" y="-62.6" font-family="Times,serif" font-size="14.00">CategoryListComponent</text>
</g>
<!-- CategoryListComponent&#45;&gt;CategoryModule -->
<g id="edge4" class="edge">
<title>CategoryListComponent&#45;&gt;CategoryModule</title>
<path fill="none" stroke="black" d="M281,-84.82C281,-102.17 281,-125.8 281,-125.8 281,-125.8 389.47,-125.8 389.47,-125.8"/>
<polygon fill="black" stroke="black" points="389.47,-129.3 399.47,-125.8 389.47,-122.3 389.47,-129.3"/>
</g>
<!-- CategoryRoutingModule -->
<g id="node6" class="node">
<title>CategoryRoutingModule</title>
<polygon fill="#8dd3c7" stroke="black" points="179.99,-84.8 176.99,-88.8 155.99,-88.8 152.99,-84.8 24.01,-84.8 24.01,-48.8 179.99,-48.8 179.99,-84.8"/>
<text text-anchor="middle" x="102" y="-62.6" font-family="Times,serif" font-size="14.00">CategoryRoutingModule</text>
</g>
<!-- CategoryRoutingModule&#45;&gt;CategoryModule -->
<g id="edge5" class="edge">
<title>CategoryRoutingModule&#45;&gt;CategoryModule</title>
<path fill="none" stroke="black" d="M102,-85.08C102,-106.12 102,-137.8 102,-137.8 102,-137.8 389.46,-137.8 389.46,-137.8"/>
<polygon fill="black" stroke="black" points="389.46,-141.3 399.46,-137.8 389.46,-134.3 389.46,-141.3"/>
</g>
</g>
</svg>
