<?xml version="1.0" encoding="UTF-8" standalone="no"?>
<!DOCTYPE svg PUBLIC "-//W3C//DTD SVG 1.1//EN"
 "http://www.w3.org/Graphics/SVG/1.1/DTD/svg11.dtd">
<!-- Generated by graphviz version 5.0.0 (20220707.1540)
 -->
<!-- Title: dependencies Pages: 1 -->
<svg width="178pt" height="174pt"
 viewBox="0.00 0.00 178.00 173.80" xmlns="http://www.w3.org/2000/svg" xmlns:xlink="http://www.w3.org/1999/xlink">
<g id="graph0" class="graph" transform="scale(1 1) rotate(0) translate(4 169.8)">
<title>dependencies</title>
<polygon fill="white" stroke="transparent" points="-4,4 -4,-169.8 174,-169.8 174,4 -4,4"/>
<text text-anchor="middle" x="85" y="-8.2" font-family="sans-serif" font-size="14.00">dependencies</text>
<g id="clust1" class="cluster">
<title>cluster_MyListModule</title>
<polygon fill="none" stroke="black" stroke-dasharray="1,5" points="8,-32.8 8,-157.8 162,-157.8 162,-32.8 8,-32.8"/>
</g>
<g id="clust2" class="cluster">
<title>cluster_MyListModule_declarations</title>
<polygon fill="none" stroke="black" points="16,-40.8 16,-92.8 154,-92.8 154,-40.8 16,-40.8"/>
</g>
<!-- MyListComponent -->
<g id="node1" class="node">
<title>MyListComponent</title>
<polygon fill="#ffffb3" stroke="black" points="146.06,-84.8 23.94,-84.8 23.94,-48.8 146.06,-48.8 146.06,-84.8"/>
<text text-anchor="middle" x="85" y="-62.6" font-family="Times,serif" font-size="14.00">MyListComponent</text>
</g>
<!-- MyListModule -->
<g id="node2" class="node">
<title>MyListModule</title>
<polygon fill="#8dd3c7" stroke="black" points="135.28,-149.8 132.28,-153.8 111.28,-153.8 108.28,-149.8 34.72,-149.8 34.72,-113.8 135.28,-113.8 135.28,-149.8"/>
<text text-anchor="middle" x="85" y="-127.6" font-family="Times,serif" font-size="14.00">MyListModule</text>
</g>
<!-- MyListComponent&#45;&gt;MyListModule -->
<g id="edge1" class="edge">
<title>MyListComponent&#45;&gt;MyListModule</title>
<path fill="none" stroke="black" d="M85,-84.91C85,-84.91 85,-103.79 85,-103.79"/>
<polygon fill="black" stroke="black" points="81.5,-103.79 85,-113.79 88.5,-103.79 81.5,-103.79"/>
</g>
</g>
</svg>
