<?xml version="1.0" encoding="UTF-8" standalone="no"?>
<!DOCTYPE svg PUBLIC "-//W3C//DTD SVG 1.1//EN"
 "http://www.w3.org/Graphics/SVG/1.1/DTD/svg11.dtd">
<!-- Generated by graphviz version 5.0.0 (20220707.1540)
 -->
<!-- Title: dependencies Pages: 1 -->
<svg width="452pt" height="174pt"
 viewBox="0.00 0.00 452.00 173.80" xmlns="http://www.w3.org/2000/svg" xmlns:xlink="http://www.w3.org/1999/xlink">
<g id="graph0" class="graph" transform="scale(1 1) rotate(0) translate(4 169.8)">
<title>dependencies</title>
<polygon fill="white" stroke="transparent" points="-4,4 -4,-169.8 448,-169.8 448,4 -4,4"/>
<text text-anchor="middle" x="222" y="-8.2" font-family="sans-serif" font-size="14.00">dependencies</text>
<g id="clust1" class="cluster">
<title>cluster_WithoutCachingModule</title>
<polygon fill="none" stroke="black" stroke-dasharray="1,5" points="8,-32.8 8,-157.8 436,-157.8 436,-32.8 8,-32.8"/>
</g>
<g id="clust2" class="cluster">
<title>cluster_WithoutCachingModule_declarations</title>
<polygon fill="none" stroke="black" points="238,-40.8 238,-92.8 428,-92.8 428,-40.8 238,-40.8"/>
</g>
<g id="clust4" class="cluster">
<title>cluster_WithoutCachingModule_imports</title>
<polygon fill="none" stroke="black" points="16,-40.8 16,-92.8 230,-92.8 230,-40.8 16,-40.8"/>
</g>
<!-- WithoutCachingComponent -->
<g id="node1" class="node">
<title>WithoutCachingComponent</title>
<polygon fill="#ffffb3" stroke="black" points="419.87,-84.8 246.13,-84.8 246.13,-48.8 419.87,-48.8 419.87,-84.8"/>
<text text-anchor="middle" x="333" y="-62.6" font-family="Times,serif" font-size="14.00">WithoutCachingComponent</text>
</g>
<!-- WithoutCachingModule -->
<g id="node2" class="node">
<title>WithoutCachingModule</title>
<polygon fill="#8dd3c7" stroke="black" points="304.09,-149.8 301.09,-153.8 280.09,-153.8 277.09,-149.8 151.91,-149.8 151.91,-113.8 304.09,-113.8 304.09,-149.8"/>
<text text-anchor="middle" x="228" y="-127.6" font-family="Times,serif" font-size="14.00">WithoutCachingModule</text>
</g>
<!-- WithoutCachingComponent&#45;&gt;WithoutCachingModule -->
<g id="edge1" class="edge">
<title>WithoutCachingComponent&#45;&gt;WithoutCachingModule</title>
<path fill="none" stroke="black" d="M275.06,-84.91C275.06,-84.91 275.06,-103.79 275.06,-103.79"/>
<polygon fill="black" stroke="black" points="271.56,-103.79 275.06,-113.79 278.56,-103.79 271.56,-103.79"/>
</g>
<!-- WithoutCachingRoutingModule -->
<g id="node3" class="node">
<title>WithoutCachingRoutingModule</title>
<polygon fill="#8dd3c7" stroke="black" points="221.71,-84.8 218.71,-88.8 197.71,-88.8 194.71,-84.8 24.29,-84.8 24.29,-48.8 221.71,-48.8 221.71,-84.8"/>
<text text-anchor="middle" x="123" y="-62.6" font-family="Times,serif" font-size="14.00">WithoutCachingRoutingModule</text>
</g>
<!-- WithoutCachingRoutingModule&#45;&gt;WithoutCachingModule -->
<g id="edge2" class="edge">
<title>WithoutCachingRoutingModule&#45;&gt;WithoutCachingModule</title>
<path fill="none" stroke="black" d="M186.78,-84.91C186.78,-84.91 186.78,-103.79 186.78,-103.79"/>
<polygon fill="black" stroke="black" points="183.28,-103.79 186.78,-113.79 190.28,-103.79 183.28,-103.79"/>
</g>
</g>
</svg>
