<?xml version="1.0" encoding="UTF-8" standalone="no"?>
<!DOCTYPE svg PUBLIC "-//W3C//DTD SVG 1.1//EN"
 "http://www.w3.org/Graphics/SVG/1.1/DTD/svg11.dtd">
<!-- Generated by graphviz version 5.0.0 (20220707.1540)
 -->
<!-- Title: dependencies Pages: 1 -->
<svg width="601pt" height="174pt"
 viewBox="0.00 0.00 601.00 173.80" xmlns="http://www.w3.org/2000/svg" xmlns:xlink="http://www.w3.org/1999/xlink">
<g id="graph0" class="graph" transform="scale(1 1) rotate(0) translate(4 169.8)">
<title>dependencies</title>
<polygon fill="white" stroke="transparent" points="-4,4 -4,-169.8 597,-169.8 597,4 -4,4"/>
<text text-anchor="middle" x="296.5" y="-8.2" font-family="sans-serif" font-size="14.00">dependencies</text>
<g id="clust1" class="cluster">
<title>cluster_Zippy1Module</title>
<polygon fill="none" stroke="black" stroke-dasharray="1,5" points="8,-32.8 8,-157.8 585,-157.8 585,-32.8 8,-32.8"/>
</g>
<g id="clust4" class="cluster">
<title>cluster_Zippy1Module_imports</title>
<polygon fill="none" stroke="black" points="162,-40.8 162,-92.8 577,-92.8 577,-40.8 162,-40.8"/>
</g>
<g id="clust2" class="cluster">
<title>cluster_Zippy1Module_declarations</title>
<polygon fill="none" stroke="black" points="16,-40.8 16,-92.8 154,-92.8 154,-40.8 16,-40.8"/>
</g>
<!-- Zippy1Component -->
<g id="node1" class="node">
<title>Zippy1Component</title>
<polygon fill="#ffffb3" stroke="black" points="145.77,-84.8 24.23,-84.8 24.23,-48.8 145.77,-48.8 145.77,-84.8"/>
<text text-anchor="middle" x="85" y="-62.6" font-family="Times,serif" font-size="14.00">Zippy1Component</text>
</g>
<!-- Zippy1Module -->
<g id="node2" class="node">
<title>Zippy1Module</title>
<polygon fill="#8dd3c7" stroke="black" points="355.99,-149.8 352.99,-153.8 331.99,-153.8 328.99,-149.8 256.01,-149.8 256.01,-113.8 355.99,-113.8 355.99,-149.8"/>
<text text-anchor="middle" x="306" y="-127.6" font-family="Times,serif" font-size="14.00">Zippy1Module</text>
</g>
<!-- Zippy1Component&#45;&gt;Zippy1Module -->
<g id="edge1" class="edge">
<title>Zippy1Component&#45;&gt;Zippy1Module</title>
<path fill="none" stroke="black" d="M85,-84.91C85,-104.14 85,-131.8 85,-131.8 85,-131.8 245.85,-131.8 245.85,-131.8"/>
<polygon fill="black" stroke="black" points="245.85,-135.3 255.85,-131.8 245.85,-128.3 245.85,-135.3"/>
</g>
<!-- NoscamSharedModule -->
<g id="node3" class="node">
<title>NoscamSharedModule</title>
<polygon fill="#8dd3c7" stroke="black" points="569.3,-84.8 566.3,-88.8 545.3,-88.8 542.3,-84.8 424.7,-84.8 424.7,-48.8 569.3,-48.8 569.3,-84.8"/>
<text text-anchor="middle" x="497" y="-62.6" font-family="Times,serif" font-size="14.00">NoscamSharedModule</text>
</g>
<!-- NoscamSharedModule&#45;&gt;Zippy1Module -->
<g id="edge2" class="edge">
<title>NoscamSharedModule&#45;&gt;Zippy1Module</title>
<path fill="none" stroke="black" d="M497,-84.91C497,-104.14 497,-131.8 497,-131.8 497,-131.8 366.18,-131.8 366.18,-131.8"/>
<polygon fill="black" stroke="black" points="366.18,-128.3 356.18,-131.8 366.18,-135.3 366.18,-128.3"/>
</g>
<!-- UiModule -->
<g id="node4" class="node">
<title>UiModule</title>
<polygon fill="#8dd3c7" stroke="black" points="406.55,-84.8 403.55,-88.8 382.55,-88.8 379.55,-84.8 333.45,-84.8 333.45,-48.8 406.55,-48.8 406.55,-84.8"/>
<text text-anchor="middle" x="370" y="-62.6" font-family="Times,serif" font-size="14.00">UiModule</text>
</g>
<!-- UiModule&#45;&gt;Zippy1Module -->
<g id="edge3" class="edge">
<title>UiModule&#45;&gt;Zippy1Module</title>
<path fill="none" stroke="black" d="M344.61,-84.91C344.61,-84.91 344.61,-103.79 344.61,-103.79"/>
<polygon fill="black" stroke="black" points="341.11,-103.79 344.61,-113.79 348.11,-103.79 341.11,-103.79"/>
</g>
<!-- Zippy1RoutingModule -->
<g id="node5" class="node">
<title>Zippy1RoutingModule</title>
<polygon fill="#8dd3c7" stroke="black" points="315.61,-84.8 312.61,-88.8 291.61,-88.8 288.61,-84.8 170.39,-84.8 170.39,-48.8 315.61,-48.8 315.61,-84.8"/>
<text text-anchor="middle" x="243" y="-62.6" font-family="Times,serif" font-size="14.00">Zippy1RoutingModule</text>
</g>
<!-- Zippy1RoutingModule&#45;&gt;Zippy1Module -->
<g id="edge4" class="edge">
<title>Zippy1RoutingModule&#45;&gt;Zippy1Module</title>
<path fill="none" stroke="black" d="M285.78,-84.91C285.78,-84.91 285.78,-103.79 285.78,-103.79"/>
<polygon fill="black" stroke="black" points="282.28,-103.79 285.78,-113.79 289.28,-103.79 282.28,-103.79"/>
</g>
</g>
</svg>
