<?xml version="1.0" encoding="UTF-8" standalone="no"?>
<!DOCTYPE svg PUBLIC "-//W3C//DTD SVG 1.1//EN"
 "http://www.w3.org/Graphics/SVG/1.1/DTD/svg11.dtd">
<!-- Generated by graphviz version 5.0.0 (20220707.1540)
 -->
<!-- Title: dependencies Pages: 1 -->
<svg width="601pt" height="174pt"
 viewBox="0.00 0.00 601.00 173.80" xmlns="http://www.w3.org/2000/svg" xmlns:xlink="http://www.w3.org/1999/xlink">
<g id="graph0" class="graph" transform="scale(1 1) rotate(0) translate(4 169.8)">
<title>dependencies</title>
<polygon fill="white" stroke="transparent" points="-4,4 -4,-169.8 597,-169.8 597,4 -4,4"/>
<text text-anchor="middle" x="296.5" y="-8.2" font-family="sans-serif" font-size="14.00">dependencies</text>
<g id="clust1" class="cluster">
<title>cluster_Zippy1Module</title>
<polygon fill="none" stroke="black" stroke-dasharray="1,5" points="8,-32.8 8,-157.8 585,-157.8 585,-32.8 8,-32.8"/>
</g>
<g id="clust2" class="cluster">
<title>cluster_Zippy1Module_declarations</title>
<polygon fill="none" stroke="black" points="439,-40.8 439,-92.8 577,-92.8 577,-40.8 439,-40.8"/>
</g>
<g id="clust4" class="cluster">
<title>cluster_Zippy1Module_imports</title>
<polygon fill="none" stroke="black" points="16,-40.8 16,-92.8 431,-92.8 431,-40.8 16,-40.8"/>
</g>
<!-- Zippy1Component -->
<g id="node1" class="node">
<title>Zippy1Component</title>
<polygon fill="#ffffb3" stroke="black" points="568.77,-84.8 447.23,-84.8 447.23,-48.8 568.77,-48.8 568.77,-84.8"/>
<text text-anchor="middle" x="508" y="-62.6" font-family="Times,serif" font-size="14.00">Zippy1Component</text>
</g>
<!-- Zippy1Module -->
<g id="node2" class="node">
<title>Zippy1Module</title>
<polygon fill="#8dd3c7" stroke="black" points="336.99,-149.8 333.99,-153.8 312.99,-153.8 309.99,-149.8 237.01,-149.8 237.01,-113.8 336.99,-113.8 336.99,-149.8"/>
<text text-anchor="middle" x="287" y="-127.6" font-family="Times,serif" font-size="14.00">Zippy1Module</text>
</g>
<!-- Zippy1Component&#45;&gt;Zippy1Module -->
<g id="edge1" class="edge">
<title>Zippy1Component&#45;&gt;Zippy1Module</title>
<path fill="none" stroke="black" d="M508,-84.91C508,-104.14 508,-131.8 508,-131.8 508,-131.8 347.15,-131.8 347.15,-131.8"/>
<polygon fill="black" stroke="black" points="347.15,-128.3 337.15,-131.8 347.15,-135.3 347.15,-128.3"/>
</g>
<!-- NoscamSharedModule -->
<g id="node3" class="node">
<title>NoscamSharedModule</title>
<polygon fill="#8dd3c7" stroke="black" points="423.3,-84.8 420.3,-88.8 399.3,-88.8 396.3,-84.8 278.7,-84.8 278.7,-48.8 423.3,-48.8 423.3,-84.8"/>
<text text-anchor="middle" x="351" y="-62.6" font-family="Times,serif" font-size="14.00">NoscamSharedModule</text>
</g>
<!-- NoscamSharedModule&#45;&gt;Zippy1Module -->
<g id="edge2" class="edge">
<title>NoscamSharedModule&#45;&gt;Zippy1Module</title>
<path fill="none" stroke="black" d="M307.92,-84.91C307.92,-84.91 307.92,-103.79 307.92,-103.79"/>
<polygon fill="black" stroke="black" points="304.42,-103.79 307.92,-113.79 311.42,-103.79 304.42,-103.79"/>
</g>
<!-- UiModule -->
<g id="node4" class="node">
<title>UiModule</title>
<polygon fill="#8dd3c7" stroke="black" points="260.55,-84.8 257.55,-88.8 236.55,-88.8 233.55,-84.8 187.45,-84.8 187.45,-48.8 260.55,-48.8 260.55,-84.8"/>
<text text-anchor="middle" x="224" y="-62.6" font-family="Times,serif" font-size="14.00">UiModule</text>
</g>
<!-- UiModule&#45;&gt;Zippy1Module -->
<g id="edge3" class="edge">
<title>UiModule&#45;&gt;Zippy1Module</title>
<path fill="none" stroke="black" d="M248.89,-84.91C248.89,-84.91 248.89,-103.79 248.89,-103.79"/>
<polygon fill="black" stroke="black" points="245.39,-103.79 248.89,-113.79 252.39,-103.79 245.39,-103.79"/>
</g>
<!-- Zippy1RoutingModule -->
<g id="node5" class="node">
<title>Zippy1RoutingModule</title>
<polygon fill="#8dd3c7" stroke="black" points="169.61,-84.8 166.61,-88.8 145.61,-88.8 142.61,-84.8 24.39,-84.8 24.39,-48.8 169.61,-48.8 169.61,-84.8"/>
<text text-anchor="middle" x="97" y="-62.6" font-family="Times,serif" font-size="14.00">Zippy1RoutingModule</text>
</g>
<!-- Zippy1RoutingModule&#45;&gt;Zippy1Module -->
<g id="edge4" class="edge">
<title>Zippy1RoutingModule&#45;&gt;Zippy1Module</title>
<path fill="none" stroke="black" d="M97,-84.91C97,-104.14 97,-131.8 97,-131.8 97,-131.8 226.58,-131.8 226.58,-131.8"/>
<polygon fill="black" stroke="black" points="226.58,-135.3 236.58,-131.8 226.58,-128.3 226.58,-135.3"/>
</g>
</g>
</svg>
