<?xml version="1.0" encoding="UTF-8" standalone="no"?>
<!DOCTYPE svg PUBLIC "-//W3C//DTD SVG 1.1//EN"
 "http://www.w3.org/Graphics/SVG/1.1/DTD/svg11.dtd">
<!-- Generated by graphviz version 5.0.0 (20220707.1540)
 -->
<!-- Title: dependencies Pages: 1 -->
<svg width="380pt" height="174pt"
 viewBox="0.00 0.00 380.00 173.80" xmlns="http://www.w3.org/2000/svg" xmlns:xlink="http://www.w3.org/1999/xlink">
<g id="graph0" class="graph" transform="scale(1 1) rotate(0) translate(4 169.8)">
<title>dependencies</title>
<polygon fill="white" stroke="transparent" points="-4,4 -4,-169.8 376,-169.8 376,4 -4,4"/>
<text text-anchor="middle" x="186" y="-8.2" font-family="sans-serif" font-size="14.00">dependencies</text>
<g id="clust1" class="cluster">
<title>cluster_AgSimpleModule</title>
<polygon fill="none" stroke="black" stroke-dasharray="1,5" points="8,-32.8 8,-157.8 364,-157.8 364,-32.8 8,-32.8"/>
</g>
<g id="clust2" class="cluster">
<title>cluster_AgSimpleModule_declarations</title>
<polygon fill="none" stroke="black" points="202,-40.8 202,-92.8 356,-92.8 356,-40.8 202,-40.8"/>
</g>
<g id="clust4" class="cluster">
<title>cluster_AgSimpleModule_imports</title>
<polygon fill="none" stroke="black" points="16,-40.8 16,-92.8 194,-92.8 194,-40.8 16,-40.8"/>
</g>
<!-- AgSimpleComponent -->
<g id="node1" class="node">
<title>AgSimpleComponent</title>
<polygon fill="#ffffb3" stroke="black" points="348.11,-84.8 209.89,-84.8 209.89,-48.8 348.11,-48.8 348.11,-84.8"/>
<text text-anchor="middle" x="279" y="-62.6" font-family="Times,serif" font-size="14.00">AgSimpleComponent</text>
</g>
<!-- AgSimpleModule -->
<g id="node2" class="node">
<title>AgSimpleModule</title>
<polygon fill="#8dd3c7" stroke="black" points="250.33,-149.8 247.33,-153.8 226.33,-153.8 223.33,-149.8 133.67,-149.8 133.67,-113.8 250.33,-113.8 250.33,-149.8"/>
<text text-anchor="middle" x="192" y="-127.6" font-family="Times,serif" font-size="14.00">AgSimpleModule</text>
</g>
<!-- AgSimpleComponent&#45;&gt;AgSimpleModule -->
<g id="edge1" class="edge">
<title>AgSimpleComponent&#45;&gt;AgSimpleModule</title>
<path fill="none" stroke="black" d="M230.06,-84.91C230.06,-84.91 230.06,-103.79 230.06,-103.79"/>
<polygon fill="black" stroke="black" points="226.56,-103.79 230.06,-113.79 233.56,-103.79 226.56,-103.79"/>
</g>
<!-- AgSimpleRoutingModule -->
<g id="node3" class="node">
<title>AgSimpleRoutingModule</title>
<polygon fill="#8dd3c7" stroke="black" points="185.95,-84.8 182.95,-88.8 161.95,-88.8 158.95,-84.8 24.05,-84.8 24.05,-48.8 185.95,-48.8 185.95,-84.8"/>
<text text-anchor="middle" x="105" y="-62.6" font-family="Times,serif" font-size="14.00">AgSimpleRoutingModule</text>
</g>
<!-- AgSimpleRoutingModule&#45;&gt;AgSimpleModule -->
<g id="edge2" class="edge">
<title>AgSimpleRoutingModule&#45;&gt;AgSimpleModule</title>
<path fill="none" stroke="black" d="M159.78,-84.91C159.78,-84.91 159.78,-103.79 159.78,-103.79"/>
<polygon fill="black" stroke="black" points="156.28,-103.79 159.78,-113.79 163.28,-103.79 156.28,-103.79"/>
</g>
</g>
</svg>
