<?xml version="1.0" encoding="UTF-8" standalone="no"?>
<!DOCTYPE svg PUBLIC "-//W3C//DTD SVG 1.1//EN"
 "http://www.w3.org/Graphics/SVG/1.1/DTD/svg11.dtd">
<!-- Generated by graphviz version 5.0.0 (20220707.1540)
 -->
<!-- Title: dependencies Pages: 1 -->
<svg width="1236pt" height="174pt"
 viewBox="0.00 0.00 1236.00 173.80" xmlns="http://www.w3.org/2000/svg" xmlns:xlink="http://www.w3.org/1999/xlink">
<g id="graph0" class="graph" transform="scale(1 1) rotate(0) translate(4 169.8)">
<title>dependencies</title>
<polygon fill="white" stroke="transparent" points="-4,4 -4,-169.8 1232,-169.8 1232,4 -4,4"/>
<text text-anchor="middle" x="614" y="-8.2" font-family="sans-serif" font-size="14.00">dependencies</text>
<g id="clust1" class="cluster">
<title>cluster_PerformanceModule</title>
<polygon fill="none" stroke="black" stroke-dasharray="1,5" points="8,-32.8 8,-157.8 1220,-157.8 1220,-32.8 8,-32.8"/>
</g>
<g id="clust2" class="cluster">
<title>cluster_PerformanceModule_declarations</title>
<polygon fill="none" stroke="black" points="338,-40.8 338,-92.8 1212,-92.8 1212,-40.8 338,-40.8"/>
</g>
<g id="clust8" class="cluster">
<title>cluster_PerformanceModule_imports</title>
<polygon fill="none" stroke="black" points="16,-40.8 16,-92.8 330,-92.8 330,-40.8 16,-40.8"/>
</g>
<!-- AvoidFunctionCallComponent -->
<g id="node1" class="node">
<title>AvoidFunctionCallComponent</title>
<polygon fill="#ffffb3" stroke="black" points="1203.94,-84.8 1014.06,-84.8 1014.06,-48.8 1203.94,-48.8 1203.94,-84.8"/>
<text text-anchor="middle" x="1109" y="-62.6" font-family="Times,serif" font-size="14.00">AvoidFunctionCallComponent</text>
</g>
<!-- PerformanceModule -->
<g id="node6" class="node">
<title>PerformanceModule</title>
<polygon fill="#8dd3c7" stroke="black" points="628.57,-149.8 625.57,-153.8 604.57,-153.8 601.57,-149.8 497.43,-149.8 497.43,-113.8 628.57,-113.8 628.57,-149.8"/>
<text text-anchor="middle" x="563" y="-127.6" font-family="Times,serif" font-size="14.00">PerformanceModule</text>
</g>
<!-- AvoidFunctionCallComponent&#45;&gt;PerformanceModule -->
<g id="edge1" class="edge">
<title>AvoidFunctionCallComponent&#45;&gt;PerformanceModule</title>
<path fill="none" stroke="black" d="M1109,-85.09C1109,-107.01 1109,-140.8 1109,-140.8 1109,-140.8 638.59,-140.8 638.59,-140.8"/>
<polygon fill="black" stroke="black" points="638.59,-137.3 628.59,-140.8 638.59,-144.3 638.59,-137.3"/>
</g>
<!-- JustMatTableComponent -->
<g id="node2" class="node">
<title>JustMatTableComponent</title>
<polygon fill="#ffffb3" stroke="black" points="996.54,-84.8 839.46,-84.8 839.46,-48.8 996.54,-48.8 996.54,-84.8"/>
<text text-anchor="middle" x="918" y="-62.6" font-family="Times,serif" font-size="14.00">JustMatTableComponent</text>
</g>
<!-- JustMatTableComponent&#45;&gt;PerformanceModule -->
<g id="edge2" class="edge">
<title>JustMatTableComponent&#45;&gt;PerformanceModule</title>
<path fill="none" stroke="black" d="M918,-84.91C918,-104.14 918,-131.8 918,-131.8 918,-131.8 638.94,-131.8 638.94,-131.8"/>
<polygon fill="black" stroke="black" points="638.94,-128.3 628.94,-131.8 638.94,-135.3 638.94,-128.3"/>
</g>
<!-- NgforTrackByComponent -->
<g id="node3" class="node">
<title>NgforTrackByComponent</title>
<polygon fill="#ffffb3" stroke="black" points="820.75,-84.8 657.25,-84.8 657.25,-48.8 820.75,-48.8 820.75,-84.8"/>
<text text-anchor="middle" x="739" y="-62.6" font-family="Times,serif" font-size="14.00">NgforTrackByComponent</text>
</g>
<!-- NgforTrackByComponent&#45;&gt;PerformanceModule -->
<g id="edge3" class="edge">
<title>NgforTrackByComponent&#45;&gt;PerformanceModule</title>
<path fill="none" stroke="black" d="M739,-84.83C739,-101.2 739,-122.8 739,-122.8 739,-122.8 638.54,-122.8 638.54,-122.8"/>
<polygon fill="black" stroke="black" points="638.54,-119.3 628.54,-122.8 638.54,-126.3 638.54,-119.3"/>
</g>
<!-- PerformanceComponent -->
<g id="node4" class="node">
<title>PerformanceComponent</title>
<polygon fill="#ffffb3" stroke="black" points="639.35,-84.8 486.65,-84.8 486.65,-48.8 639.35,-48.8 639.35,-84.8"/>
<text text-anchor="middle" x="563" y="-62.6" font-family="Times,serif" font-size="14.00">PerformanceComponent</text>
</g>
<!-- PerformanceComponent&#45;&gt;PerformanceModule -->
<g id="edge4" class="edge">
<title>PerformanceComponent&#45;&gt;PerformanceModule</title>
<path fill="none" stroke="black" d="M563,-84.91C563,-84.91 563,-103.79 563,-103.79"/>
<polygon fill="black" stroke="black" points="559.5,-103.79 563,-113.79 566.5,-103.79 559.5,-103.79"/>
</g>
<!-- ReturnSymbolPipe -->
<g id="node5" class="node">
<title>ReturnSymbolPipe</title>
<polygon fill="#ffffb3" stroke="black" points="468.06,-84.8 345.94,-84.8 345.94,-48.8 468.06,-48.8 468.06,-84.8"/>
<text text-anchor="middle" x="407" y="-62.6" font-family="Times,serif" font-size="14.00">ReturnSymbolPipe</text>
</g>
<!-- ReturnSymbolPipe&#45;&gt;PerformanceModule -->
<g id="edge5" class="edge">
<title>ReturnSymbolPipe&#45;&gt;PerformanceModule</title>
<path fill="none" stroke="black" d="M407,-84.83C407,-101.2 407,-122.8 407,-122.8 407,-122.8 487.29,-122.8 487.29,-122.8"/>
<polygon fill="black" stroke="black" points="487.29,-126.3 497.29,-122.8 487.29,-119.3 487.29,-126.3"/>
</g>
<!-- PerformanceRoutingModule -->
<g id="node7" class="node">
<title>PerformanceRoutingModule</title>
<polygon fill="#8dd3c7" stroke="black" points="322.19,-84.8 319.19,-88.8 298.19,-88.8 295.19,-84.8 145.81,-84.8 145.81,-48.8 322.19,-48.8 322.19,-84.8"/>
<text text-anchor="middle" x="234" y="-62.6" font-family="Times,serif" font-size="14.00">PerformanceRoutingModule</text>
</g>
<!-- PerformanceRoutingModule&#45;&gt;PerformanceModule -->
<g id="edge6" class="edge">
<title>PerformanceRoutingModule&#45;&gt;PerformanceModule</title>
<path fill="none" stroke="black" d="M234,-84.91C234,-104.14 234,-131.8 234,-131.8 234,-131.8 487.21,-131.8 487.21,-131.8"/>
<polygon fill="black" stroke="black" points="487.21,-135.3 497.21,-131.8 487.21,-128.3 487.21,-135.3"/>
</g>
<!-- ToolbarModule -->
<g id="node8" class="node">
<title>ToolbarModule</title>
<polygon fill="#8dd3c7" stroke="black" points="127.87,-84.8 124.87,-88.8 103.87,-88.8 100.87,-84.8 24.13,-84.8 24.13,-48.8 127.87,-48.8 127.87,-84.8"/>
<text text-anchor="middle" x="76" y="-62.6" font-family="Times,serif" font-size="14.00">ToolbarModule</text>
</g>
<!-- ToolbarModule&#45;&gt;PerformanceModule -->
<g id="edge7" class="edge">
<title>ToolbarModule&#45;&gt;PerformanceModule</title>
<path fill="none" stroke="black" d="M76,-85.09C76,-107.01 76,-140.8 76,-140.8 76,-140.8 487.32,-140.8 487.32,-140.8"/>
<polygon fill="black" stroke="black" points="487.32,-144.3 497.32,-140.8 487.32,-137.3 487.32,-144.3"/>
</g>
</g>
</svg>
