<?xml version="1.0" encoding="UTF-8" standalone="no"?>
<!DOCTYPE svg PUBLIC "-//W3C//DTD SVG 1.1//EN"
 "http://www.w3.org/Graphics/SVG/1.1/DTD/svg11.dtd">
<!-- Generated by graphviz version 5.0.0 (20220707.1540)
 -->
<!-- Title: dependencies Pages: 1 -->
<svg width="1069pt" height="174pt"
 viewBox="0.00 0.00 1069.00 173.80" xmlns="http://www.w3.org/2000/svg" xmlns:xlink="http://www.w3.org/1999/xlink">
<g id="graph0" class="graph" transform="scale(1 1) rotate(0) translate(4 169.8)">
<title>dependencies</title>
<polygon fill="white" stroke="transparent" points="-4,4 -4,-169.8 1065,-169.8 1065,4 -4,4"/>
<text text-anchor="middle" x="530.5" y="-8.2" font-family="sans-serif" font-size="14.00">dependencies</text>
<g id="clust1" class="cluster">
<title>cluster_SearchSortPaginateModule</title>
<polygon fill="none" stroke="black" stroke-dasharray="1,5" points="8,-32.8 8,-157.8 1053,-157.8 1053,-32.8 8,-32.8"/>
</g>
<g id="clust2" class="cluster">
<title>cluster_SearchSortPaginateModule_declarations</title>
<polygon fill="none" stroke="black" points="254,-40.8 254,-92.8 1045,-92.8 1045,-40.8 254,-40.8"/>
</g>
<g id="clust9" class="cluster">
<title>cluster_SearchSortPaginateModule_imports</title>
<polygon fill="none" stroke="black" points="16,-40.8 16,-92.8 246,-92.8 246,-40.8 16,-40.8"/>
</g>
<!-- BackendComponent -->
<g id="node1" class="node">
<title>BackendComponent</title>
<polygon fill="#ffffb3" stroke="black" points="1037.31,-84.8 906.69,-84.8 906.69,-48.8 1037.31,-48.8 1037.31,-84.8"/>
<text text-anchor="middle" x="972" y="-62.6" font-family="Times,serif" font-size="14.00">BackendComponent</text>
</g>
<!-- SearchSortPaginateModule -->
<g id="node7" class="node">
<title>SearchSortPaginateModule</title>
<polygon fill="#8dd3c7" stroke="black" points="677.69,-149.8 674.69,-153.8 653.69,-153.8 650.69,-149.8 508.31,-149.8 508.31,-113.8 677.69,-113.8 677.69,-149.8"/>
<text text-anchor="middle" x="593" y="-127.6" font-family="Times,serif" font-size="14.00">SearchSortPaginateModule</text>
</g>
<!-- BackendComponent&#45;&gt;SearchSortPaginateModule -->
<g id="edge1" class="edge">
<title>BackendComponent&#45;&gt;SearchSortPaginateModule</title>
<path fill="none" stroke="black" d="M972,-85.08C972,-106.12 972,-137.8 972,-137.8 972,-137.8 688.05,-137.8 688.05,-137.8"/>
<polygon fill="black" stroke="black" points="688.06,-134.3 678.05,-137.8 688.05,-141.3 688.06,-134.3"/>
</g>
<!-- FrontendComponent -->
<g id="node2" class="node">
<title>FrontendComponent</title>
<polygon fill="#ffffb3" stroke="black" points="888.88,-84.8 757.12,-84.8 757.12,-48.8 888.88,-48.8 888.88,-84.8"/>
<text text-anchor="middle" x="823" y="-62.6" font-family="Times,serif" font-size="14.00">FrontendComponent</text>
</g>
<!-- FrontendComponent&#45;&gt;SearchSortPaginateModule -->
<g id="edge2" class="edge">
<title>FrontendComponent&#45;&gt;SearchSortPaginateModule</title>
<path fill="none" stroke="black" d="M823,-84.82C823,-102.17 823,-125.8 823,-125.8 823,-125.8 687.66,-125.8 687.66,-125.8"/>
<polygon fill="black" stroke="black" points="687.66,-122.3 677.66,-125.8 687.66,-129.3 687.66,-122.3"/>
</g>
<!-- PaginatePipe -->
<g id="node3" class="node">
<title>PaginatePipe</title>
<polygon fill="#ffffb3" stroke="black" points="739.6,-84.8 650.4,-84.8 650.4,-48.8 739.6,-48.8 739.6,-84.8"/>
<text text-anchor="middle" x="695" y="-62.6" font-family="Times,serif" font-size="14.00">PaginatePipe</text>
</g>
<!-- PaginatePipe&#45;&gt;SearchSortPaginateModule -->
<g id="edge3" class="edge">
<title>PaginatePipe&#45;&gt;SearchSortPaginateModule</title>
<path fill="none" stroke="black" d="M664.02,-84.91C664.02,-84.91 664.02,-103.79 664.02,-103.79"/>
<polygon fill="black" stroke="black" points="660.52,-103.79 664.02,-113.79 667.52,-103.79 660.52,-103.79"/>
</g>
<!-- SearchPipe -->
<g id="node4" class="node">
<title>SearchPipe</title>
<polygon fill="#ffffb3" stroke="black" points="632.48,-84.8 553.52,-84.8 553.52,-48.8 632.48,-48.8 632.48,-84.8"/>
<text text-anchor="middle" x="593" y="-62.6" font-family="Times,serif" font-size="14.00">SearchPipe</text>
</g>
<!-- SearchPipe&#45;&gt;SearchSortPaginateModule -->
<g id="edge4" class="edge">
<title>SearchPipe&#45;&gt;SearchSortPaginateModule</title>
<path fill="none" stroke="black" d="M593,-84.91C593,-84.91 593,-103.79 593,-103.79"/>
<polygon fill="black" stroke="black" points="589.5,-103.79 593,-113.79 596.5,-103.79 589.5,-103.79"/>
</g>
<!-- SearchSortPaginateComponent -->
<g id="node5" class="node">
<title>SearchSortPaginateComponent</title>
<polygon fill="#ffffb3" stroke="black" points="535.47,-84.8 344.53,-84.8 344.53,-48.8 535.47,-48.8 535.47,-84.8"/>
<text text-anchor="middle" x="440" y="-62.6" font-family="Times,serif" font-size="14.00">SearchSortPaginateComponent</text>
</g>
<!-- SearchSortPaginateComponent&#45;&gt;SearchSortPaginateModule -->
<g id="edge5" class="edge">
<title>SearchSortPaginateComponent&#45;&gt;SearchSortPaginateModule</title>
<path fill="none" stroke="black" d="M521.94,-84.91C521.94,-84.91 521.94,-103.79 521.94,-103.79"/>
<polygon fill="black" stroke="black" points="518.44,-103.79 521.94,-113.79 525.44,-103.79 518.44,-103.79"/>
</g>
<!-- SortPipe -->
<g id="node6" class="node">
<title>SortPipe</title>
<polygon fill="#ffffb3" stroke="black" points="326.23,-84.8 261.77,-84.8 261.77,-48.8 326.23,-48.8 326.23,-84.8"/>
<text text-anchor="middle" x="294" y="-62.6" font-family="Times,serif" font-size="14.00">SortPipe</text>
</g>
<!-- SortPipe&#45;&gt;SearchSortPaginateModule -->
<g id="edge6" class="edge">
<title>SortPipe&#45;&gt;SearchSortPaginateModule</title>
<path fill="none" stroke="black" d="M294,-84.82C294,-102.17 294,-125.8 294,-125.8 294,-125.8 498.12,-125.8 498.12,-125.8"/>
<polygon fill="black" stroke="black" points="498.12,-129.3 508.12,-125.8 498.12,-122.3 498.12,-129.3"/>
</g>
<!-- SearchSortPaginateRoutingModule -->
<g id="node8" class="node">
<title>SearchSortPaginateRoutingModule</title>
<polygon fill="#8dd3c7" stroke="black" points="238.3,-84.8 235.3,-88.8 214.3,-88.8 211.3,-84.8 23.7,-84.8 23.7,-48.8 238.3,-48.8 238.3,-84.8"/>
<text text-anchor="middle" x="131" y="-62.6" font-family="Times,serif" font-size="14.00">SearchSortPaginateRoutingModule</text>
</g>
<!-- SearchSortPaginateRoutingModule&#45;&gt;SearchSortPaginateModule -->
<g id="edge7" class="edge">
<title>SearchSortPaginateRoutingModule&#45;&gt;SearchSortPaginateModule</title>
<path fill="none" stroke="black" d="M131,-85.08C131,-106.12 131,-137.8 131,-137.8 131,-137.8 498.26,-137.8 498.26,-137.8"/>
<polygon fill="black" stroke="black" points="498.26,-141.3 508.26,-137.8 498.26,-134.3 498.26,-141.3"/>
</g>
</g>
</svg>
