<?xml version="1.0" encoding="UTF-8" standalone="no"?>
<!DOCTYPE svg PUBLIC "-//W3C//DTD SVG 1.1//EN"
 "http://www.w3.org/Graphics/SVG/1.1/DTD/svg11.dtd">
<!-- Generated by graphviz version 5.0.0 (20220707.1540)
 -->
<!-- Title: dependencies Pages: 1 -->
<svg width="190pt" height="174pt"
 viewBox="0.00 0.00 190.00 173.80" xmlns="http://www.w3.org/2000/svg" xmlns:xlink="http://www.w3.org/1999/xlink">
<g id="graph0" class="graph" transform="scale(1 1) rotate(0) translate(4 169.8)">
<title>dependencies</title>
<polygon fill="white" stroke="transparent" points="-4,4 -4,-169.8 186,-169.8 186,4 -4,4"/>
<text text-anchor="middle" x="91" y="-8.2" font-family="sans-serif" font-size="14.00">dependencies</text>
<g id="clust1" class="cluster">
<title>cluster_MyVideoModule</title>
<polygon fill="none" stroke="black" stroke-dasharray="1,5" points="8,-32.8 8,-157.8 174,-157.8 174,-32.8 8,-32.8"/>
</g>
<g id="clust2" class="cluster">
<title>cluster_MyVideoModule_declarations</title>
<polygon fill="none" stroke="black" points="16,-40.8 16,-92.8 166,-92.8 166,-40.8 16,-40.8"/>
</g>
<!-- MyVideoComponent -->
<g id="node1" class="node">
<title>MyVideoComponent</title>
<polygon fill="#ffffb3" stroke="black" points="158.49,-84.8 23.51,-84.8 23.51,-48.8 158.49,-48.8 158.49,-84.8"/>
<text text-anchor="middle" x="91" y="-62.6" font-family="Times,serif" font-size="14.00">MyVideoComponent</text>
</g>
<!-- MyVideoModule -->
<g id="node2" class="node">
<title>MyVideoModule</title>
<polygon fill="#8dd3c7" stroke="black" points="147.71,-149.8 144.71,-153.8 123.71,-153.8 120.71,-149.8 34.29,-149.8 34.29,-113.8 147.71,-113.8 147.71,-149.8"/>
<text text-anchor="middle" x="91" y="-127.6" font-family="Times,serif" font-size="14.00">MyVideoModule</text>
</g>
<!-- MyVideoComponent&#45;&gt;MyVideoModule -->
<g id="edge1" class="edge">
<title>MyVideoComponent&#45;&gt;MyVideoModule</title>
<path fill="none" stroke="black" d="M91,-84.91C91,-84.91 91,-103.79 91,-103.79"/>
<polygon fill="black" stroke="black" points="87.5,-103.79 91,-113.79 94.5,-103.79 87.5,-103.79"/>
</g>
</g>
</svg>
