<?xml version="1.0" encoding="UTF-8" standalone="no"?>
<!DOCTYPE svg PUBLIC "-//W3C//DTD SVG 1.1//EN"
 "http://www.w3.org/Graphics/SVG/1.1/DTD/svg11.dtd">
<!-- Generated by graphviz version 5.0.0 (20220707.1540)
 -->
<!-- Title: dependencies Pages: 1 -->
<svg width="1024pt" height="174pt"
 viewBox="0.00 0.00 1024.00 173.80" xmlns="http://www.w3.org/2000/svg" xmlns:xlink="http://www.w3.org/1999/xlink">
<g id="graph0" class="graph" transform="scale(1 1) rotate(0) translate(4 169.8)">
<title>dependencies</title>
<polygon fill="white" stroke="transparent" points="-4,4 -4,-169.8 1020,-169.8 1020,4 -4,4"/>
<text text-anchor="middle" x="508" y="-8.2" font-family="sans-serif" font-size="14.00">dependencies</text>
<g id="clust1" class="cluster">
<title>cluster_IntersectionObserverModule</title>
<polygon fill="none" stroke="black" stroke-dasharray="1,5" points="8,-32.8 8,-157.8 1008,-157.8 1008,-32.8 8,-32.8"/>
</g>
<g id="clust2" class="cluster">
<title>cluster_IntersectionObserverModule_declarations</title>
<polygon fill="none" stroke="black" points="510,-40.8 510,-92.8 1000,-92.8 1000,-40.8 510,-40.8"/>
</g>
<g id="clust6" class="cluster">
<title>cluster_IntersectionObserverModule_imports</title>
<polygon fill="none" stroke="black" points="16,-40.8 16,-92.8 502,-92.8 502,-40.8 16,-40.8"/>
</g>
<!-- DemoComponent -->
<g id="node1" class="node">
<title>DemoComponent</title>
<polygon fill="#ffffb3" stroke="black" points="991.55,-84.8 876.45,-84.8 876.45,-48.8 991.55,-48.8 991.55,-84.8"/>
<text text-anchor="middle" x="934" y="-62.6" font-family="Times,serif" font-size="14.00">DemoComponent</text>
</g>
<!-- IntersectionObserverModule -->
<g id="node4" class="node">
<title>IntersectionObserverModule</title>
<polygon fill="#8dd3c7" stroke="black" points="668.45,-149.8 665.45,-153.8 644.45,-153.8 641.45,-149.8 491.55,-149.8 491.55,-113.8 668.45,-113.8 668.45,-149.8"/>
<text text-anchor="middle" x="580" y="-127.6" font-family="Times,serif" font-size="14.00">IntersectionObserverModule</text>
</g>
<!-- DemoComponent&#45;&gt;IntersectionObserverModule -->
<g id="edge1" class="edge">
<title>DemoComponent&#45;&gt;IntersectionObserverModule</title>
<path fill="none" stroke="black" d="M934,-84.91C934,-104.14 934,-131.8 934,-131.8 934,-131.8 678.87,-131.8 678.87,-131.8"/>
<polygon fill="black" stroke="black" points="678.87,-128.3 668.87,-131.8 678.87,-135.3 678.87,-128.3"/>
</g>
<!-- IntersectionObserverComponent -->
<g id="node2" class="node">
<title>IntersectionObserverComponent</title>
<polygon fill="#ffffb3" stroke="black" points="858.22,-84.8 659.78,-84.8 659.78,-48.8 858.22,-48.8 858.22,-84.8"/>
<text text-anchor="middle" x="759" y="-62.6" font-family="Times,serif" font-size="14.00">IntersectionObserverComponent</text>
</g>
<!-- IntersectionObserverComponent&#45;&gt;IntersectionObserverModule -->
<g id="edge2" class="edge">
<title>IntersectionObserverComponent&#45;&gt;IntersectionObserverModule</title>
<path fill="none" stroke="black" d="M664.06,-84.91C664.06,-84.91 664.06,-103.79 664.06,-103.79"/>
<polygon fill="black" stroke="black" points="660.56,-103.79 664.06,-113.79 667.56,-103.79 660.56,-103.79"/>
</g>
<!-- SampleComponent -->
<g id="node3" class="node">
<title>SampleComponent</title>
<polygon fill="#ffffb3" stroke="black" points="641.82,-84.8 518.18,-84.8 518.18,-48.8 641.82,-48.8 641.82,-84.8"/>
<text text-anchor="middle" x="580" y="-62.6" font-family="Times,serif" font-size="14.00">SampleComponent</text>
</g>
<!-- SampleComponent&#45;&gt;IntersectionObserverModule -->
<g id="edge3" class="edge">
<title>SampleComponent&#45;&gt;IntersectionObserverModule</title>
<path fill="none" stroke="black" d="M580,-84.91C580,-84.91 580,-103.79 580,-103.79"/>
<polygon fill="black" stroke="black" points="576.5,-103.79 580,-113.79 583.5,-103.79 576.5,-103.79"/>
</g>
<!-- IntersectionObserverDirectiveModule -->
<g id="node5" class="node">
<title>IntersectionObserverDirectiveModule</title>
<polygon fill="#8dd3c7" stroke="black" points="493.53,-84.8 490.53,-88.8 469.53,-88.8 466.53,-84.8 264.47,-84.8 264.47,-48.8 493.53,-48.8 493.53,-84.8"/>
<text text-anchor="middle" x="379" y="-62.6" font-family="Times,serif" font-size="14.00">IntersectionObserverDirectiveModule</text>
</g>
<!-- IntersectionObserverDirectiveModule&#45;&gt;IntersectionObserverModule -->
<g id="edge4" class="edge">
<title>IntersectionObserverDirectiveModule&#45;&gt;IntersectionObserverModule</title>
<path fill="none" stroke="black" d="M493.76,-66.8C501.28,-66.8 505.93,-66.8 505.93,-66.8 505.93,-66.8 505.93,-103.69 505.93,-103.69"/>
<polygon fill="black" stroke="black" points="502.43,-103.69 505.93,-113.69 509.43,-103.69 502.43,-103.69"/>
</g>
<!-- IntersectionObserverRoutingModule -->
<g id="node6" class="node">
<title>IntersectionObserverRoutingModule</title>
<polygon fill="#8dd3c7" stroke="black" points="246.06,-84.8 243.06,-88.8 222.06,-88.8 219.06,-84.8 23.94,-84.8 23.94,-48.8 246.06,-48.8 246.06,-84.8"/>
<text text-anchor="middle" x="135" y="-62.6" font-family="Times,serif" font-size="14.00">IntersectionObserverRoutingModule</text>
</g>
<!-- IntersectionObserverRoutingModule&#45;&gt;IntersectionObserverModule -->
<g id="edge5" class="edge">
<title>IntersectionObserverRoutingModule&#45;&gt;IntersectionObserverModule</title>
<path fill="none" stroke="black" d="M135,-84.91C135,-104.14 135,-131.8 135,-131.8 135,-131.8 481.55,-131.8 481.55,-131.8"/>
<polygon fill="black" stroke="black" points="481.55,-135.3 491.55,-131.8 481.55,-128.3 481.55,-135.3"/>
</g>
</g>
</svg>
