<?xml version="1.0" encoding="UTF-8" standalone="no"?>
<!DOCTYPE svg PUBLIC "-//W3C//DTD SVG 1.1//EN"
 "http://www.w3.org/Graphics/SVG/1.1/DTD/svg11.dtd">
<!-- Generated by graphviz version 5.0.0 (20220707.1540)
 -->
<!-- Title: dependencies Pages: 1 -->
<svg width="505pt" height="247pt"
 viewBox="0.00 0.00 505.00 246.80" xmlns="http://www.w3.org/2000/svg" xmlns:xlink="http://www.w3.org/1999/xlink">
<g id="graph0" class="graph" transform="scale(1 1) rotate(0) translate(4 242.8)">
<title>dependencies</title>
<polygon fill="white" stroke="transparent" points="-4,4 -4,-242.8 501,-242.8 501,4 -4,4"/>
<text text-anchor="middle" x="248.5" y="-8.2" font-family="sans-serif" font-size="14.00">dependencies</text>
<g id="clust1" class="cluster">
<title>cluster_CartModule</title>
<polygon fill="none" stroke="black" stroke-dasharray="1,5" points="8,-32.8 8,-230.8 489,-230.8 489,-32.8 8,-32.8"/>
</g>
<g id="clust2" class="cluster">
<title>cluster_CartModule_declarations</title>
<polygon fill="none" stroke="black" points="168,-40.8 168,-92.8 481,-92.8 481,-40.8 168,-40.8"/>
</g>
<g id="clust6" class="cluster">
<title>cluster_CartModule_exports</title>
<polygon fill="none" stroke="black" points="50,-170.8 50,-222.8 448,-222.8 448,-170.8 50,-170.8"/>
</g>
<g id="clust5" class="cluster">
<title>cluster_CartModule_imports</title>
<polygon fill="none" stroke="black" points="16,-40.8 16,-92.8 160,-92.8 160,-40.8 16,-40.8"/>
</g>
<!-- CartComponent -->
<g id="node1" class="node">
<title>CartComponent</title>
<polygon fill="#ffffb3" stroke="black" points="472.94,-84.8 367.06,-84.8 367.06,-48.8 472.94,-48.8 472.94,-84.8"/>
<text text-anchor="middle" x="420" y="-62.6" font-family="Times,serif" font-size="14.00">CartComponent</text>
</g>
<!-- CartModule -->
<g id="node3" class="node">
<title>CartModule</title>
<polygon fill="#8dd3c7" stroke="black" points="304.66,-149.8 301.66,-153.8 280.66,-153.8 277.66,-149.8 221.34,-149.8 221.34,-113.8 304.66,-113.8 304.66,-149.8"/>
<text text-anchor="middle" x="263" y="-127.6" font-family="Times,serif" font-size="14.00">CartModule</text>
</g>
<!-- CartComponent&#45;&gt;CartModule -->
<g id="edge1" class="edge">
<title>CartComponent&#45;&gt;CartModule</title>
<path fill="none" stroke="black" d="M403.71,-84.91C403.71,-104.14 403.71,-131.8 403.71,-131.8 403.71,-131.8 314.84,-131.8 314.84,-131.8"/>
<polygon fill="black" stroke="black" points="314.84,-128.3 304.84,-131.8 314.84,-135.3 314.84,-128.3"/>
</g>
<!-- CartLinkWidgetComponent -->
<g id="node2" class="node">
<title>CartLinkWidgetComponent</title>
<polygon fill="#ffffb3" stroke="black" points="349.58,-84.8 176.42,-84.8 176.42,-48.8 349.58,-48.8 349.58,-84.8"/>
<text text-anchor="middle" x="263" y="-62.6" font-family="Times,serif" font-size="14.00">CartLinkWidgetComponent</text>
</g>
<!-- CartLinkWidgetComponent&#45;&gt;CartModule -->
<g id="edge2" class="edge">
<title>CartLinkWidgetComponent&#45;&gt;CartModule</title>
<path fill="none" stroke="black" d="M263,-84.91C263,-84.91 263,-103.79 263,-103.79"/>
<polygon fill="black" stroke="black" points="259.5,-103.79 263,-113.79 266.5,-103.79 259.5,-103.79"/>
</g>
<!-- CartButtonWidgetComponent  -->
<g id="node5" class="node">
<title>CartButtonWidgetComponent </title>
<polygon fill="#fb8072" stroke="black" points="440.26,-214.8 251.74,-214.8 251.74,-178.8 440.26,-178.8 440.26,-214.8"/>
<text text-anchor="middle" x="346" y="-192.6" font-family="Times,serif" font-size="14.00">CartButtonWidgetComponent </text>
</g>
<!-- CartModule&#45;&gt;CartButtonWidgetComponent  -->
<g id="edge4" class="edge">
<title>CartModule&#45;&gt;CartButtonWidgetComponent </title>
<path fill="none" stroke="black" stroke-dasharray="5,2" d="M278.35,-149.91C278.35,-149.91 278.35,-168.79 278.35,-168.79"/>
<polygon fill="black" stroke="black" points="274.85,-168.79 278.35,-178.79 281.85,-168.79 274.85,-168.79"/>
</g>
<!-- CartLinkWidgetComponent  -->
<g id="node6" class="node">
<title>CartLinkWidgetComponent </title>
<polygon fill="#fb8072" stroke="black" points="234.08,-214.8 57.92,-214.8 57.92,-178.8 234.08,-178.8 234.08,-214.8"/>
<text text-anchor="middle" x="146" y="-192.6" font-family="Times,serif" font-size="14.00">CartLinkWidgetComponent </text>
</g>
<!-- CartModule&#45;&gt;CartLinkWidgetComponent  -->
<g id="edge5" class="edge">
<title>CartModule&#45;&gt;CartLinkWidgetComponent </title>
<path fill="none" stroke="black" stroke-dasharray="5,2" d="M227.73,-149.91C227.73,-149.91 227.73,-168.79 227.73,-168.79"/>
<polygon fill="black" stroke="black" points="224.23,-168.79 227.73,-178.79 231.23,-168.79 224.23,-168.79"/>
</g>
<!-- CartRoutingModule -->
<g id="node4" class="node">
<title>CartRoutingModule</title>
<polygon fill="#8dd3c7" stroke="black" points="152.27,-84.8 149.27,-88.8 128.27,-88.8 125.27,-84.8 23.73,-84.8 23.73,-48.8 152.27,-48.8 152.27,-84.8"/>
<text text-anchor="middle" x="88" y="-62.6" font-family="Times,serif" font-size="14.00">CartRoutingModule</text>
</g>
<!-- CartRoutingModule&#45;&gt;CartModule -->
<g id="edge3" class="edge">
<title>CartRoutingModule&#45;&gt;CartModule</title>
<path fill="none" stroke="black" d="M105.05,-84.91C105.05,-104.14 105.05,-131.8 105.05,-131.8 105.05,-131.8 211.09,-131.8 211.09,-131.8"/>
<polygon fill="black" stroke="black" points="211.09,-135.3 221.09,-131.8 211.09,-128.3 211.09,-135.3"/>
</g>
</g>
</svg>
