<?xml version="1.0" encoding="UTF-8" standalone="no"?>
<!DOCTYPE svg PUBLIC "-//W3C//DTD SVG 1.1//EN"
 "http://www.w3.org/Graphics/SVG/1.1/DTD/svg11.dtd">
<!-- Generated by graphviz version 5.0.0 (20220707.1540)
 -->
<!-- Title: dependencies Pages: 1 -->
<svg width="923pt" height="247pt"
 viewBox="0.00 0.00 923.00 246.80" xmlns="http://www.w3.org/2000/svg" xmlns:xlink="http://www.w3.org/1999/xlink">
<g id="graph0" class="graph" transform="scale(1 1) rotate(0) translate(4 242.8)">
<title>dependencies</title>
<polygon fill="white" stroke="transparent" points="-4,4 -4,-242.8 919,-242.8 919,4 -4,4"/>
<text text-anchor="middle" x="457.5" y="-8.2" font-family="sans-serif" font-size="14.00">dependencies</text>
<g id="clust1" class="cluster">
<title>cluster_AppModule</title>
<polygon fill="none" stroke="black" stroke-dasharray="1,5" points="8,-32.8 8,-230.8 907,-230.8 907,-32.8 8,-32.8"/>
</g>
<g id="clust2" class="cluster">
<title>cluster_AppModule_declarations</title>
<polygon fill="none" stroke="black" points="639,-40.8 639,-92.8 899,-92.8 899,-40.8 639,-40.8"/>
</g>
<g id="clust8" class="cluster">
<title>cluster_AppModule_providers</title>
<polygon fill="none" stroke="black" points="280,-40.8 280,-92.8 631,-92.8 631,-40.8 280,-40.8"/>
</g>
<g id="clust5" class="cluster">
<title>cluster_AppModule_imports</title>
<polygon fill="none" stroke="black" points="16,-40.8 16,-92.8 272,-92.8 272,-40.8 16,-40.8"/>
</g>
<g id="clust7" class="cluster">
<title>cluster_AppModule_bootstrap</title>
<polygon fill="none" stroke="black" points="395,-170.8 395,-222.8 519,-222.8 519,-170.8 395,-170.8"/>
</g>
<!-- AppComponent -->
<g id="node1" class="node">
<title>AppComponent</title>
<polygon fill="#ffffb3" stroke="black" points="890.94,-84.8 785.06,-84.8 785.06,-48.8 890.94,-48.8 890.94,-84.8"/>
<text text-anchor="middle" x="838" y="-62.6" font-family="Times,serif" font-size="14.00">AppComponent</text>
</g>
<!-- AppModule -->
<g id="node3" class="node">
<title>AppModule</title>
<polygon fill="#8dd3c7" stroke="black" points="498.66,-149.8 495.66,-153.8 474.66,-153.8 471.66,-149.8 415.34,-149.8 415.34,-113.8 498.66,-113.8 498.66,-149.8"/>
<text text-anchor="middle" x="457" y="-127.6" font-family="Times,serif" font-size="14.00">AppModule</text>
</g>
<!-- AppComponent&#45;&gt;AppModule -->
<g id="edge1" class="edge">
<title>AppComponent&#45;&gt;AppModule</title>
<path fill="none" stroke="black" d="M838,-85.08C838,-106.12 838,-137.8 838,-137.8 838,-137.8 508.86,-137.8 508.86,-137.8"/>
<polygon fill="black" stroke="black" points="508.86,-134.3 498.86,-137.8 508.86,-141.3 508.86,-134.3"/>
</g>
<!-- LoaderComponent -->
<g id="node2" class="node">
<title>LoaderComponent</title>
<polygon fill="#ffffb3" stroke="black" points="767.47,-84.8 646.53,-84.8 646.53,-48.8 767.47,-48.8 767.47,-84.8"/>
<text text-anchor="middle" x="707" y="-62.6" font-family="Times,serif" font-size="14.00">LoaderComponent</text>
</g>
<!-- LoaderComponent&#45;&gt;AppModule -->
<g id="edge2" class="edge">
<title>LoaderComponent&#45;&gt;AppModule</title>
<path fill="none" stroke="black" d="M707,-84.82C707,-102.17 707,-125.8 707,-125.8 707,-125.8 508.84,-125.8 508.84,-125.8"/>
<polygon fill="black" stroke="black" points="508.84,-122.3 498.84,-125.8 508.84,-129.3 508.84,-122.3"/>
</g>
<!-- AppComponent  -->
<g id="node6" class="node">
<title>AppComponent </title>
<polygon fill="#80b1d3" stroke="black" points="511.44,-214.8 402.56,-214.8 402.56,-178.8 511.44,-178.8 511.44,-214.8"/>
<text text-anchor="middle" x="457" y="-192.6" font-family="Times,serif" font-size="14.00">AppComponent </text>
</g>
<!-- AppModule&#45;&gt;AppComponent  -->
<g id="edge5" class="edge">
<title>AppModule&#45;&gt;AppComponent </title>
<path fill="none" stroke="black" stroke-dasharray="1,5" d="M457,-149.91C457,-149.91 457,-168.79 457,-168.79"/>
<polygon fill="black" stroke="black" points="453.5,-168.79 457,-178.79 460.5,-168.79 453.5,-168.79"/>
</g>
<!-- AppRoutingModule -->
<g id="node4" class="node">
<title>AppRoutingModule</title>
<polygon fill="#8dd3c7" stroke="black" points="264.28,-84.8 261.28,-88.8 240.28,-88.8 237.28,-84.8 135.72,-84.8 135.72,-48.8 264.28,-48.8 264.28,-84.8"/>
<text text-anchor="middle" x="200" y="-62.6" font-family="Times,serif" font-size="14.00">AppRoutingModule</text>
</g>
<!-- AppRoutingModule&#45;&gt;AppModule -->
<g id="edge3" class="edge">
<title>AppRoutingModule&#45;&gt;AppModule</title>
<path fill="none" stroke="black" d="M200,-84.82C200,-102.17 200,-125.8 200,-125.8 200,-125.8 405.14,-125.8 405.14,-125.8"/>
<polygon fill="black" stroke="black" points="405.14,-129.3 415.14,-125.8 405.14,-122.3 405.14,-129.3"/>
</g>
<!-- HomeModule -->
<g id="node5" class="node">
<title>HomeModule</title>
<polygon fill="#8dd3c7" stroke="black" points="117.77,-84.8 114.77,-88.8 93.77,-88.8 90.77,-84.8 24.23,-84.8 24.23,-48.8 117.77,-48.8 117.77,-84.8"/>
<text text-anchor="middle" x="71" y="-62.6" font-family="Times,serif" font-size="14.00">HomeModule</text>
</g>
<!-- HomeModule&#45;&gt;AppModule -->
<g id="edge4" class="edge">
<title>HomeModule&#45;&gt;AppModule</title>
<path fill="none" stroke="black" d="M71,-85.08C71,-106.12 71,-137.8 71,-137.8 71,-137.8 405.32,-137.8 405.32,-137.8"/>
<polygon fill="black" stroke="black" points="405.32,-141.3 415.32,-137.8 405.32,-134.3 405.32,-141.3"/>
</g>
<!-- CacheInterceptor -->
<g id="node7" class="node">
<title>CacheInterceptor</title>
<ellipse fill="#fdb462" stroke="black" cx="545" cy="-66.8" rx="77.54" ry="18"/>
<text text-anchor="middle" x="545" y="-62.6" font-family="Times,serif" font-size="14.00">CacheInterceptor</text>
</g>
<!-- CacheInterceptor&#45;&gt;AppModule -->
<g id="edge6" class="edge">
<title>CacheInterceptor&#45;&gt;AppModule</title>
<path fill="none" stroke="black" d="M483.15,-77.83C483.15,-77.83 483.15,-103.58 483.15,-103.58"/>
<polygon fill="black" stroke="black" points="479.65,-103.58 483.15,-113.58 486.65,-103.58 479.65,-103.58"/>
</g>
<!-- LoaderInterceptor -->
<g id="node8" class="node">
<title>LoaderInterceptor</title>
<ellipse fill="#fdb462" stroke="black" cx="369" cy="-66.8" rx="80.98" ry="18"/>
<text text-anchor="middle" x="369" y="-62.6" font-family="Times,serif" font-size="14.00">LoaderInterceptor</text>
</g>
<!-- LoaderInterceptor&#45;&gt;AppModule -->
<g id="edge7" class="edge">
<title>LoaderInterceptor&#45;&gt;AppModule</title>
<path fill="none" stroke="black" d="M432.45,-78.12C432.45,-78.12 432.45,-103.74 432.45,-103.74"/>
<polygon fill="black" stroke="black" points="428.95,-103.74 432.45,-113.74 435.95,-103.74 428.95,-103.74"/>
</g>
</g>
</svg>
