<?xml version="1.0" encoding="UTF-8" standalone="no"?>
<!DOCTYPE svg PUBLIC "-//W3C//DTD SVG 1.1//EN"
 "http://www.w3.org/Graphics/SVG/1.1/DTD/svg11.dtd">
<!-- Generated by graphviz version 5.0.0 (20220707.1540)
 -->
<!-- Title: dependencies Pages: 1 -->
<svg width="586pt" height="174pt"
 viewBox="0.00 0.00 586.00 173.80" xmlns="http://www.w3.org/2000/svg" xmlns:xlink="http://www.w3.org/1999/xlink">
<g id="graph0" class="graph" transform="scale(1 1) rotate(0) translate(4 169.8)">
<title>dependencies</title>
<polygon fill="white" stroke="transparent" points="-4,4 -4,-169.8 582,-169.8 582,4 -4,4"/>
<text text-anchor="middle" x="289" y="-8.2" font-family="sans-serif" font-size="14.00">dependencies</text>
<g id="clust1" class="cluster">
<title>cluster_ZippyModule</title>
<polygon fill="none" stroke="black" stroke-dasharray="1,5" points="8,-32.8 8,-157.8 570,-157.8 570,-32.8 8,-32.8"/>
</g>
<g id="clust4" class="cluster">
<title>cluster_ZippyModule_imports</title>
<polygon fill="none" stroke="black" points="154,-40.8 154,-92.8 562,-92.8 562,-40.8 154,-40.8"/>
</g>
<g id="clust2" class="cluster">
<title>cluster_ZippyModule_declarations</title>
<polygon fill="none" stroke="black" points="16,-40.8 16,-92.8 146,-92.8 146,-40.8 16,-40.8"/>
</g>
<!-- ZippyComponent -->
<g id="node1" class="node">
<title>ZippyComponent</title>
<polygon fill="#ffffb3" stroke="black" points="138.27,-84.8 23.73,-84.8 23.73,-48.8 138.27,-48.8 138.27,-84.8"/>
<text text-anchor="middle" x="81" y="-62.6" font-family="Times,serif" font-size="14.00">ZippyComponent</text>
</g>
<!-- ZippyModule -->
<g id="node2" class="node">
<title>ZippyModule</title>
<polygon fill="#8dd3c7" stroke="black" points="339.49,-149.8 336.49,-153.8 315.49,-153.8 312.49,-149.8 246.51,-149.8 246.51,-113.8 339.49,-113.8 339.49,-149.8"/>
<text text-anchor="middle" x="293" y="-127.6" font-family="Times,serif" font-size="14.00">ZippyModule</text>
</g>
<!-- ZippyComponent&#45;&gt;ZippyModule -->
<g id="edge1" class="edge">
<title>ZippyComponent&#45;&gt;ZippyModule</title>
<path fill="none" stroke="black" d="M81,-84.91C81,-104.14 81,-131.8 81,-131.8 81,-131.8 236.48,-131.8 236.48,-131.8"/>
<polygon fill="black" stroke="black" points="236.48,-135.3 246.48,-131.8 236.48,-128.3 236.48,-135.3"/>
</g>
<!-- NoscamSharedModule -->
<g id="node3" class="node">
<title>NoscamSharedModule</title>
<polygon fill="#8dd3c7" stroke="black" points="554.3,-84.8 551.3,-88.8 530.3,-88.8 527.3,-84.8 409.7,-84.8 409.7,-48.8 554.3,-48.8 554.3,-84.8"/>
<text text-anchor="middle" x="482" y="-62.6" font-family="Times,serif" font-size="14.00">NoscamSharedModule</text>
</g>
<!-- NoscamSharedModule&#45;&gt;ZippyModule -->
<g id="edge2" class="edge">
<title>NoscamSharedModule&#45;&gt;ZippyModule</title>
<path fill="none" stroke="black" d="M482,-84.91C482,-104.14 482,-131.8 482,-131.8 482,-131.8 349.72,-131.8 349.72,-131.8"/>
<polygon fill="black" stroke="black" points="349.72,-128.3 339.72,-131.8 349.72,-135.3 349.72,-128.3"/>
</g>
<!-- UiModule -->
<g id="node4" class="node">
<title>UiModule</title>
<polygon fill="#8dd3c7" stroke="black" points="391.55,-84.8 388.55,-88.8 367.55,-88.8 364.55,-84.8 318.45,-84.8 318.45,-48.8 391.55,-48.8 391.55,-84.8"/>
<text text-anchor="middle" x="355" y="-62.6" font-family="Times,serif" font-size="14.00">UiModule</text>
</g>
<!-- UiModule&#45;&gt;ZippyModule -->
<g id="edge3" class="edge">
<title>UiModule&#45;&gt;ZippyModule</title>
<path fill="none" stroke="black" d="M328.86,-84.91C328.86,-84.91 328.86,-103.79 328.86,-103.79"/>
<polygon fill="black" stroke="black" points="325.36,-103.79 328.86,-113.79 332.36,-103.79 325.36,-103.79"/>
</g>
<!-- ZippyRoutingModule -->
<g id="node5" class="node">
<title>ZippyRoutingModule</title>
<polygon fill="#8dd3c7" stroke="black" points="300.11,-84.8 297.11,-88.8 276.11,-88.8 273.11,-84.8 161.89,-84.8 161.89,-48.8 300.11,-48.8 300.11,-84.8"/>
<text text-anchor="middle" x="231" y="-62.6" font-family="Times,serif" font-size="14.00">ZippyRoutingModule</text>
</g>
<!-- ZippyRoutingModule&#45;&gt;ZippyModule -->
<g id="edge4" class="edge">
<title>ZippyRoutingModule&#45;&gt;ZippyModule</title>
<path fill="none" stroke="black" d="M273.28,-84.91C273.28,-84.91 273.28,-103.79 273.28,-103.79"/>
<polygon fill="black" stroke="black" points="269.78,-103.79 273.28,-113.79 276.78,-103.79 269.78,-103.79"/>
</g>
</g>
</svg>
