<?xml version="1.0" encoding="UTF-8" standalone="no"?>
<!DOCTYPE svg PUBLIC "-//W3C//DTD SVG 1.1//EN"
 "http://www.w3.org/Graphics/SVG/1.1/DTD/svg11.dtd">
<!-- Generated by graphviz version 5.0.0 (20220707.1540)
 -->
<!-- Title: dependencies Pages: 1 -->
<svg width="586pt" height="174pt"
 viewBox="0.00 0.00 586.00 173.80" xmlns="http://www.w3.org/2000/svg" xmlns:xlink="http://www.w3.org/1999/xlink">
<g id="graph0" class="graph" transform="scale(1 1) rotate(0) translate(4 169.8)">
<title>dependencies</title>
<polygon fill="white" stroke="transparent" points="-4,4 -4,-169.8 582,-169.8 582,4 -4,4"/>
<text text-anchor="middle" x="289" y="-8.2" font-family="sans-serif" font-size="14.00">dependencies</text>
<g id="clust1" class="cluster">
<title>cluster_ZippyModule</title>
<polygon fill="none" stroke="black" stroke-dasharray="1,5" points="8,-32.8 8,-157.8 570,-157.8 570,-32.8 8,-32.8"/>
</g>
<g id="clust2" class="cluster">
<title>cluster_ZippyModule_declarations</title>
<polygon fill="none" stroke="black" points="432,-40.8 432,-92.8 562,-92.8 562,-40.8 432,-40.8"/>
</g>
<g id="clust4" class="cluster">
<title>cluster_ZippyModule_imports</title>
<polygon fill="none" stroke="black" points="16,-40.8 16,-92.8 424,-92.8 424,-40.8 16,-40.8"/>
</g>
<!-- ZippyComponent -->
<g id="node1" class="node">
<title>ZippyComponent</title>
<polygon fill="#ffffb3" stroke="black" points="554.27,-84.8 439.73,-84.8 439.73,-48.8 554.27,-48.8 554.27,-84.8"/>
<text text-anchor="middle" x="497" y="-62.6" font-family="Times,serif" font-size="14.00">ZippyComponent</text>
</g>
<!-- ZippyModule -->
<g id="node2" class="node">
<title>ZippyModule</title>
<polygon fill="#8dd3c7" stroke="black" points="326.49,-149.8 323.49,-153.8 302.49,-153.8 299.49,-149.8 233.51,-149.8 233.51,-113.8 326.49,-113.8 326.49,-149.8"/>
<text text-anchor="middle" x="280" y="-127.6" font-family="Times,serif" font-size="14.00">ZippyModule</text>
</g>
<!-- ZippyComponent&#45;&gt;ZippyModule -->
<g id="edge1" class="edge">
<title>ZippyComponent&#45;&gt;ZippyModule</title>
<path fill="none" stroke="black" d="M497,-84.91C497,-104.14 497,-131.8 497,-131.8 497,-131.8 336.55,-131.8 336.55,-131.8"/>
<polygon fill="black" stroke="black" points="336.55,-128.3 326.55,-131.8 336.55,-135.3 336.55,-128.3"/>
</g>
<!-- NoscamSharedModule -->
<g id="node3" class="node">
<title>NoscamSharedModule</title>
<polygon fill="#8dd3c7" stroke="black" points="416.3,-84.8 413.3,-88.8 392.3,-88.8 389.3,-84.8 271.7,-84.8 271.7,-48.8 416.3,-48.8 416.3,-84.8"/>
<text text-anchor="middle" x="344" y="-62.6" font-family="Times,serif" font-size="14.00">NoscamSharedModule</text>
</g>
<!-- NoscamSharedModule&#45;&gt;ZippyModule -->
<g id="edge2" class="edge">
<title>NoscamSharedModule&#45;&gt;ZippyModule</title>
<path fill="none" stroke="black" d="M299.17,-84.91C299.17,-84.91 299.17,-103.79 299.17,-103.79"/>
<polygon fill="black" stroke="black" points="295.67,-103.79 299.17,-113.79 302.67,-103.79 295.67,-103.79"/>
</g>
<!-- UiModule -->
<g id="node4" class="node">
<title>UiModule</title>
<polygon fill="#8dd3c7" stroke="black" points="253.55,-84.8 250.55,-88.8 229.55,-88.8 226.55,-84.8 180.45,-84.8 180.45,-48.8 253.55,-48.8 253.55,-84.8"/>
<text text-anchor="middle" x="217" y="-62.6" font-family="Times,serif" font-size="14.00">UiModule</text>
</g>
<!-- UiModule&#45;&gt;ZippyModule -->
<g id="edge3" class="edge">
<title>UiModule&#45;&gt;ZippyModule</title>
<path fill="none" stroke="black" d="M243.64,-84.91C243.64,-84.91 243.64,-103.79 243.64,-103.79"/>
<polygon fill="black" stroke="black" points="240.14,-103.79 243.64,-113.79 247.14,-103.79 240.14,-103.79"/>
</g>
<!-- ZippyRoutingModule -->
<g id="node5" class="node">
<title>ZippyRoutingModule</title>
<polygon fill="#8dd3c7" stroke="black" points="162.11,-84.8 159.11,-88.8 138.11,-88.8 135.11,-84.8 23.89,-84.8 23.89,-48.8 162.11,-48.8 162.11,-84.8"/>
<text text-anchor="middle" x="93" y="-62.6" font-family="Times,serif" font-size="14.00">ZippyRoutingModule</text>
</g>
<!-- ZippyRoutingModule&#45;&gt;ZippyModule -->
<g id="edge4" class="edge">
<title>ZippyRoutingModule&#45;&gt;ZippyModule</title>
<path fill="none" stroke="black" d="M93,-84.91C93,-104.14 93,-131.8 93,-131.8 93,-131.8 223.29,-131.8 223.29,-131.8"/>
<polygon fill="black" stroke="black" points="223.29,-135.3 233.29,-131.8 223.29,-128.3 223.29,-135.3"/>
</g>
</g>
</svg>
