<?xml version="1.0" encoding="UTF-8" standalone="no"?>
<!DOCTYPE svg PUBLIC "-//W3C//DTD SVG 1.1//EN"
 "http://www.w3.org/Graphics/SVG/1.1/DTD/svg11.dtd">
<!-- Generated by graphviz version 5.0.0 (20220707.1540)
 -->
<!-- Title: dependencies Pages: 1 -->
<svg width="488pt" height="174pt"
 viewBox="0.00 0.00 488.00 173.80" xmlns="http://www.w3.org/2000/svg" xmlns:xlink="http://www.w3.org/1999/xlink">
<g id="graph0" class="graph" transform="scale(1 1) rotate(0) translate(4 169.8)">
<title>dependencies</title>
<polygon fill="white" stroke="transparent" points="-4,4 -4,-169.8 484,-169.8 484,4 -4,4"/>
<text text-anchor="middle" x="240" y="-8.2" font-family="sans-serif" font-size="14.00">dependencies</text>
<g id="clust1" class="cluster">
<title>cluster_DemosModule</title>
<polygon fill="none" stroke="black" stroke-dasharray="1,5" points="8,-32.8 8,-157.8 472,-157.8 472,-32.8 8,-32.8"/>
</g>
<g id="clust2" class="cluster">
<title>cluster_DemosModule_declarations</title>
<polygon fill="none" stroke="black" points="184,-40.8 184,-92.8 464,-92.8 464,-40.8 184,-40.8"/>
</g>
<g id="clust5" class="cluster">
<title>cluster_DemosModule_imports</title>
<polygon fill="none" stroke="black" points="16,-40.8 16,-92.8 176,-92.8 176,-40.8 16,-40.8"/>
</g>
<!-- DemosComponent -->
<g id="node1" class="node">
<title>DemosComponent</title>
<polygon fill="#ffffb3" stroke="black" points="456.49,-84.8 335.51,-84.8 335.51,-48.8 456.49,-48.8 456.49,-84.8"/>
<text text-anchor="middle" x="396" y="-62.6" font-family="Times,serif" font-size="14.00">DemosComponent</text>
</g>
<!-- DemosModule -->
<g id="node3" class="node">
<title>DemosModule</title>
<polygon fill="#8dd3c7" stroke="black" points="304.71,-149.8 301.71,-153.8 280.71,-153.8 277.71,-149.8 205.29,-149.8 205.29,-113.8 304.71,-113.8 304.71,-149.8"/>
<text text-anchor="middle" x="255" y="-127.6" font-family="Times,serif" font-size="14.00">DemosModule</text>
</g>
<!-- DemosComponent&#45;&gt;DemosModule -->
<g id="edge1" class="edge">
<title>DemosComponent&#45;&gt;DemosModule</title>
<path fill="none" stroke="black" d="M396,-84.91C396,-104.14 396,-131.8 396,-131.8 396,-131.8 314.71,-131.8 314.71,-131.8"/>
<polygon fill="black" stroke="black" points="314.71,-128.3 304.71,-131.8 314.71,-135.3 314.71,-128.3"/>
</g>
<!-- ToolbarComponent -->
<g id="node2" class="node">
<title>ToolbarComponent</title>
<polygon fill="#ffffb3" stroke="black" points="317.65,-84.8 192.35,-84.8 192.35,-48.8 317.65,-48.8 317.65,-84.8"/>
<text text-anchor="middle" x="255" y="-62.6" font-family="Times,serif" font-size="14.00">ToolbarComponent</text>
</g>
<!-- ToolbarComponent&#45;&gt;DemosModule -->
<g id="edge2" class="edge">
<title>ToolbarComponent&#45;&gt;DemosModule</title>
<path fill="none" stroke="black" d="M255,-84.91C255,-84.91 255,-103.79 255,-103.79"/>
<polygon fill="black" stroke="black" points="251.5,-103.79 255,-113.79 258.5,-103.79 251.5,-103.79"/>
</g>
<!-- DemosRoutingModule -->
<g id="node4" class="node">
<title>DemosRoutingModule</title>
<polygon fill="#8dd3c7" stroke="black" points="168.33,-84.8 165.33,-88.8 144.33,-88.8 141.33,-84.8 23.67,-84.8 23.67,-48.8 168.33,-48.8 168.33,-84.8"/>
<text text-anchor="middle" x="96" y="-62.6" font-family="Times,serif" font-size="14.00">DemosRoutingModule</text>
</g>
<!-- DemosRoutingModule&#45;&gt;DemosModule -->
<g id="edge3" class="edge">
<title>DemosRoutingModule&#45;&gt;DemosModule</title>
<path fill="none" stroke="black" d="M96,-84.91C96,-104.14 96,-131.8 96,-131.8 96,-131.8 195.13,-131.8 195.13,-131.8"/>
<polygon fill="black" stroke="black" points="195.13,-135.3 205.13,-131.8 195.13,-128.3 195.13,-135.3"/>
</g>
</g>
</svg>
