<?xml version="1.0" encoding="UTF-8" standalone="no"?>
<!DOCTYPE svg PUBLIC "-//W3C//DTD SVG 1.1//EN"
 "http://www.w3.org/Graphics/SVG/1.1/DTD/svg11.dtd">
<!-- Generated by graphviz version 5.0.0 (20220707.1540)
 -->
<!-- Title: dependencies Pages: 1 -->
<svg width="158pt" height="247pt"
 viewBox="0.00 0.00 158.00 246.80" xmlns="http://www.w3.org/2000/svg" xmlns:xlink="http://www.w3.org/1999/xlink">
<g id="graph0" class="graph" transform="scale(1 1) rotate(0) translate(4 242.8)">
<title>dependencies</title>
<polygon fill="white" stroke="transparent" points="-4,4 -4,-242.8 154,-242.8 154,4 -4,4"/>
<text text-anchor="middle" x="75" y="-8.2" font-family="sans-serif" font-size="14.00">dependencies</text>
<g id="clust1" class="cluster">
<title>cluster_C2Module</title>
<polygon fill="none" stroke="black" stroke-dasharray="1,5" points="8,-32.8 8,-230.8 142,-230.8 142,-32.8 8,-32.8"/>
</g>
<g id="clust2" class="cluster">
<title>cluster_C2Module_declarations</title>
<polygon fill="none" stroke="black" points="18,-40.8 18,-92.8 132,-92.8 132,-40.8 18,-40.8"/>
</g>
<g id="clust5" class="cluster">
<title>cluster_C2Module_exports</title>
<polygon fill="none" stroke="black" points="16,-170.8 16,-222.8 134,-222.8 134,-170.8 16,-170.8"/>
</g>
<!-- C2Component -->
<g id="node1" class="node">
<title>C2Component</title>
<polygon fill="#ffffb3" stroke="black" points="123.67,-84.8 26.33,-84.8 26.33,-48.8 123.67,-48.8 123.67,-84.8"/>
<text text-anchor="middle" x="75" y="-62.6" font-family="Times,serif" font-size="14.00">C2Component</text>
</g>
<!-- C2Module -->
<g id="node2" class="node">
<title>C2Module</title>
<polygon fill="#8dd3c7" stroke="black" points="112.89,-149.8 109.89,-153.8 88.89,-153.8 85.89,-149.8 37.11,-149.8 37.11,-113.8 112.89,-113.8 112.89,-149.8"/>
<text text-anchor="middle" x="75" y="-127.6" font-family="Times,serif" font-size="14.00">C2Module</text>
</g>
<!-- C2Component&#45;&gt;C2Module -->
<g id="edge1" class="edge">
<title>C2Component&#45;&gt;C2Module</title>
<path fill="none" stroke="black" d="M75,-84.91C75,-84.91 75,-103.79 75,-103.79"/>
<polygon fill="black" stroke="black" points="71.5,-103.79 75,-113.79 78.5,-103.79 71.5,-103.79"/>
</g>
<!-- C2Component  -->
<g id="node3" class="node">
<title>C2Component </title>
<polygon fill="#fb8072" stroke="black" points="125.67,-214.8 24.33,-214.8 24.33,-178.8 125.67,-178.8 125.67,-214.8"/>
<text text-anchor="middle" x="75" y="-192.6" font-family="Times,serif" font-size="14.00">C2Component </text>
</g>
<!-- C2Module&#45;&gt;C2Component  -->
<g id="edge2" class="edge">
<title>C2Module&#45;&gt;C2Component </title>
<path fill="none" stroke="black" stroke-dasharray="5,2" d="M75,-149.91C75,-149.91 75,-168.79 75,-168.79"/>
<polygon fill="black" stroke="black" points="71.5,-168.79 75,-178.79 78.5,-168.79 71.5,-168.79"/>
</g>
</g>
</svg>
