<?xml version="1.0" encoding="UTF-8" standalone="no"?>
<!DOCTYPE svg PUBLIC "-//W3C//DTD SVG 1.1//EN"
 "http://www.w3.org/Graphics/SVG/1.1/DTD/svg11.dtd">
<!-- Generated by graphviz version 5.0.0 (20220707.1540)
 -->
<!-- Title: dependencies Pages: 1 -->
<svg width="382pt" height="239pt"
 viewBox="0.00 0.00 382.00 238.80" xmlns="http://www.w3.org/2000/svg" xmlns:xlink="http://www.w3.org/1999/xlink">
<g id="graph0" class="graph" transform="scale(1 1) rotate(0) translate(4 234.8)">
<title>dependencies</title>
<polygon fill="white" stroke="transparent" points="-4,4 -4,-234.8 378,-234.8 378,4 -4,4"/>
<text text-anchor="middle" x="187" y="-8.2" font-family="sans-serif" font-size="14.00">dependencies</text>
<g id="clust1" class="cluster">
<title>cluster_CarSearchModule</title>
<polygon fill="none" stroke="black" stroke-dasharray="1,5" points="8,-32.8 8,-222.8 366,-222.8 366,-32.8 8,-32.8"/>
</g>
<g id="clust2" class="cluster">
<title>cluster_CarSearchModule_declarations</title>
<polygon fill="none" stroke="black" points="16,-105.8 16,-157.8 172,-157.8 172,-105.8 16,-105.8"/>
</g>
<g id="clust4" class="cluster">
<title>cluster_CarSearchModule_imports</title>
<polygon fill="none" stroke="black" points="180,-105.8 180,-157.8 358,-157.8 358,-105.8 180,-105.8"/>
</g>
<g id="clust3" class="cluster">
<title>cluster_CarSearchModule_CarSearchComponent_providers</title>
<polygon fill="none" stroke="black" points="16,-40.8 16,-92.8 192,-92.8 192,-40.8 16,-40.8"/>
</g>
<!-- CarSearchComponent -->
<g id="node1" class="node">
<title>CarSearchComponent</title>
<polygon fill="#ffffb3" stroke="black" points="163.64,-149.8 24.36,-149.8 24.36,-113.8 163.64,-113.8 163.64,-149.8"/>
<text text-anchor="middle" x="94" y="-127.6" font-family="Times,serif" font-size="14.00">CarSearchComponent</text>
</g>
<!-- CarSearchModule -->
<g id="node2" class="node">
<title>CarSearchModule</title>
<polygon fill="#8dd3c7" stroke="black" points="239.86,-214.8 236.86,-218.8 215.86,-218.8 212.86,-214.8 122.14,-214.8 122.14,-178.8 239.86,-178.8 239.86,-214.8"/>
<text text-anchor="middle" x="181" y="-192.6" font-family="Times,serif" font-size="14.00">CarSearchModule</text>
</g>
<!-- CarSearchComponent&#45;&gt;CarSearchModule -->
<g id="edge1" class="edge">
<title>CarSearchComponent&#45;&gt;CarSearchModule</title>
<path fill="none" stroke="black" d="M142.94,-149.91C142.94,-149.91 142.94,-168.79 142.94,-168.79"/>
<polygon fill="black" stroke="black" points="139.44,-168.79 142.94,-178.79 146.44,-168.79 139.44,-168.79"/>
</g>
<!-- CarSearchService -->
<g id="node3" class="node">
<title>CarSearchService</title>
<ellipse fill="#fdb462" stroke="black" cx="104" cy="-66.8" rx="80.42" ry="18"/>
<text text-anchor="middle" x="104" y="-62.6" font-family="Times,serif" font-size="14.00">CarSearchService</text>
</g>
<!-- CarSearchService&#45;&gt;CarSearchComponent -->
<g id="edge2" class="edge">
<title>CarSearchService&#45;&gt;CarSearchComponent</title>
<path fill="none" stroke="black" d="M94,-84.91C94,-84.91 94,-103.79 94,-103.79"/>
<polygon fill="black" stroke="black" points="90.5,-103.79 94,-113.79 97.5,-103.79 90.5,-103.79"/>
</g>
<!-- CarSearchRoutingModule -->
<g id="node4" class="node">
<title>CarSearchRoutingModule</title>
<polygon fill="#8dd3c7" stroke="black" points="350.47,-149.8 347.47,-153.8 326.47,-153.8 323.47,-149.8 187.53,-149.8 187.53,-113.8 350.47,-113.8 350.47,-149.8"/>
<text text-anchor="middle" x="269" y="-127.6" font-family="Times,serif" font-size="14.00">CarSearchRoutingModule</text>
</g>
<!-- CarSearchRoutingModule&#45;&gt;CarSearchModule -->
<g id="edge3" class="edge">
<title>CarSearchRoutingModule&#45;&gt;CarSearchModule</title>
<path fill="none" stroke="black" d="M213.72,-149.91C213.72,-149.91 213.72,-168.79 213.72,-168.79"/>
<polygon fill="black" stroke="black" points="210.22,-168.79 213.72,-178.79 217.22,-168.79 210.22,-168.79"/>
</g>
</g>
</svg>
