<?xml version="1.0" encoding="UTF-8" standalone="no"?>
<!DOCTYPE svg PUBLIC "-//W3C//DTD SVG 1.1//EN"
 "http://www.w3.org/Graphics/SVG/1.1/DTD/svg11.dtd">
<!-- Generated by graphviz version 5.0.0 (20220707.1540)
 -->
<!-- Title: dependencies Pages: 1 -->
<svg width="382pt" height="174pt"
 viewBox="0.00 0.00 382.00 173.80" xmlns="http://www.w3.org/2000/svg" xmlns:xlink="http://www.w3.org/1999/xlink">
<g id="graph0" class="graph" transform="scale(1 1) rotate(0) translate(4 169.8)">
<title>dependencies</title>
<polygon fill="white" stroke="transparent" points="-4,4 -4,-169.8 378,-169.8 378,4 -4,4"/>
<text text-anchor="middle" x="187" y="-8.2" font-family="sans-serif" font-size="14.00">dependencies</text>
<g id="clust1" class="cluster">
<title>cluster_CarSearchModule</title>
<polygon fill="none" stroke="black" stroke-dasharray="1,5" points="8,-32.8 8,-157.8 366,-157.8 366,-32.8 8,-32.8"/>
</g>
<g id="clust2" class="cluster">
<title>cluster_CarSearchModule_declarations</title>
<polygon fill="none" stroke="black" points="202,-40.8 202,-92.8 358,-92.8 358,-40.8 202,-40.8"/>
</g>
<g id="clust4" class="cluster">
<title>cluster_CarSearchModule_imports</title>
<polygon fill="none" stroke="black" points="16,-40.8 16,-92.8 194,-92.8 194,-40.8 16,-40.8"/>
</g>
<!-- CarSearchComponent -->
<g id="node1" class="node">
<title>CarSearchComponent</title>
<polygon fill="#ffffb3" stroke="black" points="349.64,-84.8 210.36,-84.8 210.36,-48.8 349.64,-48.8 349.64,-84.8"/>
<text text-anchor="middle" x="280" y="-62.6" font-family="Times,serif" font-size="14.00">CarSearchComponent</text>
</g>
<!-- CarSearchModule -->
<g id="node2" class="node">
<title>CarSearchModule</title>
<polygon fill="#8dd3c7" stroke="black" points="250.86,-149.8 247.86,-153.8 226.86,-153.8 223.86,-149.8 133.14,-149.8 133.14,-113.8 250.86,-113.8 250.86,-149.8"/>
<text text-anchor="middle" x="192" y="-127.6" font-family="Times,serif" font-size="14.00">CarSearchModule</text>
</g>
<!-- CarSearchComponent&#45;&gt;CarSearchModule -->
<g id="edge1" class="edge">
<title>CarSearchComponent&#45;&gt;CarSearchModule</title>
<path fill="none" stroke="black" d="M230.56,-84.91C230.56,-84.91 230.56,-103.79 230.56,-103.79"/>
<polygon fill="black" stroke="black" points="227.06,-103.79 230.56,-113.79 234.06,-103.79 227.06,-103.79"/>
</g>
<!-- CarSearchRoutingModule -->
<g id="node3" class="node">
<title>CarSearchRoutingModule</title>
<polygon fill="#8dd3c7" stroke="black" points="186.47,-84.8 183.47,-88.8 162.47,-88.8 159.47,-84.8 23.53,-84.8 23.53,-48.8 186.47,-48.8 186.47,-84.8"/>
<text text-anchor="middle" x="105" y="-62.6" font-family="Times,serif" font-size="14.00">CarSearchRoutingModule</text>
</g>
<!-- CarSearchRoutingModule&#45;&gt;CarSearchModule -->
<g id="edge2" class="edge">
<title>CarSearchRoutingModule&#45;&gt;CarSearchModule</title>
<path fill="none" stroke="black" d="M159.78,-84.91C159.78,-84.91 159.78,-103.79 159.78,-103.79"/>
<polygon fill="black" stroke="black" points="156.28,-103.79 159.78,-113.79 163.28,-103.79 156.28,-103.79"/>
</g>
</g>
</svg>
