<?xml version="1.0" encoding="UTF-8" standalone="no"?>
<!DOCTYPE svg PUBLIC "-//W3C//DTD SVG 1.1//EN"
 "http://www.w3.org/Graphics/SVG/1.1/DTD/svg11.dtd">
<!-- Generated by graphviz version 5.0.0 (20220707.1540)
 -->
<!-- Title: dependencies Pages: 1 -->
<svg width="772pt" height="174pt"
 viewBox="0.00 0.00 772.00 173.80" xmlns="http://www.w3.org/2000/svg" xmlns:xlink="http://www.w3.org/1999/xlink">
<g id="graph0" class="graph" transform="scale(1 1) rotate(0) translate(4 169.8)">
<title>dependencies</title>
<polygon fill="white" stroke="transparent" points="-4,4 -4,-169.8 768,-169.8 768,4 -4,4"/>
<text text-anchor="middle" x="382" y="-8.2" font-family="sans-serif" font-size="14.00">dependencies</text>
<g id="clust1" class="cluster">
<title>cluster_ApmdemoModule</title>
<polygon fill="none" stroke="black" stroke-dasharray="1,5" points="8,-32.8 8,-157.8 756,-157.8 756,-32.8 8,-32.8"/>
</g>
<g id="clust2" class="cluster">
<title>cluster_ApmdemoModule_declarations</title>
<polygon fill="none" stroke="black" points="308,-40.8 308,-92.8 748,-92.8 748,-40.8 308,-40.8"/>
</g>
<g id="clust6" class="cluster">
<title>cluster_ApmdemoModule_imports</title>
<polygon fill="none" stroke="black" points="16,-40.8 16,-92.8 300,-92.8 300,-40.8 16,-40.8"/>
</g>
<!-- ApmdemoComponent -->
<g id="node1" class="node">
<title>ApmdemoComponent</title>
<polygon fill="#ffffb3" stroke="black" points="740.44,-84.8 599.56,-84.8 599.56,-48.8 740.44,-48.8 740.44,-84.8"/>
<text text-anchor="middle" x="670" y="-62.6" font-family="Times,serif" font-size="14.00">ApmdemoComponent</text>
</g>
<!-- ApmdemoModule -->
<g id="node4" class="node">
<title>ApmdemoModule</title>
<polygon fill="#8dd3c7" stroke="black" points="442.16,-149.8 439.16,-153.8 418.16,-153.8 415.16,-149.8 323.84,-149.8 323.84,-113.8 442.16,-113.8 442.16,-149.8"/>
<text text-anchor="middle" x="383" y="-127.6" font-family="Times,serif" font-size="14.00">ApmdemoModule</text>
</g>
<!-- ApmdemoComponent&#45;&gt;ApmdemoModule -->
<g id="edge1" class="edge">
<title>ApmdemoComponent&#45;&gt;ApmdemoModule</title>
<path fill="none" stroke="black" d="M670,-85.08C670,-106.12 670,-137.8 670,-137.8 670,-137.8 452.47,-137.8 452.47,-137.8"/>
<polygon fill="black" stroke="black" points="452.47,-134.3 442.47,-137.8 452.47,-141.3 452.47,-134.3"/>
</g>
<!-- MenuComponent -->
<g id="node2" class="node">
<title>MenuComponent</title>
<polygon fill="#ffffb3" stroke="black" points="581.99,-84.8 468.01,-84.8 468.01,-48.8 581.99,-48.8 581.99,-84.8"/>
<text text-anchor="middle" x="525" y="-62.6" font-family="Times,serif" font-size="14.00">MenuComponent</text>
</g>
<!-- MenuComponent&#45;&gt;ApmdemoModule -->
<g id="edge2" class="edge">
<title>MenuComponent&#45;&gt;ApmdemoModule</title>
<path fill="none" stroke="black" d="M525,-84.82C525,-102.17 525,-125.8 525,-125.8 525,-125.8 452.4,-125.8 452.4,-125.8"/>
<polygon fill="black" stroke="black" points="452.4,-122.3 442.4,-125.8 452.4,-129.3 452.4,-122.3"/>
</g>
<!-- WelcomeComponent -->
<g id="node3" class="node">
<title>WelcomeComponent</title>
<polygon fill="#ffffb3" stroke="black" points="450.47,-84.8 315.53,-84.8 315.53,-48.8 450.47,-48.8 450.47,-84.8"/>
<text text-anchor="middle" x="383" y="-62.6" font-family="Times,serif" font-size="14.00">WelcomeComponent</text>
</g>
<!-- WelcomeComponent&#45;&gt;ApmdemoModule -->
<g id="edge3" class="edge">
<title>WelcomeComponent&#45;&gt;ApmdemoModule</title>
<path fill="none" stroke="black" d="M383,-84.91C383,-84.91 383,-103.79 383,-103.79"/>
<polygon fill="black" stroke="black" points="379.5,-103.79 383,-113.79 386.5,-103.79 379.5,-103.79"/>
</g>
<!-- ApmdemoRoutingModule -->
<g id="node5" class="node">
<title>ApmdemoRoutingModule</title>
<polygon fill="#8dd3c7" stroke="black" points="291.77,-84.8 288.77,-88.8 267.77,-88.8 264.77,-84.8 128.23,-84.8 128.23,-48.8 291.77,-48.8 291.77,-84.8"/>
<text text-anchor="middle" x="210" y="-62.6" font-family="Times,serif" font-size="14.00">ApmdemoRoutingModule</text>
</g>
<!-- ApmdemoRoutingModule&#45;&gt;ApmdemoModule -->
<g id="edge4" class="edge">
<title>ApmdemoRoutingModule&#45;&gt;ApmdemoModule</title>
<path fill="none" stroke="black" d="M210,-84.82C210,-102.17 210,-125.8 210,-125.8 210,-125.8 313.46,-125.8 313.46,-125.8"/>
<polygon fill="black" stroke="black" points="313.46,-129.3 323.46,-125.8 313.46,-122.3 313.46,-129.3"/>
</g>
<!-- UserModule -->
<g id="node6" class="node">
<title>UserModule</title>
<polygon fill="#8dd3c7" stroke="black" points="109.99,-84.8 106.99,-88.8 85.99,-88.8 82.99,-84.8 24.01,-84.8 24.01,-48.8 109.99,-48.8 109.99,-84.8"/>
<text text-anchor="middle" x="67" y="-62.6" font-family="Times,serif" font-size="14.00">UserModule</text>
</g>
<!-- UserModule&#45;&gt;ApmdemoModule -->
<g id="edge5" class="edge">
<title>UserModule&#45;&gt;ApmdemoModule</title>
<path fill="none" stroke="black" d="M67,-85.08C67,-106.12 67,-137.8 67,-137.8 67,-137.8 313.56,-137.8 313.56,-137.8"/>
<polygon fill="black" stroke="black" points="313.56,-141.3 323.56,-137.8 313.56,-134.3 313.56,-141.3"/>
</g>
</g>
</svg>
