<?xml version="1.0" encoding="UTF-8" standalone="no"?>
<!DOCTYPE svg PUBLIC "-//W3C//DTD SVG 1.1//EN"
 "http://www.w3.org/Graphics/SVG/1.1/DTD/svg11.dtd">
<!-- Generated by graphviz version 5.0.0 (20220707.1540)
 -->
<!-- Title: dependencies Pages: 1 -->
<svg width="396pt" height="174pt"
 viewBox="0.00 0.00 396.00 173.80" xmlns="http://www.w3.org/2000/svg" xmlns:xlink="http://www.w3.org/1999/xlink">
<g id="graph0" class="graph" transform="scale(1 1) rotate(0) translate(4 169.8)">
<title>dependencies</title>
<polygon fill="white" stroke="transparent" points="-4,4 -4,-169.8 392,-169.8 392,4 -4,4"/>
<text text-anchor="middle" x="194" y="-8.2" font-family="sans-serif" font-size="14.00">dependencies</text>
<g id="clust1" class="cluster">
<title>cluster_UserSearchModule</title>
<polygon fill="none" stroke="black" stroke-dasharray="1,5" points="8,-32.8 8,-157.8 380,-157.8 380,-32.8 8,-32.8"/>
</g>
<g id="clust2" class="cluster">
<title>cluster_UserSearchModule_declarations</title>
<polygon fill="none" stroke="black" points="210,-40.8 210,-92.8 372,-92.8 372,-40.8 210,-40.8"/>
</g>
<g id="clust4" class="cluster">
<title>cluster_UserSearchModule_imports</title>
<polygon fill="none" stroke="black" points="16,-40.8 16,-92.8 202,-92.8 202,-40.8 16,-40.8"/>
</g>
<!-- UserSearchComponent -->
<g id="node1" class="node">
<title>UserSearchComponent</title>
<polygon fill="#ffffb3" stroke="black" points="363.86,-84.8 218.14,-84.8 218.14,-48.8 363.86,-48.8 363.86,-84.8"/>
<text text-anchor="middle" x="291" y="-62.6" font-family="Times,serif" font-size="14.00">UserSearchComponent</text>
</g>
<!-- UserSearchModule -->
<g id="node2" class="node">
<title>UserSearchModule</title>
<polygon fill="#8dd3c7" stroke="black" points="262.08,-149.8 259.08,-153.8 238.08,-153.8 235.08,-149.8 137.92,-149.8 137.92,-113.8 262.08,-113.8 262.08,-149.8"/>
<text text-anchor="middle" x="200" y="-127.6" font-family="Times,serif" font-size="14.00">UserSearchModule</text>
</g>
<!-- UserSearchComponent&#45;&gt;UserSearchModule -->
<g id="edge1" class="edge">
<title>UserSearchComponent&#45;&gt;UserSearchModule</title>
<path fill="none" stroke="black" d="M240.06,-84.91C240.06,-84.91 240.06,-103.79 240.06,-103.79"/>
<polygon fill="black" stroke="black" points="236.56,-103.79 240.06,-113.79 243.56,-103.79 236.56,-103.79"/>
</g>
<!-- UserSearchRoutingModule -->
<g id="node3" class="node">
<title>UserSearchRoutingModule</title>
<polygon fill="#8dd3c7" stroke="black" points="193.69,-84.8 190.69,-88.8 169.69,-88.8 166.69,-84.8 24.31,-84.8 24.31,-48.8 193.69,-48.8 193.69,-84.8"/>
<text text-anchor="middle" x="109" y="-62.6" font-family="Times,serif" font-size="14.00">UserSearchRoutingModule</text>
</g>
<!-- UserSearchRoutingModule&#45;&gt;UserSearchModule -->
<g id="edge2" class="edge">
<title>UserSearchRoutingModule&#45;&gt;UserSearchModule</title>
<path fill="none" stroke="black" d="M165.78,-84.91C165.78,-84.91 165.78,-103.79 165.78,-103.79"/>
<polygon fill="black" stroke="black" points="162.28,-103.79 165.78,-113.79 169.28,-103.79 162.28,-103.79"/>
</g>
</g>
</svg>
