<?xml version="1.0" encoding="UTF-8" standalone="no"?>
<!DOCTYPE svg PUBLIC "-//W3C//DTD SVG 1.1//EN"
 "http://www.w3.org/Graphics/SVG/1.1/DTD/svg11.dtd">
<!-- Generated by graphviz version 5.0.0 (20220707.1540)
 -->
<!-- Title: dependencies Pages: 1 -->
<svg width="618pt" height="174pt"
 viewBox="0.00 0.00 618.00 173.80" xmlns="http://www.w3.org/2000/svg" xmlns:xlink="http://www.w3.org/1999/xlink">
<g id="graph0" class="graph" transform="scale(1 1) rotate(0) translate(4 169.8)">
<title>dependencies</title>
<polygon fill="white" stroke="transparent" points="-4,4 -4,-169.8 614,-169.8 614,4 -4,4"/>
<text text-anchor="middle" x="305" y="-8.2" font-family="sans-serif" font-size="14.00">dependencies</text>
<g id="clust1" class="cluster">
<title>cluster_Lazy2Module</title>
<polygon fill="none" stroke="black" stroke-dasharray="1,5" points="8,-32.8 8,-157.8 602,-157.8 602,-32.8 8,-32.8"/>
</g>
<g id="clust2" class="cluster">
<title>cluster_Lazy2Module_declarations</title>
<polygon fill="none" stroke="black" points="180,-40.8 180,-92.8 594,-92.8 594,-40.8 180,-40.8"/>
</g>
<g id="clust6" class="cluster">
<title>cluster_Lazy2Module_imports</title>
<polygon fill="none" stroke="black" points="16,-40.8 16,-92.8 172,-92.8 172,-40.8 16,-40.8"/>
</g>
<!-- Lazy2Component -->
<g id="node1" class="node">
<title>Lazy2Component</title>
<polygon fill="#ffffb3" stroke="black" points="586.31,-84.8 469.69,-84.8 469.69,-48.8 586.31,-48.8 586.31,-84.8"/>
<text text-anchor="middle" x="528" y="-62.6" font-family="Times,serif" font-size="14.00">Lazy2Component</text>
</g>
<!-- Lazy2Module -->
<g id="node4" class="node">
<title>Lazy2Module</title>
<polygon fill="#8dd3c7" stroke="black" points="367.03,-149.8 364.03,-153.8 343.03,-153.8 340.03,-149.8 272.97,-149.8 272.97,-113.8 367.03,-113.8 367.03,-149.8"/>
<text text-anchor="middle" x="320" y="-127.6" font-family="Times,serif" font-size="14.00">Lazy2Module</text>
</g>
<!-- Lazy2Component&#45;&gt;Lazy2Module -->
<g id="edge1" class="edge">
<title>Lazy2Component&#45;&gt;Lazy2Module</title>
<path fill="none" stroke="black" d="M528,-84.91C528,-104.14 528,-131.8 528,-131.8 528,-131.8 377.2,-131.8 377.2,-131.8"/>
<polygon fill="black" stroke="black" points="377.2,-128.3 367.2,-131.8 377.2,-135.3 377.2,-128.3"/>
</g>
<!-- Lazy2aComponent -->
<g id="node2" class="node">
<title>Lazy2aComponent</title>
<polygon fill="#ffffb3" stroke="black" points="452.03,-84.8 329.97,-84.8 329.97,-48.8 452.03,-48.8 452.03,-84.8"/>
<text text-anchor="middle" x="391" y="-62.6" font-family="Times,serif" font-size="14.00">Lazy2aComponent</text>
</g>
<!-- Lazy2aComponent&#45;&gt;Lazy2Module -->
<g id="edge2" class="edge">
<title>Lazy2aComponent&#45;&gt;Lazy2Module</title>
<path fill="none" stroke="black" d="M348.5,-84.91C348.5,-84.91 348.5,-103.79 348.5,-103.79"/>
<polygon fill="black" stroke="black" points="345,-103.79 348.5,-113.79 352,-103.79 345,-103.79"/>
</g>
<!-- Lazy2bComponent -->
<g id="node3" class="node">
<title>Lazy2bComponent</title>
<polygon fill="#ffffb3" stroke="black" points="311.81,-84.8 188.19,-84.8 188.19,-48.8 311.81,-48.8 311.81,-84.8"/>
<text text-anchor="middle" x="250" y="-62.6" font-family="Times,serif" font-size="14.00">Lazy2bComponent</text>
</g>
<!-- Lazy2bComponent&#45;&gt;Lazy2Module -->
<g id="edge3" class="edge">
<title>Lazy2bComponent&#45;&gt;Lazy2Module</title>
<path fill="none" stroke="black" d="M292.19,-84.91C292.19,-84.91 292.19,-103.79 292.19,-103.79"/>
<polygon fill="black" stroke="black" points="288.69,-103.79 292.19,-113.79 295.69,-103.79 288.69,-103.79"/>
</g>
<!-- Lazy2RoutingModule -->
<g id="node5" class="node">
<title>Lazy2RoutingModule</title>
<polygon fill="#8dd3c7" stroke="black" points="163.65,-84.8 160.65,-88.8 139.65,-88.8 136.65,-84.8 24.35,-84.8 24.35,-48.8 163.65,-48.8 163.65,-84.8"/>
<text text-anchor="middle" x="94" y="-62.6" font-family="Times,serif" font-size="14.00">Lazy2RoutingModule</text>
</g>
<!-- Lazy2RoutingModule&#45;&gt;Lazy2Module -->
<g id="edge4" class="edge">
<title>Lazy2RoutingModule&#45;&gt;Lazy2Module</title>
<path fill="none" stroke="black" d="M94,-84.91C94,-104.14 94,-131.8 94,-131.8 94,-131.8 262.9,-131.8 262.9,-131.8"/>
<polygon fill="black" stroke="black" points="262.9,-135.3 272.9,-131.8 262.9,-128.3 262.9,-135.3"/>
</g>
</g>
</svg>
