<?xml version="1.0" encoding="UTF-8" standalone="no"?>
<!DOCTYPE svg PUBLIC "-//W3C//DTD SVG 1.1//EN"
 "http://www.w3.org/Graphics/SVG/1.1/DTD/svg11.dtd">
<!-- Generated by graphviz version 5.0.0 (20220707.1540)
 -->
<!-- Title: dependencies Pages: 1 -->
<svg width="356pt" height="174pt"
 viewBox="0.00 0.00 356.00 173.80" xmlns="http://www.w3.org/2000/svg" xmlns:xlink="http://www.w3.org/1999/xlink">
<g id="graph0" class="graph" transform="scale(1 1) rotate(0) translate(4 169.8)">
<title>dependencies</title>
<polygon fill="white" stroke="transparent" points="-4,4 -4,-169.8 352,-169.8 352,4 -4,4"/>
<text text-anchor="middle" x="174" y="-8.2" font-family="sans-serif" font-size="14.00">dependencies</text>
<g id="clust1" class="cluster">
<title>cluster_PagesModule</title>
<polygon fill="none" stroke="black" stroke-dasharray="1,5" points="8,-32.8 8,-157.8 340,-157.8 340,-32.8 8,-32.8"/>
</g>
<g id="clust2" class="cluster">
<title>cluster_PagesModule_declarations</title>
<polygon fill="none" stroke="black" points="178,-40.8 178,-92.8 332,-92.8 332,-40.8 178,-40.8"/>
</g>
<g id="clust4" class="cluster">
<title>cluster_PagesModule_imports</title>
<polygon fill="none" stroke="black" points="16,-40.8 16,-92.8 170,-92.8 170,-40.8 16,-40.8"/>
</g>
<!-- NotFoundComponent -->
<g id="node1" class="node">
<title>NotFoundComponent</title>
<polygon fill="#ffffb3" stroke="black" points="324.12,-84.8 185.88,-84.8 185.88,-48.8 324.12,-48.8 324.12,-84.8"/>
<text text-anchor="middle" x="255" y="-62.6" font-family="Times,serif" font-size="14.00">NotFoundComponent</text>
</g>
<!-- PagesModule -->
<g id="node2" class="node">
<title>PagesModule</title>
<polygon fill="#8dd3c7" stroke="black" points="220.21,-149.8 217.21,-153.8 196.21,-153.8 193.21,-149.8 127.79,-149.8 127.79,-113.8 220.21,-113.8 220.21,-149.8"/>
<text text-anchor="middle" x="174" y="-127.6" font-family="Times,serif" font-size="14.00">PagesModule</text>
</g>
<!-- NotFoundComponent&#45;&gt;PagesModule -->
<g id="edge1" class="edge">
<title>NotFoundComponent&#45;&gt;PagesModule</title>
<path fill="none" stroke="black" d="M203.02,-84.91C203.02,-84.91 203.02,-103.79 203.02,-103.79"/>
<polygon fill="black" stroke="black" points="199.52,-103.79 203.02,-113.79 206.52,-103.79 199.52,-103.79"/>
</g>
<!-- PagesRoutingModule -->
<g id="node3" class="node">
<title>PagesRoutingModule</title>
<polygon fill="#8dd3c7" stroke="black" points="161.83,-84.8 158.83,-88.8 137.83,-88.8 134.83,-84.8 24.17,-84.8 24.17,-48.8 161.83,-48.8 161.83,-84.8"/>
<text text-anchor="middle" x="93" y="-62.6" font-family="Times,serif" font-size="14.00">PagesRoutingModule</text>
</g>
<!-- PagesRoutingModule&#45;&gt;PagesModule -->
<g id="edge2" class="edge">
<title>PagesRoutingModule&#45;&gt;PagesModule</title>
<path fill="none" stroke="black" d="M144.78,-84.91C144.78,-84.91 144.78,-103.79 144.78,-103.79"/>
<polygon fill="black" stroke="black" points="141.28,-103.79 144.78,-113.79 148.28,-103.79 141.28,-103.79"/>
</g>
</g>
</svg>
