<?xml version="1.0" encoding="UTF-8" standalone="no"?>
<!DOCTYPE svg PUBLIC "-//W3C//DTD SVG 1.1//EN"
 "http://www.w3.org/Graphics/SVG/1.1/DTD/svg11.dtd">
<!-- Generated by graphviz version 5.0.0 (20220707.1540)
 -->
<!-- Title: dependencies Pages: 1 -->
<svg width="460pt" height="174pt"
 viewBox="0.00 0.00 460.00 173.80" xmlns="http://www.w3.org/2000/svg" xmlns:xlink="http://www.w3.org/1999/xlink">
<g id="graph0" class="graph" transform="scale(1 1) rotate(0) translate(4 169.8)">
<title>dependencies</title>
<polygon fill="white" stroke="transparent" points="-4,4 -4,-169.8 456,-169.8 456,4 -4,4"/>
<text text-anchor="middle" x="226" y="-8.2" font-family="sans-serif" font-size="14.00">dependencies</text>
<g id="clust1" class="cluster">
<title>cluster_ChangeDetectionModule</title>
<polygon fill="none" stroke="black" stroke-dasharray="1,5" points="8,-32.8 8,-157.8 444,-157.8 444,-32.8 8,-32.8"/>
</g>
<g id="clust2" class="cluster">
<title>cluster_ChangeDetectionModule_declarations</title>
<polygon fill="none" stroke="black" points="242,-40.8 242,-92.8 436,-92.8 436,-40.8 242,-40.8"/>
</g>
<g id="clust4" class="cluster">
<title>cluster_ChangeDetectionModule_imports</title>
<polygon fill="none" stroke="black" points="16,-40.8 16,-92.8 234,-92.8 234,-40.8 16,-40.8"/>
</g>
<!-- ChangeDetectionComponent -->
<g id="node1" class="node">
<title>ChangeDetectionComponent</title>
<polygon fill="#ffffb3" stroke="black" points="428.02,-84.8 249.98,-84.8 249.98,-48.8 428.02,-48.8 428.02,-84.8"/>
<text text-anchor="middle" x="339" y="-62.6" font-family="Times,serif" font-size="14.00">ChangeDetectionComponent</text>
</g>
<!-- ChangeDetectionModule -->
<g id="node2" class="node">
<title>ChangeDetectionModule</title>
<polygon fill="#8dd3c7" stroke="black" points="310.24,-149.8 307.24,-153.8 286.24,-153.8 283.24,-149.8 153.76,-149.8 153.76,-113.8 310.24,-113.8 310.24,-149.8"/>
<text text-anchor="middle" x="232" y="-127.6" font-family="Times,serif" font-size="14.00">ChangeDetectionModule</text>
</g>
<!-- ChangeDetectionComponent&#45;&gt;ChangeDetectionModule -->
<g id="edge1" class="edge">
<title>ChangeDetectionComponent&#45;&gt;ChangeDetectionModule</title>
<path fill="none" stroke="black" d="M280.06,-84.91C280.06,-84.91 280.06,-103.79 280.06,-103.79"/>
<polygon fill="black" stroke="black" points="276.56,-103.79 280.06,-113.79 283.56,-103.79 276.56,-103.79"/>
</g>
<!-- ChangeDetectionRoutingModule -->
<g id="node3" class="node">
<title>ChangeDetectionRoutingModule</title>
<polygon fill="#8dd3c7" stroke="black" points="225.86,-84.8 222.86,-88.8 201.86,-88.8 198.86,-84.8 24.14,-84.8 24.14,-48.8 225.86,-48.8 225.86,-84.8"/>
<text text-anchor="middle" x="125" y="-62.6" font-family="Times,serif" font-size="14.00">ChangeDetectionRoutingModule</text>
</g>
<!-- ChangeDetectionRoutingModule&#45;&gt;ChangeDetectionModule -->
<g id="edge2" class="edge">
<title>ChangeDetectionRoutingModule&#45;&gt;ChangeDetectionModule</title>
<path fill="none" stroke="black" d="M189.78,-84.91C189.78,-84.91 189.78,-103.79 189.78,-103.79"/>
<polygon fill="black" stroke="black" points="186.28,-103.79 189.78,-113.79 193.28,-103.79 186.28,-103.79"/>
</g>
</g>
</svg>
