<?xml version="1.0" encoding="UTF-8" standalone="no"?>
<!DOCTYPE svg PUBLIC "-//W3C//DTD SVG 1.1//EN"
 "http://www.w3.org/Graphics/SVG/1.1/DTD/svg11.dtd">
<!-- Generated by graphviz version 5.0.0 (20220707.1540)
 -->
<!-- Title: dependencies Pages: 1 -->
<svg width="550pt" height="174pt"
 viewBox="0.00 0.00 550.00 173.80" xmlns="http://www.w3.org/2000/svg" xmlns:xlink="http://www.w3.org/1999/xlink">
<g id="graph0" class="graph" transform="scale(1 1) rotate(0) translate(4 169.8)">
<title>dependencies</title>
<polygon fill="white" stroke="transparent" points="-4,4 -4,-169.8 546,-169.8 546,4 -4,4"/>
<text text-anchor="middle" x="271" y="-8.2" font-family="sans-serif" font-size="14.00">dependencies</text>
<g id="clust1" class="cluster">
<title>cluster_RenderCircleModule</title>
<polygon fill="none" stroke="black" stroke-dasharray="1,5" points="8,-32.8 8,-157.8 534,-157.8 534,-32.8 8,-32.8"/>
</g>
<g id="clust2" class="cluster">
<title>cluster_RenderCircleModule_declarations</title>
<polygon fill="none" stroke="black" points="220,-40.8 220,-92.8 526,-92.8 526,-40.8 220,-40.8"/>
</g>
<g id="clust5" class="cluster">
<title>cluster_RenderCircleModule_imports</title>
<polygon fill="none" stroke="black" points="16,-40.8 16,-92.8 212,-92.8 212,-40.8 16,-40.8"/>
</g>
<!-- CircleComponent -->
<g id="node1" class="node">
<title>CircleComponent</title>
<polygon fill="#ffffb3" stroke="black" points="517.54,-84.8 402.46,-84.8 402.46,-48.8 517.54,-48.8 517.54,-84.8"/>
<text text-anchor="middle" x="460" y="-62.6" font-family="Times,serif" font-size="14.00">CircleComponent</text>
</g>
<!-- RenderCircleModule -->
<g id="node3" class="node">
<title>RenderCircleModule</title>
<polygon fill="#8dd3c7" stroke="black" points="373.19,-149.8 370.19,-153.8 349.19,-153.8 346.19,-149.8 238.81,-149.8 238.81,-113.8 373.19,-113.8 373.19,-149.8"/>
<text text-anchor="middle" x="306" y="-127.6" font-family="Times,serif" font-size="14.00">RenderCircleModule</text>
</g>
<!-- CircleComponent&#45;&gt;RenderCircleModule -->
<g id="edge1" class="edge">
<title>CircleComponent&#45;&gt;RenderCircleModule</title>
<path fill="none" stroke="black" d="M460,-84.91C460,-104.14 460,-131.8 460,-131.8 460,-131.8 383.1,-131.8 383.1,-131.8"/>
<polygon fill="black" stroke="black" points="383.1,-128.3 373.1,-131.8 383.1,-135.3 383.1,-128.3"/>
</g>
<!-- RenderCircleComponent -->
<g id="node2" class="node">
<title>RenderCircleComponent</title>
<polygon fill="#ffffb3" stroke="black" points="383.97,-84.8 228.03,-84.8 228.03,-48.8 383.97,-48.8 383.97,-84.8"/>
<text text-anchor="middle" x="306" y="-62.6" font-family="Times,serif" font-size="14.00">RenderCircleComponent</text>
</g>
<!-- RenderCircleComponent&#45;&gt;RenderCircleModule -->
<g id="edge2" class="edge">
<title>RenderCircleComponent&#45;&gt;RenderCircleModule</title>
<path fill="none" stroke="black" d="M306,-84.91C306,-84.91 306,-103.79 306,-103.79"/>
<polygon fill="black" stroke="black" points="302.5,-103.79 306,-113.79 309.5,-103.79 302.5,-103.79"/>
</g>
<!-- RenderCircleRoutingModule -->
<g id="node4" class="node">
<title>RenderCircleRoutingModule</title>
<polygon fill="#8dd3c7" stroke="black" points="203.8,-84.8 200.8,-88.8 179.8,-88.8 176.8,-84.8 24.2,-84.8 24.2,-48.8 203.8,-48.8 203.8,-84.8"/>
<text text-anchor="middle" x="114" y="-62.6" font-family="Times,serif" font-size="14.00">RenderCircleRoutingModule</text>
</g>
<!-- RenderCircleRoutingModule&#45;&gt;RenderCircleModule -->
<g id="edge3" class="edge">
<title>RenderCircleRoutingModule&#45;&gt;RenderCircleModule</title>
<path fill="none" stroke="black" d="M114,-84.91C114,-104.14 114,-131.8 114,-131.8 114,-131.8 228.85,-131.8 228.85,-131.8"/>
<polygon fill="black" stroke="black" points="228.85,-135.3 238.85,-131.8 228.85,-128.3 228.85,-135.3"/>
</g>
</g>
</svg>
