<?xml version="1.0" encoding="UTF-8" standalone="no"?>
<!DOCTYPE svg PUBLIC "-//W3C//DTD SVG 1.1//EN"
 "http://www.w3.org/Graphics/SVG/1.1/DTD/svg11.dtd">
<!-- Generated by graphviz version 5.0.0 (20220707.1540)
 -->
<!-- Title: dependencies Pages: 1 -->
<svg width="384pt" height="174pt"
 viewBox="0.00 0.00 384.00 173.80" xmlns="http://www.w3.org/2000/svg" xmlns:xlink="http://www.w3.org/1999/xlink">
<g id="graph0" class="graph" transform="scale(1 1) rotate(0) translate(4 169.8)">
<title>dependencies</title>
<polygon fill="white" stroke="transparent" points="-4,4 -4,-169.8 380,-169.8 380,4 -4,4"/>
<text text-anchor="middle" x="188" y="-8.2" font-family="sans-serif" font-size="14.00">dependencies</text>
<g id="clust1" class="cluster">
<title>cluster_AgSortingModule</title>
<polygon fill="none" stroke="black" stroke-dasharray="1,5" points="8,-32.8 8,-157.8 368,-157.8 368,-32.8 8,-32.8"/>
</g>
<g id="clust2" class="cluster">
<title>cluster_AgSortingModule_declarations</title>
<polygon fill="none" stroke="black" points="204,-40.8 204,-92.8 360,-92.8 360,-40.8 204,-40.8"/>
</g>
<g id="clust4" class="cluster">
<title>cluster_AgSortingModule_imports</title>
<polygon fill="none" stroke="black" points="16,-40.8 16,-92.8 196,-92.8 196,-40.8 16,-40.8"/>
</g>
<!-- AgSortingComponent -->
<g id="node1" class="node">
<title>AgSortingComponent</title>
<polygon fill="#ffffb3" stroke="black" points="351.67,-84.8 212.33,-84.8 212.33,-48.8 351.67,-48.8 351.67,-84.8"/>
<text text-anchor="middle" x="282" y="-62.6" font-family="Times,serif" font-size="14.00">AgSortingComponent</text>
</g>
<!-- AgSortingModule -->
<g id="node2" class="node">
<title>AgSortingModule</title>
<polygon fill="#8dd3c7" stroke="black" points="252.89,-149.8 249.89,-153.8 228.89,-153.8 225.89,-149.8 135.11,-149.8 135.11,-113.8 252.89,-113.8 252.89,-149.8"/>
<text text-anchor="middle" x="194" y="-127.6" font-family="Times,serif" font-size="14.00">AgSortingModule</text>
</g>
<!-- AgSortingComponent&#45;&gt;AgSortingModule -->
<g id="edge1" class="edge">
<title>AgSortingComponent&#45;&gt;AgSortingModule</title>
<path fill="none" stroke="black" d="M232.56,-84.91C232.56,-84.91 232.56,-103.79 232.56,-103.79"/>
<polygon fill="black" stroke="black" points="229.06,-103.79 232.56,-113.79 236.06,-103.79 229.06,-103.79"/>
</g>
<!-- AgSortingRoutingModule -->
<g id="node3" class="node">
<title>AgSortingRoutingModule</title>
<polygon fill="#8dd3c7" stroke="black" points="187.51,-84.8 184.51,-88.8 163.51,-88.8 160.51,-84.8 24.49,-84.8 24.49,-48.8 187.51,-48.8 187.51,-84.8"/>
<text text-anchor="middle" x="106" y="-62.6" font-family="Times,serif" font-size="14.00">AgSortingRoutingModule</text>
</g>
<!-- AgSortingRoutingModule&#45;&gt;AgSortingModule -->
<g id="edge2" class="edge">
<title>AgSortingRoutingModule&#45;&gt;AgSortingModule</title>
<path fill="none" stroke="black" d="M161.28,-84.91C161.28,-84.91 161.28,-103.79 161.28,-103.79"/>
<polygon fill="black" stroke="black" points="157.78,-103.79 161.28,-113.79 164.78,-103.79 157.78,-103.79"/>
</g>
</g>
</svg>
