<?xml version="1.0" encoding="UTF-8" standalone="no"?>
<!DOCTYPE svg PUBLIC "-//W3C//DTD SVG 1.1//EN"
 "http://www.w3.org/Graphics/SVG/1.1/DTD/svg11.dtd">
<!-- Generated by graphviz version 5.0.0 (20220707.1540)
 -->
<!-- Title: dependencies Pages: 1 -->
<svg width="344pt" height="174pt"
 viewBox="0.00 0.00 344.00 173.80" xmlns="http://www.w3.org/2000/svg" xmlns:xlink="http://www.w3.org/1999/xlink">
<g id="graph0" class="graph" transform="scale(1 1) rotate(0) translate(4 169.8)">
<title>dependencies</title>
<polygon fill="white" stroke="transparent" points="-4,4 -4,-169.8 340,-169.8 340,4 -4,4"/>
<text text-anchor="middle" x="168" y="-8.2" font-family="sans-serif" font-size="14.00">dependencies</text>
<g id="clust1" class="cluster">
<title>cluster_TableModule</title>
<polygon fill="none" stroke="black" stroke-dasharray="1,5" points="8,-32.8 8,-157.8 328,-157.8 328,-32.8 8,-32.8"/>
</g>
<g id="clust4" class="cluster">
<title>cluster_TableModule_imports</title>
<polygon fill="none" stroke="black" points="168,-40.8 168,-92.8 320,-92.8 320,-40.8 168,-40.8"/>
</g>
<g id="clust2" class="cluster">
<title>cluster_TableModule_declarations</title>
<polygon fill="none" stroke="black" points="16,-40.8 16,-92.8 160,-92.8 160,-40.8 16,-40.8"/>
</g>
<!-- PostListComponent -->
<g id="node1" class="node">
<title>PostListComponent</title>
<polygon fill="#ffffb3" stroke="black" points="151.73,-84.8 24.27,-84.8 24.27,-48.8 151.73,-48.8 151.73,-84.8"/>
<text text-anchor="middle" x="88" y="-62.6" font-family="Times,serif" font-size="14.00">PostListComponent</text>
</g>
<!-- TableModule -->
<g id="node2" class="node">
<title>TableModule</title>
<polygon fill="#8dd3c7" stroke="black" points="211.92,-149.8 208.92,-153.8 187.92,-153.8 184.92,-149.8 120.08,-149.8 120.08,-113.8 211.92,-113.8 211.92,-149.8"/>
<text text-anchor="middle" x="166" y="-127.6" font-family="Times,serif" font-size="14.00">TableModule</text>
</g>
<!-- PostListComponent&#45;&gt;TableModule -->
<g id="edge1" class="edge">
<title>PostListComponent&#45;&gt;TableModule</title>
<path fill="none" stroke="black" d="M135.95,-84.91C135.95,-84.91 135.95,-103.79 135.95,-103.79"/>
<polygon fill="black" stroke="black" points="132.45,-103.79 135.95,-113.79 139.45,-103.79 132.45,-103.79"/>
</g>
<!-- TableRoutingModule -->
<g id="node3" class="node">
<title>TableRoutingModule</title>
<polygon fill="#8dd3c7" stroke="black" points="312.04,-84.8 309.04,-88.8 288.04,-88.8 285.04,-84.8 175.96,-84.8 175.96,-48.8 312.04,-48.8 312.04,-84.8"/>
<text text-anchor="middle" x="244" y="-62.6" font-family="Times,serif" font-size="14.00">TableRoutingModule</text>
</g>
<!-- TableRoutingModule&#45;&gt;TableModule -->
<g id="edge2" class="edge">
<title>TableRoutingModule&#45;&gt;TableModule</title>
<path fill="none" stroke="black" d="M193.72,-84.91C193.72,-84.91 193.72,-103.79 193.72,-103.79"/>
<polygon fill="black" stroke="black" points="190.22,-103.79 193.72,-113.79 197.22,-103.79 190.22,-103.79"/>
</g>
</g>
</svg>
