<?xml version="1.0" encoding="UTF-8" standalone="no"?>
<!DOCTYPE svg PUBLIC "-//W3C//DTD SVG 1.1//EN"
 "http://www.w3.org/Graphics/SVG/1.1/DTD/svg11.dtd">
<!-- Generated by graphviz version 5.0.0 (20220707.1540)
 -->
<!-- Title: dependencies Pages: 1 -->
<svg width="344pt" height="174pt"
 viewBox="0.00 0.00 344.00 173.80" xmlns="http://www.w3.org/2000/svg" xmlns:xlink="http://www.w3.org/1999/xlink">
<g id="graph0" class="graph" transform="scale(1 1) rotate(0) translate(4 169.8)">
<title>dependencies</title>
<polygon fill="white" stroke="transparent" points="-4,4 -4,-169.8 340,-169.8 340,4 -4,4"/>
<text text-anchor="middle" x="168" y="-8.2" font-family="sans-serif" font-size="14.00">dependencies</text>
<g id="clust1" class="cluster">
<title>cluster_TableModule</title>
<polygon fill="none" stroke="black" stroke-dasharray="1,5" points="8,-32.8 8,-157.8 328,-157.8 328,-32.8 8,-32.8"/>
</g>
<g id="clust2" class="cluster">
<title>cluster_TableModule_declarations</title>
<polygon fill="none" stroke="black" points="176,-40.8 176,-92.8 320,-92.8 320,-40.8 176,-40.8"/>
</g>
<g id="clust4" class="cluster">
<title>cluster_TableModule_imports</title>
<polygon fill="none" stroke="black" points="16,-40.8 16,-92.8 168,-92.8 168,-40.8 16,-40.8"/>
</g>
<!-- PostListComponent -->
<g id="node1" class="node">
<title>PostListComponent</title>
<polygon fill="#ffffb3" stroke="black" points="311.73,-84.8 184.27,-84.8 184.27,-48.8 311.73,-48.8 311.73,-84.8"/>
<text text-anchor="middle" x="248" y="-62.6" font-family="Times,serif" font-size="14.00">PostListComponent</text>
</g>
<!-- TableModule -->
<g id="node2" class="node">
<title>TableModule</title>
<polygon fill="#8dd3c7" stroke="black" points="215.92,-149.8 212.92,-153.8 191.92,-153.8 188.92,-149.8 124.08,-149.8 124.08,-113.8 215.92,-113.8 215.92,-149.8"/>
<text text-anchor="middle" x="170" y="-127.6" font-family="Times,serif" font-size="14.00">TableModule</text>
</g>
<!-- PostListComponent&#45;&gt;TableModule -->
<g id="edge1" class="edge">
<title>PostListComponent&#45;&gt;TableModule</title>
<path fill="none" stroke="black" d="M200.05,-84.91C200.05,-84.91 200.05,-103.79 200.05,-103.79"/>
<polygon fill="black" stroke="black" points="196.55,-103.79 200.05,-113.79 203.55,-103.79 196.55,-103.79"/>
</g>
<!-- TableRoutingModule -->
<g id="node3" class="node">
<title>TableRoutingModule</title>
<polygon fill="#8dd3c7" stroke="black" points="160.04,-84.8 157.04,-88.8 136.04,-88.8 133.04,-84.8 23.96,-84.8 23.96,-48.8 160.04,-48.8 160.04,-84.8"/>
<text text-anchor="middle" x="92" y="-62.6" font-family="Times,serif" font-size="14.00">TableRoutingModule</text>
</g>
<!-- TableRoutingModule&#45;&gt;TableModule -->
<g id="edge2" class="edge">
<title>TableRoutingModule&#45;&gt;TableModule</title>
<path fill="none" stroke="black" d="M142.28,-84.91C142.28,-84.91 142.28,-103.79 142.28,-103.79"/>
<polygon fill="black" stroke="black" points="138.78,-103.79 142.28,-113.79 145.78,-103.79 138.78,-103.79"/>
</g>
</g>
</svg>
