<?xml version="1.0" encoding="UTF-8" standalone="no"?>
<!DOCTYPE svg PUBLIC "-//W3C//DTD SVG 1.1//EN"
 "http://www.w3.org/Graphics/SVG/1.1/DTD/svg11.dtd">
<!-- Generated by graphviz version 5.0.0 (20220707.1540)
 -->
<!-- Title: dependencies Pages: 1 -->
<svg width="332pt" height="174pt"
 viewBox="0.00 0.00 332.00 173.80" xmlns="http://www.w3.org/2000/svg" xmlns:xlink="http://www.w3.org/1999/xlink">
<g id="graph0" class="graph" transform="scale(1 1) rotate(0) translate(4 169.8)">
<title>dependencies</title>
<polygon fill="white" stroke="transparent" points="-4,4 -4,-169.8 328,-169.8 328,4 -4,4"/>
<text text-anchor="middle" x="162" y="-8.2" font-family="sans-serif" font-size="14.00">dependencies</text>
<g id="clust1" class="cluster">
<title>cluster_ProductModule</title>
<polygon fill="none" stroke="black" stroke-dasharray="1,5" points="8,-32.8 8,-157.8 316,-157.8 316,-32.8 8,-32.8"/>
</g>
<g id="clust2" class="cluster">
<title>cluster_ProductModule_declarations</title>
<polygon fill="none" stroke="black" points="138,-40.8 138,-92.8 308,-92.8 308,-40.8 138,-40.8"/>
</g>
<g id="clust4" class="cluster">
<title>cluster_ProductModule_imports</title>
<polygon fill="none" stroke="black" points="16,-40.8 16,-92.8 130,-92.8 130,-40.8 16,-40.8"/>
</g>
<!-- ProductShellComponent -->
<g id="node1" class="node">
<title>ProductShellComponent</title>
<polygon fill="#ffffb3" stroke="black" points="299.66,-84.8 146.34,-84.8 146.34,-48.8 299.66,-48.8 299.66,-84.8"/>
<text text-anchor="middle" x="223" y="-62.6" font-family="Times,serif" font-size="14.00">ProductShellComponent</text>
</g>
<!-- ProductModule -->
<g id="node2" class="node">
<title>ProductModule</title>
<polygon fill="#8dd3c7" stroke="black" points="199.6,-149.8 196.6,-153.8 175.6,-153.8 172.6,-149.8 96.4,-149.8 96.4,-113.8 199.6,-113.8 199.6,-149.8"/>
<text text-anchor="middle" x="148" y="-127.6" font-family="Times,serif" font-size="14.00">ProductModule</text>
</g>
<!-- ProductShellComponent&#45;&gt;ProductModule -->
<g id="edge1" class="edge">
<title>ProductShellComponent&#45;&gt;ProductModule</title>
<path fill="none" stroke="black" d="M172.86,-84.91C172.86,-84.91 172.86,-103.79 172.86,-103.79"/>
<polygon fill="black" stroke="black" points="169.36,-103.79 172.86,-113.79 176.36,-103.79 169.36,-103.79"/>
</g>
<!-- SharedModule -->
<g id="node3" class="node">
<title>SharedModule</title>
<polygon fill="#8dd3c7" stroke="black" points="122.43,-84.8 119.43,-88.8 98.43,-88.8 95.43,-84.8 23.57,-84.8 23.57,-48.8 122.43,-48.8 122.43,-84.8"/>
<text text-anchor="middle" x="73" y="-62.6" font-family="Times,serif" font-size="14.00">SharedModule</text>
</g>
<!-- SharedModule&#45;&gt;ProductModule -->
<g id="edge2" class="edge">
<title>SharedModule&#45;&gt;ProductModule</title>
<path fill="none" stroke="black" d="M109.33,-84.91C109.33,-84.91 109.33,-103.79 109.33,-103.79"/>
<polygon fill="black" stroke="black" points="105.83,-103.79 109.33,-113.79 112.83,-103.79 105.83,-103.79"/>
</g>
</g>
</svg>
