<?xml version="1.0" encoding="UTF-8" standalone="no"?>
<!DOCTYPE svg PUBLIC "-//W3C//DTD SVG 1.1//EN"
 "http://www.w3.org/Graphics/SVG/1.1/DTD/svg11.dtd">
<!-- Generated by graphviz version 5.0.0 (20220707.1540)
 -->
<!-- Title: dependencies Pages: 1 -->
<svg width="420pt" height="174pt"
 viewBox="0.00 0.00 420.00 173.80" xmlns="http://www.w3.org/2000/svg" xmlns:xlink="http://www.w3.org/1999/xlink">
<g id="graph0" class="graph" transform="scale(1 1) rotate(0) translate(4 169.8)">
<title>dependencies</title>
<polygon fill="white" stroke="transparent" points="-4,4 -4,-169.8 416,-169.8 416,4 -4,4"/>
<text text-anchor="middle" x="206" y="-8.2" font-family="sans-serif" font-size="14.00">dependencies</text>
<g id="clust1" class="cluster">
<title>cluster_NoscamdemoModule</title>
<polygon fill="none" stroke="black" stroke-dasharray="1,5" points="8,-32.8 8,-157.8 404,-157.8 404,-32.8 8,-32.8"/>
</g>
<g id="clust2" class="cluster">
<title>cluster_NoscamdemoModule_declarations</title>
<polygon fill="none" stroke="black" points="222,-40.8 222,-92.8 396,-92.8 396,-40.8 222,-40.8"/>
</g>
<g id="clust4" class="cluster">
<title>cluster_NoscamdemoModule_imports</title>
<polygon fill="none" stroke="black" points="16,-40.8 16,-92.8 214,-92.8 214,-40.8 16,-40.8"/>
</g>
<!-- NoscamdemoComponent -->
<g id="node1" class="node">
<title>NoscamdemoComponent</title>
<polygon fill="#ffffb3" stroke="black" points="388.31,-84.8 229.69,-84.8 229.69,-48.8 388.31,-48.8 388.31,-84.8"/>
<text text-anchor="middle" x="309" y="-62.6" font-family="Times,serif" font-size="14.00">NoscamdemoComponent</text>
</g>
<!-- NoscamdemoModule -->
<g id="node2" class="node">
<title>NoscamdemoModule</title>
<polygon fill="#8dd3c7" stroke="black" points="280.03,-149.8 277.03,-153.8 256.03,-153.8 253.03,-149.8 143.97,-149.8 143.97,-113.8 280.03,-113.8 280.03,-149.8"/>
<text text-anchor="middle" x="212" y="-127.6" font-family="Times,serif" font-size="14.00">NoscamdemoModule</text>
</g>
<!-- NoscamdemoComponent&#45;&gt;NoscamdemoModule -->
<g id="edge1" class="edge">
<title>NoscamdemoComponent&#45;&gt;NoscamdemoModule</title>
<path fill="none" stroke="black" d="M255.06,-84.91C255.06,-84.91 255.06,-103.79 255.06,-103.79"/>
<polygon fill="black" stroke="black" points="251.56,-103.79 255.06,-113.79 258.56,-103.79 251.56,-103.79"/>
</g>
<!-- NoscamdemoRoutingModule -->
<g id="node3" class="node">
<title>NoscamdemoRoutingModule</title>
<polygon fill="#8dd3c7" stroke="black" points="205.65,-84.8 202.65,-88.8 181.65,-88.8 178.65,-84.8 24.35,-84.8 24.35,-48.8 205.65,-48.8 205.65,-84.8"/>
<text text-anchor="middle" x="115" y="-62.6" font-family="Times,serif" font-size="14.00">NoscamdemoRoutingModule</text>
</g>
<!-- NoscamdemoRoutingModule&#45;&gt;NoscamdemoModule -->
<g id="edge2" class="edge">
<title>NoscamdemoRoutingModule&#45;&gt;NoscamdemoModule</title>
<path fill="none" stroke="black" d="M174.78,-84.91C174.78,-84.91 174.78,-103.79 174.78,-103.79"/>
<polygon fill="black" stroke="black" points="171.28,-103.79 174.78,-113.79 178.28,-103.79 171.28,-103.79"/>
</g>
</g>
</svg>
