<?xml version="1.0" encoding="UTF-8" standalone="no"?>
<!DOCTYPE svg PUBLIC "-//W3C//DTD SVG 1.1//EN"
 "http://www.w3.org/Graphics/SVG/1.1/DTD/svg11.dtd">
<!-- Generated by graphviz version 5.0.0 (20220707.1540)
 -->
<!-- Title: dependencies Pages: 1 -->
<svg width="392pt" height="174pt"
 viewBox="0.00 0.00 392.00 173.80" xmlns="http://www.w3.org/2000/svg" xmlns:xlink="http://www.w3.org/1999/xlink">
<g id="graph0" class="graph" transform="scale(1 1) rotate(0) translate(4 169.8)">
<title>dependencies</title>
<polygon fill="white" stroke="transparent" points="-4,4 -4,-169.8 388,-169.8 388,4 -4,4"/>
<text text-anchor="middle" x="192" y="-8.2" font-family="sans-serif" font-size="14.00">dependencies</text>
<g id="clust1" class="cluster">
<title>cluster_WorkerappModule</title>
<polygon fill="none" stroke="black" stroke-dasharray="1,5" points="8,-32.8 8,-157.8 376,-157.8 376,-32.8 8,-32.8"/>
</g>
<g id="clust2" class="cluster">
<title>cluster_WorkerappModule_declarations</title>
<polygon fill="none" stroke="black" points="208,-40.8 208,-92.8 368,-92.8 368,-40.8 208,-40.8"/>
</g>
<g id="clust4" class="cluster">
<title>cluster_WorkerappModule_imports</title>
<polygon fill="none" stroke="black" points="16,-40.8 16,-92.8 200,-92.8 200,-40.8 16,-40.8"/>
</g>
<!-- WorkerappComponent -->
<g id="node1" class="node">
<title>WorkerappComponent</title>
<polygon fill="#ffffb3" stroke="black" points="360.3,-84.8 215.7,-84.8 215.7,-48.8 360.3,-48.8 360.3,-84.8"/>
<text text-anchor="middle" x="288" y="-62.6" font-family="Times,serif" font-size="14.00">WorkerappComponent</text>
</g>
<!-- WorkerappModule -->
<g id="node2" class="node">
<title>WorkerappModule</title>
<polygon fill="#8dd3c7" stroke="black" points="259.02,-149.8 256.02,-153.8 235.02,-153.8 232.02,-149.8 136.98,-149.8 136.98,-113.8 259.02,-113.8 259.02,-149.8"/>
<text text-anchor="middle" x="198" y="-127.6" font-family="Times,serif" font-size="14.00">WorkerappModule</text>
</g>
<!-- WorkerappComponent&#45;&gt;WorkerappModule -->
<g id="edge1" class="edge">
<title>WorkerappComponent&#45;&gt;WorkerappModule</title>
<path fill="none" stroke="black" d="M237.56,-84.91C237.56,-84.91 237.56,-103.79 237.56,-103.79"/>
<polygon fill="black" stroke="black" points="234.06,-103.79 237.56,-113.79 241.06,-103.79 234.06,-103.79"/>
</g>
<!-- WorkerappRoutingModule -->
<g id="node3" class="node">
<title>WorkerappRoutingModule</title>
<polygon fill="#8dd3c7" stroke="black" points="191.64,-84.8 188.64,-88.8 167.64,-88.8 164.64,-84.8 24.36,-84.8 24.36,-48.8 191.64,-48.8 191.64,-84.8"/>
<text text-anchor="middle" x="108" y="-62.6" font-family="Times,serif" font-size="14.00">WorkerappRoutingModule</text>
</g>
<!-- WorkerappRoutingModule&#45;&gt;WorkerappModule -->
<g id="edge2" class="edge">
<title>WorkerappRoutingModule&#45;&gt;WorkerappModule</title>
<path fill="none" stroke="black" d="M164.28,-84.91C164.28,-84.91 164.28,-103.79 164.28,-103.79"/>
<polygon fill="black" stroke="black" points="160.78,-103.79 164.28,-113.79 167.78,-103.79 160.78,-103.79"/>
</g>
</g>
</svg>
