<?xml version="1.0" encoding="UTF-8" standalone="no"?>
<!DOCTYPE svg PUBLIC "-//W3C//DTD SVG 1.1//EN"
 "http://www.w3.org/Graphics/SVG/1.1/DTD/svg11.dtd">
<!-- Generated by graphviz version 5.0.0 (20220707.1540)
 -->
<!-- Title: dependencies Pages: 1 -->
<svg width="2109pt" height="174pt"
 viewBox="0.00 0.00 2109.00 173.80" xmlns="http://www.w3.org/2000/svg" xmlns:xlink="http://www.w3.org/1999/xlink">
<g id="graph0" class="graph" transform="scale(1 1) rotate(0) translate(4 169.8)">
<title>dependencies</title>
<polygon fill="white" stroke="transparent" points="-4,4 -4,-169.8 2105,-169.8 2105,4 -4,4"/>
<text text-anchor="middle" x="1050.5" y="-8.2" font-family="sans-serif" font-size="14.00">dependencies</text>
<g id="clust1" class="cluster">
<title>cluster_LazydemoModule</title>
<polygon fill="none" stroke="black" stroke-dasharray="1,5" points="8,-32.8 8,-157.8 2093,-157.8 2093,-32.8 8,-32.8"/>
</g>
<g id="clust2" class="cluster">
<title>cluster_LazydemoModule_declarations</title>
<polygon fill="none" stroke="black" points="372,-40.8 372,-92.8 2085,-92.8 2085,-40.8 372,-40.8"/>
</g>
<g id="clust11" class="cluster">
<title>cluster_LazydemoModule_imports</title>
<polygon fill="none" stroke="black" points="16,-40.8 16,-92.8 364,-92.8 364,-40.8 16,-40.8"/>
</g>
<!-- BusinessCardComponent -->
<g id="node1" class="node">
<title>BusinessCardComponent</title>
<polygon fill="#ffffb3" stroke="black" points="2077.33,-84.8 1918.67,-84.8 1918.67,-48.8 2077.33,-48.8 2077.33,-84.8"/>
<text text-anchor="middle" x="1998" y="-62.6" font-family="Times,serif" font-size="14.00">BusinessCardComponent</text>
</g>
<!-- LazydemoModule -->
<g id="node9" class="node">
<title>LazydemoModule</title>
<polygon fill="#8dd3c7" stroke="black" points="958.14,-149.8 955.14,-153.8 934.14,-153.8 931.14,-149.8 839.86,-149.8 839.86,-113.8 958.14,-113.8 958.14,-149.8"/>
<text text-anchor="middle" x="899" y="-127.6" font-family="Times,serif" font-size="14.00">LazydemoModule</text>
</g>
<!-- BusinessCardComponent&#45;&gt;LazydemoModule -->
<g id="edge1" class="edge">
<title>BusinessCardComponent&#45;&gt;LazydemoModule</title>
<path fill="none" stroke="black" d="M1998,-84.81C1998,-107.29 1998,-142.8 1998,-142.8 1998,-142.8 968.48,-142.8 968.48,-142.8"/>
<polygon fill="black" stroke="black" points="968.48,-139.3 958.48,-142.8 968.48,-146.3 968.48,-139.3"/>
</g>
<!-- DynamicComplexFormComponent -->
<g id="node2" class="node">
<title>DynamicComplexFormComponent</title>
<polygon fill="#ffffb3" stroke="black" points="1901.32,-84.8 1686.68,-84.8 1686.68,-48.8 1901.32,-48.8 1901.32,-84.8"/>
<text text-anchor="middle" x="1794" y="-62.6" font-family="Times,serif" font-size="14.00">DynamicComplexFormComponent</text>
</g>
<!-- DynamicComplexFormComponent&#45;&gt;LazydemoModule -->
<g id="edge2" class="edge">
<title>DynamicComplexFormComponent&#45;&gt;LazydemoModule</title>
<path fill="none" stroke="black" d="M1794,-84.93C1794,-105.37 1794,-135.8 1794,-135.8 1794,-135.8 968.42,-135.8 968.42,-135.8"/>
<polygon fill="black" stroke="black" points="968.42,-132.3 958.42,-135.8 968.42,-139.3 968.42,-132.3"/>
</g>
<!-- DynamicComponentLoadingComponent -->
<g id="node3" class="node">
<title>DynamicComponentLoadingComponent</title>
<polygon fill="#ffffb3" stroke="black" points="1669.14,-84.8 1424.86,-84.8 1424.86,-48.8 1669.14,-48.8 1669.14,-84.8"/>
<text text-anchor="middle" x="1547" y="-62.6" font-family="Times,serif" font-size="14.00">DynamicComponentLoadingComponent</text>
</g>
<!-- DynamicComponentLoadingComponent&#45;&gt;LazydemoModule -->
<g id="edge3" class="edge">
<title>DynamicComponentLoadingComponent&#45;&gt;LazydemoModule</title>
<path fill="none" stroke="black" d="M1547,-85.07C1547,-103.36 1547,-128.8 1547,-128.8 1547,-128.8 968.22,-128.8 968.22,-128.8"/>
<polygon fill="black" stroke="black" points="968.22,-125.3 958.22,-128.8 968.22,-132.3 968.22,-125.3"/>
</g>
<!-- DynamicComponentLoadingScamComponent -->
<g id="node4" class="node">
<title>DynamicComponentLoadingScamComponent</title>
<polygon fill="#ffffb3" stroke="black" points="1406.74,-84.8 1131.26,-84.8 1131.26,-48.8 1406.74,-48.8 1406.74,-84.8"/>
<text text-anchor="middle" x="1269" y="-62.6" font-family="Times,serif" font-size="14.00">DynamicComponentLoadingScamComponent</text>
</g>
<!-- DynamicComponentLoadingScamComponent&#45;&gt;LazydemoModule -->
<g id="edge4" class="edge">
<title>DynamicComponentLoadingScamComponent&#45;&gt;LazydemoModule</title>
<path fill="none" stroke="black" d="M1269,-84.81C1269,-100.85 1269,-121.8 1269,-121.8 1269,-121.8 968.45,-121.8 968.45,-121.8"/>
<polygon fill="black" stroke="black" points="968.45,-118.3 958.45,-121.8 968.45,-125.3 968.45,-118.3"/>
</g>
<!-- DynamicFormControlComponent -->
<g id="node5" class="node">
<title>DynamicFormControlComponent</title>
<polygon fill="#ffffb3" stroke="black" points="1112.77,-84.8 907.23,-84.8 907.23,-48.8 1112.77,-48.8 1112.77,-84.8"/>
<text text-anchor="middle" x="1010" y="-62.6" font-family="Times,serif" font-size="14.00">DynamicFormControlComponent</text>
</g>
<!-- DynamicFormControlComponent&#45;&gt;LazydemoModule -->
<g id="edge5" class="edge">
<title>DynamicFormControlComponent&#45;&gt;LazydemoModule</title>
<path fill="none" stroke="black" d="M932.72,-84.91C932.72,-84.91 932.72,-103.79 932.72,-103.79"/>
<polygon fill="black" stroke="black" points="929.22,-103.79 932.72,-113.79 936.22,-103.79 929.22,-103.79"/>
</g>
<!-- DynamicSimpleFormComponent -->
<g id="node6" class="node">
<title>DynamicSimpleFormComponent</title>
<polygon fill="#ffffb3" stroke="black" points="889.16,-84.8 686.84,-84.8 686.84,-48.8 889.16,-48.8 889.16,-84.8"/>
<text text-anchor="middle" x="788" y="-62.6" font-family="Times,serif" font-size="14.00">DynamicSimpleFormComponent</text>
</g>
<!-- DynamicSimpleFormComponent&#45;&gt;LazydemoModule -->
<g id="edge6" class="edge">
<title>DynamicSimpleFormComponent&#45;&gt;LazydemoModule</title>
<path fill="none" stroke="black" d="M864.51,-84.91C864.51,-84.91 864.51,-103.79 864.51,-103.79"/>
<polygon fill="black" stroke="black" points="861.01,-103.79 864.51,-113.79 868.01,-103.79 861.01,-103.79"/>
</g>
<!-- LazydemoComponent -->
<g id="node7" class="node">
<title>LazydemoComponent</title>
<polygon fill="#ffffb3" stroke="black" points="668.41,-84.8 527.59,-84.8 527.59,-48.8 668.41,-48.8 668.41,-84.8"/>
<text text-anchor="middle" x="598" y="-62.6" font-family="Times,serif" font-size="14.00">LazydemoComponent</text>
</g>
<!-- LazydemoComponent&#45;&gt;LazydemoModule -->
<g id="edge7" class="edge">
<title>LazydemoComponent&#45;&gt;LazydemoModule</title>
<path fill="none" stroke="black" d="M598,-84.81C598,-100.85 598,-121.8 598,-121.8 598,-121.8 829.53,-121.8 829.53,-121.8"/>
<polygon fill="black" stroke="black" points="829.53,-125.3 839.53,-121.8 829.53,-118.3 829.53,-125.3"/>
</g>
<!-- UserListComponent -->
<g id="node8" class="node">
<title>UserListComponent</title>
<polygon fill="#ffffb3" stroke="black" points="509.55,-84.8 380.45,-84.8 380.45,-48.8 509.55,-48.8 509.55,-84.8"/>
<text text-anchor="middle" x="445" y="-62.6" font-family="Times,serif" font-size="14.00">UserListComponent</text>
</g>
<!-- UserListComponent&#45;&gt;LazydemoModule -->
<g id="edge8" class="edge">
<title>UserListComponent&#45;&gt;LazydemoModule</title>
<path fill="none" stroke="black" d="M445,-85.07C445,-103.36 445,-128.8 445,-128.8 445,-128.8 829.65,-128.8 829.65,-128.8"/>
<polygon fill="black" stroke="black" points="829.65,-132.3 839.65,-128.8 829.65,-125.3 829.65,-132.3"/>
</g>
<!-- CustomMaterialModule -->
<g id="node10" class="node">
<title>CustomMaterialModule</title>
<polygon fill="#8dd3c7" stroke="black" points="356.04,-84.8 353.04,-88.8 332.04,-88.8 329.04,-84.8 205.96,-84.8 205.96,-48.8 356.04,-48.8 356.04,-84.8"/>
<text text-anchor="middle" x="281" y="-62.6" font-family="Times,serif" font-size="14.00">CustomMaterialModule</text>
</g>
<!-- CustomMaterialModule&#45;&gt;LazydemoModule -->
<g id="edge9" class="edge">
<title>CustomMaterialModule&#45;&gt;LazydemoModule</title>
<path fill="none" stroke="black" d="M281,-84.93C281,-105.37 281,-135.8 281,-135.8 281,-135.8 829.74,-135.8 829.74,-135.8"/>
<polygon fill="black" stroke="black" points="829.74,-139.3 839.74,-135.8 829.74,-132.3 829.74,-139.3"/>
</g>
<!-- LazydemoRoutingModule -->
<g id="node11" class="node">
<title>LazydemoRoutingModule</title>
<polygon fill="#8dd3c7" stroke="black" points="187.75,-84.8 184.75,-88.8 163.75,-88.8 160.75,-84.8 24.25,-84.8 24.25,-48.8 187.75,-48.8 187.75,-84.8"/>
<text text-anchor="middle" x="106" y="-62.6" font-family="Times,serif" font-size="14.00">LazydemoRoutingModule</text>
</g>
<!-- LazydemoRoutingModule&#45;&gt;LazydemoModule -->
<g id="edge10" class="edge">
<title>LazydemoRoutingModule&#45;&gt;LazydemoModule</title>
<path fill="none" stroke="black" d="M106,-84.81C106,-107.29 106,-142.8 106,-142.8 106,-142.8 829.72,-142.8 829.72,-142.8"/>
<polygon fill="black" stroke="black" points="829.72,-146.3 839.72,-142.8 829.72,-139.3 829.72,-146.3"/>
</g>
</g>
</svg>
