<?xml version="1.0" encoding="UTF-8" standalone="no"?>
<!DOCTYPE svg PUBLIC "-//W3C//DTD SVG 1.1//EN"
 "http://www.w3.org/Graphics/SVG/1.1/DTD/svg11.dtd">
<!-- Generated by graphviz version 5.0.0 (20220707.1540)
 -->
<!-- Title: dependencies Pages: 1 -->
<svg width="472pt" height="174pt"
 viewBox="0.00 0.00 472.00 173.80" xmlns="http://www.w3.org/2000/svg" xmlns:xlink="http://www.w3.org/1999/xlink">
<g id="graph0" class="graph" transform="scale(1 1) rotate(0) translate(4 169.8)">
<title>dependencies</title>
<polygon fill="white" stroke="transparent" points="-4,4 -4,-169.8 468,-169.8 468,4 -4,4"/>
<text text-anchor="middle" x="232" y="-8.2" font-family="sans-serif" font-size="14.00">dependencies</text>
<g id="clust1" class="cluster">
<title>cluster_UsersStoreFeatureModule</title>
<polygon fill="none" stroke="black" stroke-dasharray="1,5" points="8,-32.8 8,-157.8 456,-157.8 456,-32.8 8,-32.8"/>
</g>
<g id="clust2" class="cluster">
<title>cluster_UsersStoreFeatureModule_declarations</title>
<polygon fill="none" stroke="black" points="248,-40.8 248,-92.8 448,-92.8 448,-40.8 248,-40.8"/>
</g>
<g id="clust4" class="cluster">
<title>cluster_UsersStoreFeatureModule_imports</title>
<polygon fill="none" stroke="black" points="16,-40.8 16,-92.8 240,-92.8 240,-40.8 16,-40.8"/>
</g>
<!-- UsersStoreFeatureComponent -->
<g id="node1" class="node">
<title>UsersStoreFeatureComponent</title>
<polygon fill="#ffffb3" stroke="black" points="440.25,-84.8 255.75,-84.8 255.75,-48.8 440.25,-48.8 440.25,-84.8"/>
<text text-anchor="middle" x="348" y="-62.6" font-family="Times,serif" font-size="14.00">UsersStoreFeatureComponent</text>
</g>
<!-- UsersStoreFeatureModule -->
<g id="node2" class="node">
<title>UsersStoreFeatureModule</title>
<polygon fill="#8dd3c7" stroke="black" points="319.47,-149.8 316.47,-153.8 295.47,-153.8 292.47,-149.8 156.53,-149.8 156.53,-113.8 319.47,-113.8 319.47,-149.8"/>
<text text-anchor="middle" x="238" y="-127.6" font-family="Times,serif" font-size="14.00">UsersStoreFeatureModule</text>
</g>
<!-- UsersStoreFeatureComponent&#45;&gt;UsersStoreFeatureModule -->
<g id="edge1" class="edge">
<title>UsersStoreFeatureComponent&#45;&gt;UsersStoreFeatureModule</title>
<path fill="none" stroke="black" d="M287.56,-84.91C287.56,-84.91 287.56,-103.79 287.56,-103.79"/>
<polygon fill="black" stroke="black" points="284.06,-103.79 287.56,-113.79 291.06,-103.79 284.06,-103.79"/>
</g>
<!-- UsersStoreFeatureRoutingModule -->
<g id="node3" class="node">
<title>UsersStoreFeatureRoutingModule</title>
<polygon fill="#8dd3c7" stroke="black" points="232.08,-84.8 229.08,-88.8 208.08,-88.8 205.08,-84.8 23.92,-84.8 23.92,-48.8 232.08,-48.8 232.08,-84.8"/>
<text text-anchor="middle" x="128" y="-62.6" font-family="Times,serif" font-size="14.00">UsersStoreFeatureRoutingModule</text>
</g>
<!-- UsersStoreFeatureRoutingModule&#45;&gt;UsersStoreFeatureModule -->
<g id="edge2" class="edge">
<title>UsersStoreFeatureRoutingModule&#45;&gt;UsersStoreFeatureModule</title>
<path fill="none" stroke="black" d="M194.28,-84.91C194.28,-84.91 194.28,-103.79 194.28,-103.79"/>
<polygon fill="black" stroke="black" points="190.78,-103.79 194.28,-113.79 197.78,-103.79 190.78,-103.79"/>
</g>
</g>
</svg>
