<?xml version="1.0" encoding="UTF-8" standalone="no"?>
<!DOCTYPE svg PUBLIC "-//W3C//DTD SVG 1.1//EN"
 "http://www.w3.org/Graphics/SVG/1.1/DTD/svg11.dtd">
<!-- Generated by graphviz version 5.0.0 (20220707.1540)
 -->
<!-- Title: dependencies Pages: 1 -->
<svg width="835pt" height="174pt"
 viewBox="0.00 0.00 835.00 173.80" xmlns="http://www.w3.org/2000/svg" xmlns:xlink="http://www.w3.org/1999/xlink">
<g id="graph0" class="graph" transform="scale(1 1) rotate(0) translate(4 169.8)">
<title>dependencies</title>
<polygon fill="white" stroke="transparent" points="-4,4 -4,-169.8 831,-169.8 831,4 -4,4"/>
<text text-anchor="middle" x="413.5" y="-8.2" font-family="sans-serif" font-size="14.00">dependencies</text>
<g id="clust1" class="cluster">
<title>cluster_ContactsModule</title>
<polygon fill="none" stroke="black" stroke-dasharray="1,5" points="8,-32.8 8,-157.8 819,-157.8 819,-32.8 8,-32.8"/>
</g>
<g id="clust2" class="cluster">
<title>cluster_ContactsModule_declarations</title>
<polygon fill="none" stroke="black" points="194,-40.8 194,-92.8 811,-92.8 811,-40.8 194,-40.8"/>
</g>
<g id="clust7" class="cluster">
<title>cluster_ContactsModule_imports</title>
<polygon fill="none" stroke="black" points="16,-40.8 16,-92.8 186,-92.8 186,-40.8 16,-40.8"/>
</g>
<!-- AddContactComponent -->
<g id="node1" class="node">
<title>AddContactComponent</title>
<polygon fill="#ffffb3" stroke="black" points="803.49,-84.8 654.51,-84.8 654.51,-48.8 803.49,-48.8 803.49,-84.8"/>
<text text-anchor="middle" x="729" y="-62.6" font-family="Times,serif" font-size="14.00">AddContactComponent</text>
</g>
<!-- ContactsModule -->
<g id="node5" class="node">
<title>ContactsModule</title>
<polygon fill="#8dd3c7" stroke="black" points="461.05,-149.8 458.05,-153.8 437.05,-153.8 434.05,-149.8 352.95,-149.8 352.95,-113.8 461.05,-113.8 461.05,-149.8"/>
<text text-anchor="middle" x="407" y="-127.6" font-family="Times,serif" font-size="14.00">ContactsModule</text>
</g>
<!-- AddContactComponent&#45;&gt;ContactsModule -->
<g id="edge1" class="edge">
<title>AddContactComponent&#45;&gt;ContactsModule</title>
<path fill="none" stroke="black" d="M729,-85.08C729,-106.12 729,-137.8 729,-137.8 729,-137.8 471.26,-137.8 471.26,-137.8"/>
<polygon fill="black" stroke="black" points="471.26,-134.3 461.26,-137.8 471.26,-141.3 471.26,-134.3"/>
</g>
<!-- ContactListComponent -->
<g id="node2" class="node">
<title>ContactListComponent</title>
<polygon fill="#ffffb3" stroke="black" points="636.16,-84.8 489.84,-84.8 489.84,-48.8 636.16,-48.8 636.16,-84.8"/>
<text text-anchor="middle" x="563" y="-62.6" font-family="Times,serif" font-size="14.00">ContactListComponent</text>
</g>
<!-- ContactListComponent&#45;&gt;ContactsModule -->
<g id="edge2" class="edge">
<title>ContactListComponent&#45;&gt;ContactsModule</title>
<path fill="none" stroke="black" d="M563,-84.82C563,-102.17 563,-125.8 563,-125.8 563,-125.8 471.12,-125.8 471.12,-125.8"/>
<polygon fill="black" stroke="black" points="471.12,-122.3 461.12,-125.8 471.12,-129.3 471.12,-122.3"/>
</g>
<!-- ContactsComponent -->
<g id="node3" class="node">
<title>ContactsComponent</title>
<polygon fill="#ffffb3" stroke="black" points="472.32,-84.8 341.68,-84.8 341.68,-48.8 472.32,-48.8 472.32,-84.8"/>
<text text-anchor="middle" x="407" y="-62.6" font-family="Times,serif" font-size="14.00">ContactsComponent</text>
</g>
<!-- ContactsComponent&#45;&gt;ContactsModule -->
<g id="edge3" class="edge">
<title>ContactsComponent&#45;&gt;ContactsModule</title>
<path fill="none" stroke="black" d="M407,-84.91C407,-84.91 407,-103.79 407,-103.79"/>
<polygon fill="black" stroke="black" points="403.5,-103.79 407,-113.79 410.5,-103.79 403.5,-103.79"/>
</g>
<!-- HeaderComponent -->
<g id="node4" class="node">
<title>HeaderComponent</title>
<polygon fill="#ffffb3" stroke="black" points="323.75,-84.8 202.25,-84.8 202.25,-48.8 323.75,-48.8 323.75,-84.8"/>
<text text-anchor="middle" x="263" y="-62.6" font-family="Times,serif" font-size="14.00">HeaderComponent</text>
</g>
<!-- HeaderComponent&#45;&gt;ContactsModule -->
<g id="edge4" class="edge">
<title>HeaderComponent&#45;&gt;ContactsModule</title>
<path fill="none" stroke="black" d="M263,-84.82C263,-102.17 263,-125.8 263,-125.8 263,-125.8 342.56,-125.8 342.56,-125.8"/>
<polygon fill="black" stroke="black" points="342.56,-129.3 352.56,-125.8 342.56,-122.3 342.56,-129.3"/>
</g>
<!-- ContactsRoutingModule -->
<g id="node6" class="node">
<title>ContactsRoutingModule</title>
<polygon fill="#8dd3c7" stroke="black" points="177.66,-84.8 174.66,-88.8 153.66,-88.8 150.66,-84.8 24.34,-84.8 24.34,-48.8 177.66,-48.8 177.66,-84.8"/>
<text text-anchor="middle" x="101" y="-62.6" font-family="Times,serif" font-size="14.00">ContactsRoutingModule</text>
</g>
<!-- ContactsRoutingModule&#45;&gt;ContactsModule -->
<g id="edge5" class="edge">
<title>ContactsRoutingModule&#45;&gt;ContactsModule</title>
<path fill="none" stroke="black" d="M101,-85.08C101,-106.12 101,-137.8 101,-137.8 101,-137.8 342.65,-137.8 342.65,-137.8"/>
<polygon fill="black" stroke="black" points="342.65,-141.3 352.65,-137.8 342.65,-134.3 342.65,-141.3"/>
</g>
</g>
</svg>
