<?xml version="1.0" encoding="UTF-8" standalone="no"?>
<!DOCTYPE svg PUBLIC "-//W3C//DTD SVG 1.1//EN"
 "http://www.w3.org/Graphics/SVG/1.1/DTD/svg11.dtd">
<!-- Generated by graphviz version 5.0.0 (20220707.1540)
 -->
<!-- Title: dependencies Pages: 1 -->
<svg width="530pt" height="174pt"
 viewBox="0.00 0.00 530.00 173.80" xmlns="http://www.w3.org/2000/svg" xmlns:xlink="http://www.w3.org/1999/xlink">
<g id="graph0" class="graph" transform="scale(1 1) rotate(0) translate(4 169.8)">
<title>dependencies</title>
<polygon fill="white" stroke="transparent" points="-4,4 -4,-169.8 526,-169.8 526,4 -4,4"/>
<text text-anchor="middle" x="261" y="-8.2" font-family="sans-serif" font-size="14.00">dependencies</text>
<g id="clust1" class="cluster">
<title>cluster_AggriddemoModule</title>
<polygon fill="none" stroke="black" stroke-dasharray="1,5" points="8,-32.8 8,-157.8 514,-157.8 514,-32.8 8,-32.8"/>
</g>
<g id="clust2" class="cluster">
<title>cluster_AggriddemoModule_declarations</title>
<polygon fill="none" stroke="black" points="338,-40.8 338,-92.8 506,-92.8 506,-40.8 338,-40.8"/>
</g>
<g id="clust4" class="cluster">
<title>cluster_AggriddemoModule_imports</title>
<polygon fill="none" stroke="black" points="16,-40.8 16,-92.8 330,-92.8 330,-40.8 16,-40.8"/>
</g>
<!-- AggriddemoComponent -->
<g id="node1" class="node">
<title>AggriddemoComponent</title>
<polygon fill="#ffffb3" stroke="black" points="498.1,-84.8 345.9,-84.8 345.9,-48.8 498.1,-48.8 498.1,-84.8"/>
<text text-anchor="middle" x="422" y="-62.6" font-family="Times,serif" font-size="14.00">AggriddemoComponent</text>
</g>
<!-- AggriddemoModule -->
<g id="node2" class="node">
<title>AggriddemoModule</title>
<polygon fill="#8dd3c7" stroke="black" points="299.32,-149.8 296.32,-153.8 275.32,-153.8 272.32,-149.8 168.68,-149.8 168.68,-113.8 299.32,-113.8 299.32,-149.8"/>
<text text-anchor="middle" x="234" y="-127.6" font-family="Times,serif" font-size="14.00">AggriddemoModule</text>
</g>
<!-- AggriddemoComponent&#45;&gt;AggriddemoModule -->
<g id="edge1" class="edge">
<title>AggriddemoComponent&#45;&gt;AggriddemoModule</title>
<path fill="none" stroke="black" d="M422,-84.91C422,-104.14 422,-131.8 422,-131.8 422,-131.8 309.23,-131.8 309.23,-131.8"/>
<polygon fill="black" stroke="black" points="309.23,-128.3 299.23,-131.8 309.23,-135.3 309.23,-128.3"/>
</g>
<!-- AggriddemoRoutingModule -->
<g id="node3" class="node">
<title>AggriddemoRoutingModule</title>
<polygon fill="#8dd3c7" stroke="black" points="321.94,-84.8 318.94,-88.8 297.94,-88.8 294.94,-84.8 146.06,-84.8 146.06,-48.8 321.94,-48.8 321.94,-84.8"/>
<text text-anchor="middle" x="234" y="-62.6" font-family="Times,serif" font-size="14.00">AggriddemoRoutingModule</text>
</g>
<!-- AggriddemoRoutingModule&#45;&gt;AggriddemoModule -->
<g id="edge2" class="edge">
<title>AggriddemoRoutingModule&#45;&gt;AggriddemoModule</title>
<path fill="none" stroke="black" d="M234,-84.91C234,-84.91 234,-103.79 234,-103.79"/>
<polygon fill="black" stroke="black" points="230.5,-103.79 234,-113.79 237.5,-103.79 230.5,-103.79"/>
</g>
<!-- ToolbarModule -->
<g id="node4" class="node">
<title>ToolbarModule</title>
<polygon fill="#8dd3c7" stroke="black" points="127.87,-84.8 124.87,-88.8 103.87,-88.8 100.87,-84.8 24.13,-84.8 24.13,-48.8 127.87,-48.8 127.87,-84.8"/>
<text text-anchor="middle" x="76" y="-62.6" font-family="Times,serif" font-size="14.00">ToolbarModule</text>
</g>
<!-- ToolbarModule&#45;&gt;AggriddemoModule -->
<g id="edge3" class="edge">
<title>ToolbarModule&#45;&gt;AggriddemoModule</title>
<path fill="none" stroke="black" d="M76,-84.91C76,-104.14 76,-131.8 76,-131.8 76,-131.8 158.82,-131.8 158.82,-131.8"/>
<polygon fill="black" stroke="black" points="158.82,-135.3 168.82,-131.8 158.82,-128.3 158.82,-135.3"/>
</g>
</g>
</svg>
