<?xml version="1.0" encoding="UTF-8" standalone="no"?>
<!DOCTYPE svg PUBLIC "-//W3C//DTD SVG 1.1//EN"
 "http://www.w3.org/Graphics/SVG/1.1/DTD/svg11.dtd">
<!-- Generated by graphviz version 5.0.0 (20220707.1540)
 -->
<!-- Title: dependencies Pages: 1 -->
<svg width="732pt" height="174pt"
 viewBox="0.00 0.00 732.00 173.80" xmlns="http://www.w3.org/2000/svg" xmlns:xlink="http://www.w3.org/1999/xlink">
<g id="graph0" class="graph" transform="scale(1 1) rotate(0) translate(4 169.8)">
<title>dependencies</title>
<polygon fill="white" stroke="transparent" points="-4,4 -4,-169.8 728,-169.8 728,4 -4,4"/>
<text text-anchor="middle" x="362" y="-8.2" font-family="sans-serif" font-size="14.00">dependencies</text>
<g id="clust1" class="cluster">
<title>cluster_SimpleCachingDemoModule</title>
<polygon fill="none" stroke="black" stroke-dasharray="1,5" points="8,-32.8 8,-157.8 716,-157.8 716,-32.8 8,-32.8"/>
</g>
<g id="clust2" class="cluster">
<title>cluster_SimpleCachingDemoModule_declarations</title>
<polygon fill="none" stroke="black" points="490,-40.8 490,-92.8 708,-92.8 708,-40.8 490,-40.8"/>
</g>
<g id="clust4" class="cluster">
<title>cluster_SimpleCachingDemoModule_imports</title>
<polygon fill="none" stroke="black" points="240,-40.8 240,-92.8 482,-92.8 482,-40.8 240,-40.8"/>
</g>
<g id="clust7" class="cluster">
<title>cluster_SimpleCachingDemoModule_providers</title>
<polygon fill="none" stroke="black" points="16,-40.8 16,-92.8 232,-92.8 232,-40.8 16,-40.8"/>
</g>
<!-- SimpleCachingDemoComponent -->
<g id="node1" class="node">
<title>SimpleCachingDemoComponent</title>
<polygon fill="#ffffb3" stroke="black" points="699.87,-84.8 498.13,-84.8 498.13,-48.8 699.87,-48.8 699.87,-84.8"/>
<text text-anchor="middle" x="599" y="-62.6" font-family="Times,serif" font-size="14.00">SimpleCachingDemoComponent</text>
</g>
<!-- SimpleCachingDemoModule -->
<g id="node2" class="node">
<title>SimpleCachingDemoModule</title>
<polygon fill="#8dd3c7" stroke="black" points="451.09,-149.8 448.09,-153.8 427.09,-153.8 424.09,-149.8 270.91,-149.8 270.91,-113.8 451.09,-113.8 451.09,-149.8"/>
<text text-anchor="middle" x="361" y="-127.6" font-family="Times,serif" font-size="14.00">SimpleCachingDemoModule</text>
</g>
<!-- SimpleCachingDemoComponent&#45;&gt;SimpleCachingDemoModule -->
<g id="edge1" class="edge">
<title>SimpleCachingDemoComponent&#45;&gt;SimpleCachingDemoModule</title>
<path fill="none" stroke="black" d="M599,-84.91C599,-104.14 599,-131.8 599,-131.8 599,-131.8 461.32,-131.8 461.32,-131.8"/>
<polygon fill="black" stroke="black" points="461.32,-128.3 451.32,-131.8 461.32,-135.3 461.32,-128.3"/>
</g>
<!-- SimpleCachingDemoRoutingModule -->
<g id="node3" class="node">
<title>SimpleCachingDemoRoutingModule</title>
<polygon fill="#8dd3c7" stroke="black" points="473.71,-84.8 470.71,-88.8 449.71,-88.8 446.71,-84.8 248.29,-84.8 248.29,-48.8 473.71,-48.8 473.71,-84.8"/>
<text text-anchor="middle" x="361" y="-62.6" font-family="Times,serif" font-size="14.00">SimpleCachingDemoRoutingModule</text>
</g>
<!-- SimpleCachingDemoRoutingModule&#45;&gt;SimpleCachingDemoModule -->
<g id="edge2" class="edge">
<title>SimpleCachingDemoRoutingModule&#45;&gt;SimpleCachingDemoModule</title>
<path fill="none" stroke="black" d="M361,-84.91C361,-84.91 361,-103.79 361,-103.79"/>
<polygon fill="black" stroke="black" points="357.5,-103.79 361,-113.79 364.5,-103.79 357.5,-103.79"/>
</g>
<!-- SimpleCachingService -->
<g id="node4" class="node">
<title>SimpleCachingService</title>
<ellipse fill="#fdb462" stroke="black" cx="124" cy="-66.8" rx="99.58" ry="18"/>
<text text-anchor="middle" x="124" y="-62.6" font-family="Times,serif" font-size="14.00">SimpleCachingService</text>
</g>
<!-- SimpleCachingService&#45;&gt;SimpleCachingDemoModule -->
<g id="edge3" class="edge">
<title>SimpleCachingService&#45;&gt;SimpleCachingDemoModule</title>
<path fill="none" stroke="black" d="M124,-84.91C124,-104.14 124,-131.8 124,-131.8 124,-131.8 260.72,-131.8 260.72,-131.8"/>
<polygon fill="black" stroke="black" points="260.72,-135.3 270.72,-131.8 260.72,-128.3 260.72,-135.3"/>
</g>
</g>
</svg>
