<?xml version="1.0" encoding="UTF-8" standalone="no"?>
<!DOCTYPE svg PUBLIC "-//W3C//DTD SVG 1.1//EN"
 "http://www.w3.org/Graphics/SVG/1.1/DTD/svg11.dtd">
<!-- Generated by graphviz version 5.0.0 (20220707.1540)
 -->
<!-- Title: dependencies Pages: 1 -->
<svg width="362pt" height="174pt"
 viewBox="0.00 0.00 362.00 173.80" xmlns="http://www.w3.org/2000/svg" xmlns:xlink="http://www.w3.org/1999/xlink">
<g id="graph0" class="graph" transform="scale(1 1) rotate(0) translate(4 169.8)">
<title>dependencies</title>
<polygon fill="white" stroke="transparent" points="-4,4 -4,-169.8 358,-169.8 358,4 -4,4"/>
<text text-anchor="middle" x="177" y="-8.2" font-family="sans-serif" font-size="14.00">dependencies</text>
<g id="clust1" class="cluster">
<title>cluster_TreegridModule</title>
<polygon fill="none" stroke="black" stroke-dasharray="1,5" points="8,-32.8 8,-157.8 346,-157.8 346,-32.8 8,-32.8"/>
</g>
<g id="clust2" class="cluster">
<title>cluster_TreegridModule_declarations</title>
<polygon fill="none" stroke="black" points="192,-40.8 192,-92.8 338,-92.8 338,-40.8 192,-40.8"/>
</g>
<g id="clust4" class="cluster">
<title>cluster_TreegridModule_imports</title>
<polygon fill="none" stroke="black" points="16,-40.8 16,-92.8 184,-92.8 184,-40.8 16,-40.8"/>
</g>
<!-- TreegridComponent -->
<g id="node1" class="node">
<title>TreegridComponent</title>
<polygon fill="#ffffb3" stroke="black" points="329.53,-84.8 200.47,-84.8 200.47,-48.8 329.53,-48.8 329.53,-84.8"/>
<text text-anchor="middle" x="265" y="-62.6" font-family="Times,serif" font-size="14.00">TreegridComponent</text>
</g>
<!-- TreegridModule -->
<g id="node2" class="node">
<title>TreegridModule</title>
<polygon fill="#8dd3c7" stroke="black" points="235.75,-149.8 232.75,-153.8 211.75,-153.8 208.75,-149.8 128.25,-149.8 128.25,-113.8 235.75,-113.8 235.75,-149.8"/>
<text text-anchor="middle" x="182" y="-127.6" font-family="Times,serif" font-size="14.00">TreegridModule</text>
</g>
<!-- TreegridComponent&#45;&gt;TreegridModule -->
<g id="edge1" class="edge">
<title>TreegridComponent&#45;&gt;TreegridModule</title>
<path fill="none" stroke="black" d="M218.06,-84.91C218.06,-84.91 218.06,-103.79 218.06,-103.79"/>
<polygon fill="black" stroke="black" points="214.56,-103.79 218.06,-113.79 221.56,-103.79 214.56,-103.79"/>
</g>
<!-- TreegridRoutingModule -->
<g id="node3" class="node">
<title>TreegridRoutingModule</title>
<polygon fill="#8dd3c7" stroke="black" points="176.36,-84.8 173.36,-88.8 152.36,-88.8 149.36,-84.8 23.64,-84.8 23.64,-48.8 176.36,-48.8 176.36,-84.8"/>
<text text-anchor="middle" x="100" y="-62.6" font-family="Times,serif" font-size="14.00">TreegridRoutingModule</text>
</g>
<!-- TreegridRoutingModule&#45;&gt;TreegridModule -->
<g id="edge2" class="edge">
<title>TreegridRoutingModule&#45;&gt;TreegridModule</title>
<path fill="none" stroke="black" d="M152.28,-84.91C152.28,-84.91 152.28,-103.79 152.28,-103.79"/>
<polygon fill="black" stroke="black" points="148.78,-103.79 152.28,-113.79 155.78,-103.79 148.78,-103.79"/>
</g>
</g>
</svg>
