<?xml version="1.0" encoding="UTF-8" standalone="no"?>
<!DOCTYPE svg PUBLIC "-//W3C//DTD SVG 1.1//EN"
 "http://www.w3.org/Graphics/SVG/1.1/DTD/svg11.dtd">
<!-- Generated by graphviz version 5.0.0 (20220707.1540)
 -->
<!-- Title: dependencies Pages: 1 -->
<svg width="270pt" height="247pt"
 viewBox="0.00 0.00 270.00 246.80" xmlns="http://www.w3.org/2000/svg" xmlns:xlink="http://www.w3.org/1999/xlink">
<g id="graph0" class="graph" transform="scale(1 1) rotate(0) translate(4 242.8)">
<title>dependencies</title>
<polygon fill="white" stroke="transparent" points="-4,4 -4,-242.8 266,-242.8 266,4 -4,4"/>
<text text-anchor="middle" x="131" y="-8.2" font-family="sans-serif" font-size="14.00">dependencies</text>
<g id="clust1" class="cluster">
<title>cluster_IntersectionObserverDirectiveModule</title>
<polygon fill="none" stroke="black" stroke-dasharray="1,5" points="8,-32.8 8,-230.8 254,-230.8 254,-32.8 8,-32.8"/>
</g>
<g id="clust2" class="cluster">
<title>cluster_IntersectionObserverDirectiveModule_declarations</title>
<polygon fill="none" stroke="black" points="30,-40.8 30,-92.8 232,-92.8 232,-40.8 30,-40.8"/>
</g>
<g id="clust5" class="cluster">
<title>cluster_IntersectionObserverDirectiveModule_exports</title>
<polygon fill="none" stroke="black" points="29,-170.8 29,-222.8 233,-222.8 233,-170.8 29,-170.8"/>
</g>
<!-- IntersectionObserverDirective -->
<g id="node1" class="node">
<title>IntersectionObserverDirective</title>
<polygon fill="#ffffb3" stroke="black" points="223.98,-84.8 38.02,-84.8 38.02,-48.8 223.98,-48.8 223.98,-84.8"/>
<text text-anchor="middle" x="131" y="-62.6" font-family="Times,serif" font-size="14.00">IntersectionObserverDirective</text>
</g>
<!-- IntersectionObserverDirectiveModule -->
<g id="node2" class="node">
<title>IntersectionObserverDirectiveModule</title>
<polygon fill="#8dd3c7" stroke="black" points="245.53,-149.8 242.53,-153.8 221.53,-153.8 218.53,-149.8 16.47,-149.8 16.47,-113.8 245.53,-113.8 245.53,-149.8"/>
<text text-anchor="middle" x="131" y="-127.6" font-family="Times,serif" font-size="14.00">IntersectionObserverDirectiveModule</text>
</g>
<!-- IntersectionObserverDirective&#45;&gt;IntersectionObserverDirectiveModule -->
<g id="edge1" class="edge">
<title>IntersectionObserverDirective&#45;&gt;IntersectionObserverDirectiveModule</title>
<path fill="none" stroke="black" d="M131,-84.91C131,-84.91 131,-103.79 131,-103.79"/>
<polygon fill="black" stroke="black" points="127.5,-103.79 131,-113.79 134.5,-103.79 127.5,-103.79"/>
</g>
<!-- IntersectionObserverDirective  -->
<g id="node3" class="node">
<title>IntersectionObserverDirective </title>
<polygon fill="#fb8072" stroke="black" points="225.48,-214.8 36.52,-214.8 36.52,-178.8 225.48,-178.8 225.48,-214.8"/>
<text text-anchor="middle" x="131" y="-192.6" font-family="Times,serif" font-size="14.00">IntersectionObserverDirective </text>
</g>
<!-- IntersectionObserverDirectiveModule&#45;&gt;IntersectionObserverDirective  -->
<g id="edge2" class="edge">
<title>IntersectionObserverDirectiveModule&#45;&gt;IntersectionObserverDirective </title>
<path fill="none" stroke="black" stroke-dasharray="5,2" d="M131,-149.91C131,-149.91 131,-168.79 131,-168.79"/>
<polygon fill="black" stroke="black" points="127.5,-168.79 131,-178.79 134.5,-168.79 127.5,-168.79"/>
</g>
</g>
</svg>
