<?xml version="1.0" encoding="UTF-8" standalone="no"?>
<!DOCTYPE svg PUBLIC "-//W3C//DTD SVG 1.1//EN"
 "http://www.w3.org/Graphics/SVG/1.1/DTD/svg11.dtd">
<!-- Generated by graphviz version 5.0.0 (20220707.1540)
 -->
<!-- Title: dependencies Pages: 1 -->
<svg width="480pt" height="174pt"
 viewBox="0.00 0.00 480.00 173.80" xmlns="http://www.w3.org/2000/svg" xmlns:xlink="http://www.w3.org/1999/xlink">
<g id="graph0" class="graph" transform="scale(1 1) rotate(0) translate(4 169.8)">
<title>dependencies</title>
<polygon fill="white" stroke="transparent" points="-4,4 -4,-169.8 476,-169.8 476,4 -4,4"/>
<text text-anchor="middle" x="236" y="-8.2" font-family="sans-serif" font-size="14.00">dependencies</text>
<g id="clust1" class="cluster">
<title>cluster_UserSearchCachedModule</title>
<polygon fill="none" stroke="black" stroke-dasharray="1,5" points="8,-32.8 8,-157.8 464,-157.8 464,-32.8 8,-32.8"/>
</g>
<g id="clust2" class="cluster">
<title>cluster_UserSearchCachedModule_declarations</title>
<polygon fill="none" stroke="black" points="252,-40.8 252,-92.8 456,-92.8 456,-40.8 252,-40.8"/>
</g>
<g id="clust4" class="cluster">
<title>cluster_UserSearchCachedModule_imports</title>
<polygon fill="none" stroke="black" points="16,-40.8 16,-92.8 244,-92.8 244,-40.8 16,-40.8"/>
</g>
<!-- UserSearchCachedComponent -->
<g id="node1" class="node">
<title>UserSearchCachedComponent</title>
<polygon fill="#ffffb3" stroke="black" points="447.84,-84.8 260.16,-84.8 260.16,-48.8 447.84,-48.8 447.84,-84.8"/>
<text text-anchor="middle" x="354" y="-62.6" font-family="Times,serif" font-size="14.00">UserSearchCachedComponent</text>
</g>
<!-- UserSearchCachedModule -->
<g id="node2" class="node">
<title>UserSearchCachedModule</title>
<polygon fill="#8dd3c7" stroke="black" points="325.06,-149.8 322.06,-153.8 301.06,-153.8 298.06,-149.8 158.94,-149.8 158.94,-113.8 325.06,-113.8 325.06,-149.8"/>
<text text-anchor="middle" x="242" y="-127.6" font-family="Times,serif" font-size="14.00">UserSearchCachedModule</text>
</g>
<!-- UserSearchCachedComponent&#45;&gt;UserSearchCachedModule -->
<g id="edge1" class="edge">
<title>UserSearchCachedComponent&#45;&gt;UserSearchCachedModule</title>
<path fill="none" stroke="black" d="M292.56,-84.91C292.56,-84.91 292.56,-103.79 292.56,-103.79"/>
<polygon fill="black" stroke="black" points="289.06,-103.79 292.56,-113.79 296.06,-103.79 289.06,-103.79"/>
</g>
<!-- UserSearchCachedRoutingModule -->
<g id="node3" class="node">
<title>UserSearchCachedRoutingModule</title>
<polygon fill="#8dd3c7" stroke="black" points="235.67,-84.8 232.67,-88.8 211.67,-88.8 208.67,-84.8 24.33,-84.8 24.33,-48.8 235.67,-48.8 235.67,-84.8"/>
<text text-anchor="middle" x="130" y="-62.6" font-family="Times,serif" font-size="14.00">UserSearchCachedRoutingModule</text>
</g>
<!-- UserSearchCachedRoutingModule&#45;&gt;UserSearchCachedModule -->
<g id="edge2" class="edge">
<title>UserSearchCachedRoutingModule&#45;&gt;UserSearchCachedModule</title>
<path fill="none" stroke="black" d="M197.28,-84.91C197.28,-84.91 197.28,-103.79 197.28,-103.79"/>
<polygon fill="black" stroke="black" points="193.78,-103.79 197.28,-113.79 200.78,-103.79 193.78,-103.79"/>
</g>
</g>
</svg>
