<?xml version="1.0" encoding="UTF-8" standalone="no"?>
<!DOCTYPE svg PUBLIC "-//W3C//DTD SVG 1.1//EN"
 "http://www.w3.org/Graphics/SVG/1.1/DTD/svg11.dtd">
<!-- Generated by graphviz version 5.0.0 (20220707.1540)
 -->
<!-- Title: dependencies Pages: 1 -->
<svg width="651pt" height="174pt"
 viewBox="0.00 0.00 651.00 173.80" xmlns="http://www.w3.org/2000/svg" xmlns:xlink="http://www.w3.org/1999/xlink">
<g id="graph0" class="graph" transform="scale(1 1) rotate(0) translate(4 169.8)">
<title>dependencies</title>
<polygon fill="white" stroke="transparent" points="-4,4 -4,-169.8 647,-169.8 647,4 -4,4"/>
<text text-anchor="middle" x="321.5" y="-8.2" font-family="sans-serif" font-size="14.00">dependencies</text>
<g id="clust1" class="cluster">
<title>cluster_ImageDemoModule</title>
<polygon fill="none" stroke="black" stroke-dasharray="1,5" points="8,-32.8 8,-157.8 635,-157.8 635,-32.8 8,-32.8"/>
</g>
<g id="clust2" class="cluster">
<title>cluster_ImageDemoModule_declarations</title>
<polygon fill="none" stroke="black" points="461,-40.8 461,-92.8 627,-92.8 627,-40.8 461,-40.8"/>
</g>
<g id="clust4" class="cluster">
<title>cluster_ImageDemoModule_imports</title>
<polygon fill="none" stroke="black" points="16,-40.8 16,-92.8 453,-92.8 453,-40.8 16,-40.8"/>
</g>
<!-- ImageDemoComponent -->
<g id="node1" class="node">
<title>ImageDemoComponent</title>
<polygon fill="#ffffb3" stroke="black" points="619.03,-84.8 468.97,-84.8 468.97,-48.8 619.03,-48.8 619.03,-84.8"/>
<text text-anchor="middle" x="544" y="-62.6" font-family="Times,serif" font-size="14.00">ImageDemoComponent</text>
</g>
<!-- ImageDemoModule -->
<g id="node2" class="node">
<title>ImageDemoModule</title>
<polygon fill="#8dd3c7" stroke="black" points="422.25,-149.8 419.25,-153.8 398.25,-153.8 395.25,-149.8 293.75,-149.8 293.75,-113.8 422.25,-113.8 422.25,-149.8"/>
<text text-anchor="middle" x="358" y="-127.6" font-family="Times,serif" font-size="14.00">ImageDemoModule</text>
</g>
<!-- ImageDemoComponent&#45;&gt;ImageDemoModule -->
<g id="edge1" class="edge">
<title>ImageDemoComponent&#45;&gt;ImageDemoModule</title>
<path fill="none" stroke="black" d="M544,-84.91C544,-104.14 544,-131.8 544,-131.8 544,-131.8 432.27,-131.8 432.27,-131.8"/>
<polygon fill="black" stroke="black" points="432.27,-128.3 422.27,-131.8 432.27,-135.3 432.27,-128.3"/>
</g>
<!-- ImageDemoRoutingModule -->
<g id="node3" class="node">
<title>ImageDemoRoutingModule</title>
<polygon fill="#8dd3c7" stroke="black" points="444.86,-84.8 441.86,-88.8 420.86,-88.8 417.86,-84.8 271.14,-84.8 271.14,-48.8 444.86,-48.8 444.86,-84.8"/>
<text text-anchor="middle" x="358" y="-62.6" font-family="Times,serif" font-size="14.00">ImageDemoRoutingModule</text>
</g>
<!-- ImageDemoRoutingModule&#45;&gt;ImageDemoModule -->
<g id="edge2" class="edge">
<title>ImageDemoRoutingModule&#45;&gt;ImageDemoModule</title>
<path fill="none" stroke="black" d="M358,-84.91C358,-84.91 358,-103.79 358,-103.79"/>
<polygon fill="black" stroke="black" points="354.5,-103.79 358,-113.79 361.5,-103.79 354.5,-103.79"/>
</g>
<!-- IntersectionObserverDirectiveModule -->
<g id="node4" class="node">
<title>IntersectionObserverDirectiveModule</title>
<polygon fill="#8dd3c7" stroke="black" points="253.53,-84.8 250.53,-88.8 229.53,-88.8 226.53,-84.8 24.47,-84.8 24.47,-48.8 253.53,-48.8 253.53,-84.8"/>
<text text-anchor="middle" x="139" y="-62.6" font-family="Times,serif" font-size="14.00">IntersectionObserverDirectiveModule</text>
</g>
<!-- IntersectionObserverDirectiveModule&#45;&gt;ImageDemoModule -->
<g id="edge3" class="edge">
<title>IntersectionObserverDirectiveModule&#45;&gt;ImageDemoModule</title>
<path fill="none" stroke="black" d="M139,-84.91C139,-104.14 139,-131.8 139,-131.8 139,-131.8 283.48,-131.8 283.48,-131.8"/>
<polygon fill="black" stroke="black" points="283.48,-135.3 293.48,-131.8 283.48,-128.3 283.48,-135.3"/>
</g>
</g>
</svg>
