<?xml version="1.0" encoding="UTF-8" standalone="no"?>
<!DOCTYPE svg PUBLIC "-//W3C//DTD SVG 1.1//EN"
 "http://www.w3.org/Graphics/SVG/1.1/DTD/svg11.dtd">
<!-- Generated by graphviz version 5.0.0 (20220707.1540)
 -->
<!-- Title: dependencies Pages: 1 -->
<svg width="572pt" height="174pt"
 viewBox="0.00 0.00 572.00 173.80" xmlns="http://www.w3.org/2000/svg" xmlns:xlink="http://www.w3.org/1999/xlink">
<g id="graph0" class="graph" transform="scale(1 1) rotate(0) translate(4 169.8)">
<title>dependencies</title>
<polygon fill="white" stroke="transparent" points="-4,4 -4,-169.8 568,-169.8 568,4 -4,4"/>
<text text-anchor="middle" x="282" y="-8.2" font-family="sans-serif" font-size="14.00">dependencies</text>
<g id="clust1" class="cluster">
<title>cluster_UsersDataModule</title>
<polygon fill="none" stroke="black" stroke-dasharray="1,5" points="8,-32.8 8,-157.8 556,-157.8 556,-32.8 8,-32.8"/>
</g>
<g id="clust2" class="cluster">
<title>cluster_UsersDataModule_declarations</title>
<polygon fill="none" stroke="black" points="202,-40.8 202,-92.8 548,-92.8 548,-40.8 202,-40.8"/>
</g>
<g id="clust5" class="cluster">
<title>cluster_UsersDataModule_imports</title>
<polygon fill="none" stroke="black" points="16,-40.8 16,-92.8 194,-92.8 194,-40.8 16,-40.8"/>
</g>
<!-- UserDataDialogComponent -->
<g id="node1" class="node">
<title>UserDataDialogComponent</title>
<polygon fill="#ffffb3" stroke="black" points="540.3,-84.8 367.7,-84.8 367.7,-48.8 540.3,-48.8 540.3,-84.8"/>
<text text-anchor="middle" x="454" y="-62.6" font-family="Times,serif" font-size="14.00">UserDataDialogComponent</text>
</g>
<!-- UsersDataModule -->
<g id="node3" class="node">
<title>UsersDataModule</title>
<polygon fill="#8dd3c7" stroke="black" points="338.86,-149.8 335.86,-153.8 314.86,-153.8 311.86,-149.8 221.14,-149.8 221.14,-113.8 338.86,-113.8 338.86,-149.8"/>
<text text-anchor="middle" x="280" y="-127.6" font-family="Times,serif" font-size="14.00">UsersDataModule</text>
</g>
<!-- UserDataDialogComponent&#45;&gt;UsersDataModule -->
<g id="edge1" class="edge">
<title>UserDataDialogComponent&#45;&gt;UsersDataModule</title>
<path fill="none" stroke="black" d="M454,-84.91C454,-104.14 454,-131.8 454,-131.8 454,-131.8 348.91,-131.8 348.91,-131.8"/>
<polygon fill="black" stroke="black" points="348.91,-128.3 338.91,-131.8 348.91,-135.3 348.91,-128.3"/>
</g>
<!-- UsersDataComponent -->
<g id="node2" class="node">
<title>UsersDataComponent</title>
<polygon fill="#ffffb3" stroke="black" points="349.64,-84.8 210.36,-84.8 210.36,-48.8 349.64,-48.8 349.64,-84.8"/>
<text text-anchor="middle" x="280" y="-62.6" font-family="Times,serif" font-size="14.00">UsersDataComponent</text>
</g>
<!-- UsersDataComponent&#45;&gt;UsersDataModule -->
<g id="edge2" class="edge">
<title>UsersDataComponent&#45;&gt;UsersDataModule</title>
<path fill="none" stroke="black" d="M280,-84.91C280,-84.91 280,-103.79 280,-103.79"/>
<polygon fill="black" stroke="black" points="276.5,-103.79 280,-113.79 283.5,-103.79 276.5,-103.79"/>
</g>
<!-- UsersDataRoutingModule -->
<g id="node4" class="node">
<title>UsersDataRoutingModule</title>
<polygon fill="#8dd3c7" stroke="black" points="186.48,-84.8 183.48,-88.8 162.48,-88.8 159.48,-84.8 23.52,-84.8 23.52,-48.8 186.48,-48.8 186.48,-84.8"/>
<text text-anchor="middle" x="105" y="-62.6" font-family="Times,serif" font-size="14.00">UsersDataRoutingModule</text>
</g>
<!-- UsersDataRoutingModule&#45;&gt;UsersDataModule -->
<g id="edge3" class="edge">
<title>UsersDataRoutingModule&#45;&gt;UsersDataModule</title>
<path fill="none" stroke="black" d="M105,-84.91C105,-104.14 105,-131.8 105,-131.8 105,-131.8 210.75,-131.8 210.75,-131.8"/>
<polygon fill="black" stroke="black" points="210.75,-135.3 220.75,-131.8 210.75,-128.3 210.75,-135.3"/>
</g>
</g>
</svg>
