<?xml version="1.0" encoding="UTF-8" standalone="no"?>
<!DOCTYPE svg PUBLIC "-//W3C//DTD SVG 1.1//EN"
 "http://www.w3.org/Graphics/SVG/1.1/DTD/svg11.dtd">
<!-- Generated by graphviz version 5.0.0 (20220707.1540)
 -->
<!-- Title: dependencies Pages: 1 -->
<svg width="352pt" height="174pt"
 viewBox="0.00 0.00 352.00 173.80" xmlns="http://www.w3.org/2000/svg" xmlns:xlink="http://www.w3.org/1999/xlink">
<g id="graph0" class="graph" transform="scale(1 1) rotate(0) translate(4 169.8)">
<title>dependencies</title>
<polygon fill="white" stroke="transparent" points="-4,4 -4,-169.8 348,-169.8 348,4 -4,4"/>
<text text-anchor="middle" x="172" y="-8.2" font-family="sans-serif" font-size="14.00">dependencies</text>
<g id="clust1" class="cluster">
<title>cluster_WorkerModule</title>
<polygon fill="none" stroke="black" stroke-dasharray="1,5" points="8,-32.8 8,-157.8 336,-157.8 336,-32.8 8,-32.8"/>
</g>
<g id="clust4" class="cluster">
<title>cluster_WorkerModule_imports</title>
<polygon fill="none" stroke="black" points="164,-40.8 164,-92.8 328,-92.8 328,-40.8 164,-40.8"/>
</g>
<g id="clust2" class="cluster">
<title>cluster_WorkerModule_declarations</title>
<polygon fill="none" stroke="black" points="16,-40.8 16,-92.8 156,-92.8 156,-40.8 16,-40.8"/>
</g>
<!-- WorkerComponent -->
<g id="node1" class="node">
<title>WorkerComponent</title>
<polygon fill="#ffffb3" stroke="black" points="148.08,-84.8 23.92,-84.8 23.92,-48.8 148.08,-48.8 148.08,-84.8"/>
<text text-anchor="middle" x="86" y="-62.6" font-family="Times,serif" font-size="14.00">WorkerComponent</text>
</g>
<!-- WorkerModule -->
<g id="node2" class="node">
<title>WorkerModule</title>
<polygon fill="#8dd3c7" stroke="black" points="217.3,-149.8 214.3,-153.8 193.3,-153.8 190.3,-149.8 114.7,-149.8 114.7,-113.8 217.3,-113.8 217.3,-149.8"/>
<text text-anchor="middle" x="166" y="-127.6" font-family="Times,serif" font-size="14.00">WorkerModule</text>
</g>
<!-- WorkerComponent&#45;&gt;WorkerModule -->
<g id="edge1" class="edge">
<title>WorkerComponent&#45;&gt;WorkerModule</title>
<path fill="none" stroke="black" d="M131.44,-84.91C131.44,-84.91 131.44,-103.79 131.44,-103.79"/>
<polygon fill="black" stroke="black" points="127.94,-103.79 131.44,-113.79 134.94,-103.79 127.94,-103.79"/>
</g>
<!-- WorkerRoutingModule -->
<g id="node3" class="node">
<title>WorkerRoutingModule</title>
<polygon fill="#8dd3c7" stroke="black" points="319.92,-84.8 316.92,-88.8 295.92,-88.8 292.92,-84.8 172.08,-84.8 172.08,-48.8 319.92,-48.8 319.92,-84.8"/>
<text text-anchor="middle" x="246" y="-62.6" font-family="Times,serif" font-size="14.00">WorkerRoutingModule</text>
</g>
<!-- WorkerRoutingModule&#45;&gt;WorkerModule -->
<g id="edge2" class="edge">
<title>WorkerRoutingModule&#45;&gt;WorkerModule</title>
<path fill="none" stroke="black" d="M194.72,-84.91C194.72,-84.91 194.72,-103.79 194.72,-103.79"/>
<polygon fill="black" stroke="black" points="191.22,-103.79 194.72,-113.79 198.22,-103.79 191.22,-103.79"/>
</g>
</g>
</svg>
