<?xml version="1.0" encoding="UTF-8" standalone="no"?>
<!DOCTYPE svg PUBLIC "-//W3C//DTD SVG 1.1//EN"
 "http://www.w3.org/Graphics/SVG/1.1/DTD/svg11.dtd">
<!-- Generated by graphviz version 5.0.0 (20220707.1540)
 -->
<!-- Title: dependencies Pages: 1 -->
<svg width="352pt" height="174pt"
 viewBox="0.00 0.00 352.00 173.80" xmlns="http://www.w3.org/2000/svg" xmlns:xlink="http://www.w3.org/1999/xlink">
<g id="graph0" class="graph" transform="scale(1 1) rotate(0) translate(4 169.8)">
<title>dependencies</title>
<polygon fill="white" stroke="transparent" points="-4,4 -4,-169.8 348,-169.8 348,4 -4,4"/>
<text text-anchor="middle" x="172" y="-8.2" font-family="sans-serif" font-size="14.00">dependencies</text>
<g id="clust1" class="cluster">
<title>cluster_WorkerModule</title>
<polygon fill="none" stroke="black" stroke-dasharray="1,5" points="8,-32.8 8,-157.8 336,-157.8 336,-32.8 8,-32.8"/>
</g>
<g id="clust2" class="cluster">
<title>cluster_WorkerModule_declarations</title>
<polygon fill="none" stroke="black" points="188,-40.8 188,-92.8 328,-92.8 328,-40.8 188,-40.8"/>
</g>
<g id="clust4" class="cluster">
<title>cluster_WorkerModule_imports</title>
<polygon fill="none" stroke="black" points="16,-40.8 16,-92.8 180,-92.8 180,-40.8 16,-40.8"/>
</g>
<!-- WorkerComponent -->
<g id="node1" class="node">
<title>WorkerComponent</title>
<polygon fill="#ffffb3" stroke="black" points="320.08,-84.8 195.92,-84.8 195.92,-48.8 320.08,-48.8 320.08,-84.8"/>
<text text-anchor="middle" x="258" y="-62.6" font-family="Times,serif" font-size="14.00">WorkerComponent</text>
</g>
<!-- WorkerModule -->
<g id="node2" class="node">
<title>WorkerModule</title>
<polygon fill="#8dd3c7" stroke="black" points="229.3,-149.8 226.3,-153.8 205.3,-153.8 202.3,-149.8 126.7,-149.8 126.7,-113.8 229.3,-113.8 229.3,-149.8"/>
<text text-anchor="middle" x="178" y="-127.6" font-family="Times,serif" font-size="14.00">WorkerModule</text>
</g>
<!-- WorkerComponent&#45;&gt;WorkerModule -->
<g id="edge1" class="edge">
<title>WorkerComponent&#45;&gt;WorkerModule</title>
<path fill="none" stroke="black" d="M212.56,-84.91C212.56,-84.91 212.56,-103.79 212.56,-103.79"/>
<polygon fill="black" stroke="black" points="209.06,-103.79 212.56,-113.79 216.06,-103.79 209.06,-103.79"/>
</g>
<!-- WorkerRoutingModule -->
<g id="node3" class="node">
<title>WorkerRoutingModule</title>
<polygon fill="#8dd3c7" stroke="black" points="171.92,-84.8 168.92,-88.8 147.92,-88.8 144.92,-84.8 24.08,-84.8 24.08,-48.8 171.92,-48.8 171.92,-84.8"/>
<text text-anchor="middle" x="98" y="-62.6" font-family="Times,serif" font-size="14.00">WorkerRoutingModule</text>
</g>
<!-- WorkerRoutingModule&#45;&gt;WorkerModule -->
<g id="edge2" class="edge">
<title>WorkerRoutingModule&#45;&gt;WorkerModule</title>
<path fill="none" stroke="black" d="M149.28,-84.91C149.28,-84.91 149.28,-103.79 149.28,-103.79"/>
<polygon fill="black" stroke="black" points="145.78,-103.79 149.28,-113.79 152.78,-103.79 145.78,-103.79"/>
</g>
</g>
</svg>
